  0
SECTION
  2
HEADER
  9
$ACADVER
  1
AC1015
  9
$ACADMAINTVER
 70
     6
  9
$DWGCODEPAGE
  3
ANSI_936
  9
$INSBASE
 10
0.0
 20
0.0
 30
0.0
  9
$EXTMIN
 10
0.0
 20
0.0
 30
0.0
  9
$EXTMAX
 10
355.0
 20
280.0
 30
0.0
  9
$LIMMIN
 10
0.0
 20
0.0
  9
$LIMMAX
 10
420.0
 20
297.0
  9
$ORTHOMODE
 70
     1
  9
$REGENMODE
 70
     1
  9
$FILLMODE
 70
     1
  9
$QTEXTMODE
 70
     0
  9
$MIRRTEXT
 70
     1
  9
$LTSCALE
 40
1.0
  9
$ATTMODE
 70
     1
  9
$TEXTSIZE
 40
2.5
  9
$TRACEWID
 40
1.0
  9
$TEXTSTYLE
  7
Standard
  9
$CLAYER
  8
0
  9
$CELTYPE
  6
ByLayer
  9
$CECOLOR
 62
   256
  9
$CELTSCALE
 40
1.0
  9
$DISPSILH
 70
     0
  9
$DIMSCALE
 40
1.0
  9
$DIMASZ
 40
2.5
  9
$DIMEXO
 40
0.625
  9
$DIMDLI
 40
3.75
  9
$DIMRND
 40
0.0
  9
$DIMDLE
 40
0.0
  9
$DIMEXE
 40
1.25
  9
$DIMTP
 40
0.0
  9
$DIMTM
 40
0.0
  9
$DIMTXT
 40
2.5
  9
$DIMCEN
 40
2.5
  9
$DIMTSZ
 40
0.0
  9
$DIMTOL
 70
     0
  9
$DIMLIM
 70
     0
  9
$DIMTIH
 70
     0
  9
$DIMTOH
 70
     0
  9
$DIMSE1
 70
     0
  9
$DIMSE2
 70
     0
  9
$DIMTAD
 70
     1
  9
$DIMZIN
 70
     8
  9
$DIMBLK
  1

  9
$DIMASO
 70
     1
  9
$DIMSHO
 70
     1
  9
$DIMPOST
  1

  9
$DIMAPOST
  1

  9
$DIMALT
 70
     0
  9
$DIMALTD
 70
     3
  9
$DIMALTF
 40
0.03937007874016
  9
$DIMLFAC
 40
1.0
  9
$DIMTOFL
 70
     1
  9
$DIMTVP
 40
0.0
  9
$DIMTIX
 70
     0
  9
$DIMSOXD
 70
     0
  9
$DIMSAH
 70
     0
  9
$DIMBLK1
  1

  9
$DIMBLK2
  1

  9
$DIMSTYLE
  2
ISO-25
  9
$DIMCLRD
 70
     0
  9
$DIMCLRE
 70
     0
  9
$DIMCLRT
 70
     0
  9
$DIMTFAC
 40
1.0
  9
$DIMGAP
 40
0.625
  9
$DIMJUST
 70
     0
  9
$DIMSD1
 70
     0
  9
$DIMSD2
 70
     0
  9
$DIMTOLJ
 70
     0
  9
$DIMTZIN
 70
     8
  9
$DIMALTZ
 70
     0
  9
$DIMALTTZ
 70
     0
  9
$DIMUPT
 70
     0
  9
$DIMDEC
 70
     2
  9
$DIMTDEC
 70
     2
  9
$DIMALTU
 70
     2
  9
$DIMALTTD
 70
     3
  9
$DIMTXSTY
  7
Standard
  9
$DIMAUNIT
 70
     0
  9
$DIMADEC
 70
     0
  9
$DIMALTRND
 40
0.0
  9
$DIMAZIN
 70
     0
  9
$DIMDSEP
 70
    46
  9
$DIMATFIT
 70
     3
  9
$DIMFRAC
 70
     0
  9
$DIMLDRBLK
  1

  9
$DIMLUNIT
 70
     2
  9
$DIMLWD
 70
    -2
  9
$DIMLWE
 70
    -2
  9
$DIMTMOVE
 70
     0
  9
$LUNITS
 70
     2
  9
$LUPREC
 70
     4
  9
$SKETCHINC
 40
1.0
  9
$FILLETRAD
 40
10.0
  9
$AUNITS
 70
     0
  9
$AUPREC
 70
     0
  9
$MENU
  1
.
  9
$ELEVATION
 40
0.0
  9
$PELEVATION
 40
0.0
  9
$THICKNESS
 40
0.0
  9
$LIMCHECK
 70
     0
  9
$CHAMFERA
 40
10.0
  9
$CHAMFERB
 40
10.0
  9
$CHAMFERC
 40
20.0
  9
$CHAMFERD
 40
0.0
  9
$SKPOLY
 70
     0
  9
$TDCREATE
 40
2452860.586783414
  9
$TDUCREATE
 40
2452860.253450081
  9
$TDUPDATE
 40
2453168.824455833
  9
$TDUUPDATE
 40
2453168.491122500
  9
$TDINDWG
 40
1.3298338773
  9
$TDUSRTIMER
 40
1.3298299537
  9
$USRTIMER
 70
     1
  9
$ANGBASE
 50
0.0
  9
$ANGDIR
 70
     0
  9
$PDMODE
 70
     0
  9
$PDSIZE
 40
0.0
  9
$PLINEWID
 40
0.0
  9
$SPLFRAME
 70
     0
  9
$SPLINETYPE
 70
     6
  9
$SPLINESEGS
 70
     8
  9
$HANDSEED
  5
2D6
  9
$SURFTAB1
 70
     6
  9
$SURFTAB2
 70
     6
  9
$SURFTYPE
 70
     6
  9
$SURFU
 70
     6
  9
$SURFV
 70
     6
  9
$UCSBASE
  2

  9
$UCSNAME
  2

  9
$UCSORG
 10
0.0
 20
0.0
 30
0.0
  9
$UCSXDIR
 10
1.0
 20
0.0
 30
0.0
  9
$UCSYDIR
 10
0.0
 20
1.0
 30
0.0
  9
$UCSORTHOREF
  2

  9
$UCSORTHOVIEW
 70
     0
  9
$UCSORGTOP
 10
0.0
 20
0.0
 30
0.0
  9
$UCSORGBOTTOM
 10
0.0
 20
0.0
 30
0.0
  9
$UCSORGLEFT
 10
0.0
 20
0.0
 30
0.0
  9
$UCSORGRIGHT
 10
0.0
 20
0.0
 30
0.0
  9
$UCSORGFRONT
 10
0.0
 20
0.0
 30
0.0
  9
$UCSORGBACK
 10
0.0
 20
0.0
 30
0.0
  9
$PUCSBASE
  2

  9
$PUCSNAME
  2

  9
$PUCSORG
 10
0.0
 20
0.0
 30
0.0
  9
$PUCSXDIR
 10
1.0
 20
0.0
 30
0.0
  9
$PUCSYDIR
 10
0.0
 20
1.0
 30
0.0
  9
$PUCSORTHOREF
  2

  9
$PUCSORTHOVIEW
 70
     0
  9
$PUCSORGTOP
 10
0.0
 20
0.0
 30
0.0
  9
$PUCSORGBOTTOM
 10
0.0
 20
0.0
 30
0.0
  9
$PUCSORGLEFT
 10
0.0
 20
0.0
 30
0.0
  9
$PUCSORGRIGHT
 10
0.0
 20
0.0
 30
0.0
  9
$PUCSORGFRONT
 10
0.0
 20
0.0
 30
0.0
  9
$PUCSORGBACK
 10
0.0
 20
0.0
 30
0.0
  9
$USERI1
 70
     0
  9
$USERI2
 70
     0
  9
$USERI3
 70
     0
  9
$USERI4
 70
     0
  9
$USERI5
 70
     0
  9
$USERR1
 40
0.0
  9
$USERR2
 40
0.0
  9
$USERR3
 40
0.0
  9
$USERR4
 40
0.0
  9
$USERR5
 40
0.0
  9
$WORLDVIEW
 70
     1
  9
$SHADEDGE
 70
     3
  9
$SHADEDIF
 70
    70
  9
$TILEMODE
 70
     1
  9
$MAXACTVP
 70
    64
  9
$PINSBASE
 10
0.0
 20
0.0
 30
0.0
  9
$PLIMCHECK
 70
     0
  9
$PEXTMIN
 10
-8.899471633043502
 20
-26.73820739052917
 30
0.0
  9
$PEXTMAX
 10
426.589167520022
 20
307.7994923806357
 30
0.0
  9
$PLIMMIN
 10
-5.238739013671875
 20
-5.238749980926511
  9
$PLIMMAX
 10
414.750244140625
 20
291.7507519721985
  9
$UNITMODE
 70
     0
  9
$VISRETAIN
 70
     1
  9
$PLINEGEN
 70
     0
  9
$PSLTSCALE
 70
     1
  9
$TREEDEPTH
 70
  3020
  9
$CMLSTYLE
  2
Standard
  9
$CMLJUST
 70
     0
  9
$CMLSCALE
 40
20.0
  9
$PROXYGRAPHICS
 70
     1
  9
$MEASUREMENT
 70
     1
  9
$CELWEIGHT
370
    -1
  9
$ENDCAPS
280
     0
  9
$JOINSTYLE
280
     0
  9
$LWDISPLAY
290
     0
  9
$INSUNITS
 70
     4
  9
$HYPERLINKBASE
  1

  9
$STYLESHEET
  1

  9
$XEDIT
290
     1
  9
$CEPSNTYPE
380
     0
  9
$PSTYLEMODE
290
     1
  9
$FINGERPRINTGUID
  2
{6FE1AFC0-5102-4A46-B493-E7447FAF5E28}
  9
$VERSIONGUID
  2
{C9A08067-C442-48AC-B4CA-4EBC3FA04B82}
  9
$EXTNAMES
290
     1
  9
$PSVPSCALE
 40
0.0
  9
$OLESTARTUP
290
     0
  0
ENDSEC
  0
SECTION
  2
CLASSES
  0
CLASS
  1
ACDBDICTIONARYWDFLT
  2
AcDbDictionaryWithDefault
  3
AutoCAD 2000
 90
        0
280
     0
281
     0
  0
CLASS
  1
ACDBPLACEHOLDER
  2
AcDbPlaceHolder
  3
AutoCAD 2000
 90
        0
280
     0
281
     0
  0
CLASS
  1
LAYOUT
  2
AcDbLayout
  3
AutoCAD 2000
 90
        0
280
     0
281
     0
  0
CLASS
  1
DICTIONARYVAR
  2
AcDbDictionaryVar
  3
AutoCAD 2000
 90
        0
280
     0
281
     0
  0
ENDSEC
  0
SECTION
  2
TABLES
  0
TABLE
  2
VPORT
  5
8
330
0
100
AcDbSymbolTable
 70
     2
  0
VPORT
  5
2D5
330
8
100
AcDbSymbolTableRecord
100
AcDbViewportTableRecord
  2
*Active
 70
     0
 10
0.0
 20
0.0
 11
1.0
 21
1.0
 12
120.9023827710645
 22
221.5219966056962
 13
0.0
 23
0.0
 14
10.0
 24
10.0
 15
10.0
 25
10.0
 16
0.0
 26
0.0
 36
1.0
 17
0.0
 27
0.0
 37
0.0
 40
151.8662344216056
 41
1.928861788617886
 42
50.0
 43
0.0
 44
0.0
 50
0.0
 51
0.0
 71
     0
 72
   100
 73
     1
 74
     3
 75
     0
 76
     0
 77
     0
 78
     0
281
     0
 65
     1
110
0.0
120
0.0
130
0.0
111
1.0
121
0.0
131
0.0
112
0.0
122
1.0
132
0.0
 79
     0
146
0.0
  0
ENDTAB
  0
TABLE
  2
LTYPE
  5
5
330
0
100
AcDbSymbolTable
 70
     1
  0
LTYPE
  5
14
330
5
100
AcDbSymbolTableRecord
100
AcDbLinetypeTableRecord
  2
ByBlock
 70
     0
  3

 72
    65
 73
     0
 40
0.0
  0
LTYPE
  5
15
330
5
100
AcDbSymbolTableRecord
100
AcDbLinetypeTableRecord
  2
ByLayer
 70
     0
  3

 72
    65
 73
     0
 40
0.0
  0
LTYPE
  5
16
330
5
100
AcDbSymbolTableRecord
100
AcDbLinetypeTableRecord
  2
Continuous
 70
     0
  3
Solid line
 72
    65
 73
     0
 40
0.0
  0
ENDTAB
  0
TABLE
  2
LAYER
  5
2
330
0
100
AcDbSymbolTable
 70
     1
  0
LAYER
  5
10
330
2
100
AcDbSymbolTableRecord
100
AcDbLayerTableRecord
  2
0
 70
     0
 62
     7
  6
Continuous
370
    -3
390
F
  0
ENDTAB
  0
TABLE
  2
STYLE
  5
3
330
0
100
AcDbSymbolTable
 70
     1
  0
STYLE
  5
11
330
3
100
AcDbSymbolTableRecord
100
AcDbTextStyleTableRecord
  2
Standard
 70
     0
 40
0.0
 41
1.0
 50
0.0
 71
     0
 42
2.5
  3
txt
  4

  0
ENDTAB
  0
TABLE
  2
VIEW
  5
6
330
0
100
AcDbSymbolTable
 70
     0
  0
ENDTAB
  0
TABLE
  2
UCS
  5
7
330
0
100
AcDbSymbolTable
 70
     0
  0
ENDTAB
  0
TABLE
  2
APPID
  5
9
330
0
100
AcDbSymbolTable
 70
     1
  0
APPID
  5
12
330
9
100
AcDbSymbolTableRecord
100
AcDbRegAppTableRecord
  2
ACAD
 70
     0
  0
ENDTAB
  0
TABLE
  2
DIMSTYLE
  5
A
330
0
100
AcDbSymbolTable
 70
     1
100
AcDbDimStyleTable
 71
     0
  0
DIMSTYLE
105
27
330
A
100
AcDbSymbolTableRecord
100
AcDbDimStyleTableRecord
  2
ISO-25
 70
     0
 41
2.5
 42
0.625
 43
3.75
 44
1.25
 73
     0
 74
     0
 77
     1
 78
     8
140
2.5
141
2.5
143
0.03937007874016
147
0.625
171
     3
172
     1
271
     2
272
     2
274
     3
283
     0
284
     8
340
11
  0
ENDTAB
  0
TABLE
  2
BLOCK_RECORD
  5
1
330
0
100
AcDbSymbolTable
 70
     1
  0
BLOCK_RECORD
  5
1F
330
1
100
AcDbSymbolTableRecord
100
AcDbBlockTableRecord
  2
*Model_Space
340
22
  0
BLOCK_RECORD
  5
1B
330
1
100
AcDbSymbolTableRecord
100
AcDbBlockTableRecord
  2
*Paper_Space
340
1E
  0
BLOCK_RECORD
  5
23
330
1
100
AcDbSymbolTableRecord
100
AcDbBlockTableRecord
  2
*Paper_Space0
340
26
  0
ENDTAB
  0
ENDSEC
  0
SECTION
  2
BLOCKS
  0
BLOCK
  5
20
330
1F
100
AcDbEntity
  8
0
100
AcDbBlockBegin
  2
*Model_Space
 70
     0
 10
0.0
 20
0.0
 30
0.0
  3
*Model_Space
  1

  0
ENDBLK
  5
21
330
1F
100
AcDbEntity
  8
0
100
AcDbBlockEnd
  0
BLOCK
  5
1C
330
1B
100
AcDbEntity
 67
     1
  8
0
100
AcDbBlockBegin
  2
*Paper_Space
 70
     0
 10
0.0
 20
0.0
 30
0.0
  3
*Paper_Space
  1

  0
ENDBLK
  5
1D
330
1B
100
AcDbEntity
 67
     1
  8
0
100
AcDbBlockEnd
  0
BLOCK
  5
24
330
23
100
AcDbEntity
  8
0
100
AcDbBlockBegin
  2
*Paper_Space0
 70
     0
 10
0.0
 20
0.0
 30
0.0
  3
*Paper_Space0
  1

  0
ENDBLK
  5
25
330
23
100
AcDbEntity
  8
0
100
AcDbBlockEnd
  0
ENDSEC
  0
SECTION
  2
ENTITIES
  0
LWPOLYLINE
  5
2F1212
330
1F
100
AcDbEntity
  8
0
100
AcDbPolyline
 90
        4
 70
     1
 43
0.0
 10
1.0
 20
3.5
 10
354.0
 20
3.5
 10
354.0
 20
10.5
 10
1.0
 20
10.5
  0
LWPOLYLINE
  5
32
330
1F
100
AcDbEntity
  8
0
100
AcDbPolyline
 90
        4
 70
     1
 43
0.0
 10
1.0
 20
12.5
 10
354.0
 20
12.5
 10
354.0
 20
250.4999999999999
 10
1.0
 20
250.4999999999999
  0
LINE
  5
35
330
1F
100
AcDbEntity
  8
0
100
AcDbLine
 10
1.0
 20
218.4999999999999
 30
0.0
 11
354.0
 21
218.4999999999999
 31
0.0
  0
LINE
  5
36
330
1F
100
AcDbEntity
  8
0
100
AcDbLine
 10
11.0
 20
250.4999999999999
 30
0.0
 11
11.0
 21
12.5
 31
0.0
  0
LINE
  5
37
330
1F
100
AcDbEntity
  8
0
100
AcDbLine
 10
11.0
 20
223.4999999999998
 30
0.0
 11
354.0
 21
223.4999999999998
 31
0.0
  0
LINE
  5
38
330
1F
100
AcDbEntity
  8
0
100
AcDbLine
 10
21.0
 20
250.4999999999999
 30
0.0
 11
21.0
 21
223.4999999999998
 31
0.0
  0
LINE
  5
39
330
1F
100
AcDbEntity
  8
0
100
AcDbLine
 10
31.0
 20
250.4999999999999
 30
0.0
 11
31.0
 21
223.4999999999998
 31
0.0
  0
LINE
  5
3A
330
1F
100
AcDbEntity
  8
0
100
AcDbLine
 10
41.0
 20
250.4999999999999
 30
0.0
 11
41.0
 21
12.5
 31
0.0
  0
LINE
  5
3D
330
1F
100
AcDbEntity
  8
0
100
AcDbLine
 10
61.0
 20
250.4999999999999
 30
0.0
 11
61.0
 21
12.5
 31
0.0
  0
LINE
  5
3E
330
1F
100
AcDbEntity
  8
0
100
AcDbLine
 10
105.0
 20
250.4999999999999
 30
0.0
 11
105.0
 21
12.5
 31
0.0
  0
LINE
  5
3F
330
1F
100
AcDbEntity
  8
0
100
AcDbLine
 10
122.0
 20
250.4999999999999
 30
0.0
 11
122.0
 21
12.5
 31
0.0
  0
LINE
  5
41
330
1F
100
AcDbEntity
  8
0
100
AcDbLine
 10
122.0
 20
243.5
 30
0.0
 11
180.0
 21
243.5
 31
0.0
  0
LINE
  5
44
330
1F
100
AcDbEntity
  8
0
100
AcDbLine
 10
180.0
 20
250.4999999999999
 30
0.0
 11
180.0
 21
12.5
 31
0.0
  0
LINE
  5
45
330
1F
100
AcDbEntity
  8
0
100
AcDbLine
 10
190.0
 20
250.4999999999999
 30
0.0
 11
190.0
 21
12.5
 31
0.0
  0
LINE
  5
46
330
1F
100
AcDbEntity
  8
0
100
AcDbLine
 10
200.0
 20
250.4999999999999
 30
0.0
 11
200.0
 21
12.5
 31
0.0
  0
LINE
  5
47
330
1F
100
AcDbEntity
  8
0
100
AcDbLine
 10
207.0
 20
250.4999999999999
 30
0.0
 11
207.0
 21
12.5
 31
0.0
  0
LINE
  5
49
330
1F
100
AcDbEntity
  8
0
100
AcDbLine
 10
217.0
 20
250.4999999999999
 30
0.0
 11
217.0
 21
12.5
 31
0.0
  0
LINE
  5
4A
330
1F
100
AcDbEntity
  8
0
100
AcDbLine
 10
227.0
 20
250.4999999999999
 30
0.0
 11
227.0
 21
12.5
 31
0.0
  0
LINE
  5
4B
330
1F
100
AcDbEntity
  8
0
100
AcDbLine
 10
237.0
 20
250.4999999999999
 30
0.0
 11
237.0
 21
12.5
 31
0.0
  0
LINE
  5
4C
330
1F
100
AcDbEntity
  8
0
100
AcDbLine
 10
257.0
 20
250.4999999999999
 30
0.0
 11
257.0
 21
12.5
 31
0.0
  0
LINE
  5
4D
330
1F
100
AcDbEntity
  8
0
100
AcDbLine
 10
277.0
 20
250.4999999999999
 30
0.0
 11
277.0
 21
12.5
 31
0.0
  0
LINE
  5
4E
330
1F
100
AcDbEntity
  8
0
100
AcDbLine
 10
307.0
 20
250.4999999999999
 30
0.0
 11
307.0
 21
12.5
 31
0.0
  0
LINE
  5
4F
330
1F
100
AcDbEntity
  8
0
100
AcDbLine
 10
327.0
 20
250.4999999999999
 30
0.0
 11
327.0
 21
12.5
 31
0.0
  0
LINE
  5
50
330
1F
100
AcDbEntity
  8
0
100
AcDbLine
 10
337.0
 20
250.4999999999999
 30
0.0
 11
337.0
 21
12.5
 31
0.0
  0
LINE
  5
5C
330
1F
100
AcDbEntity
  8
0
100
AcDbLine
 10
21.0
 20
218.4999999999999
 30
0.0
 11
20.99999999999998
 21
12.5
 31
0.0
  0
LINE
  5
5D
330
1F
100
AcDbEntity
  8
0
100
AcDbLine
 10
31.0
 20
218.4999999999999
 30
0.0
 11
31.0
 21
12.5
 31
0.0
  0
MTEXT
  5
5E
330
1F
100
AcDbEntity
  8
0
100
AcDbMText
 10
6.0
 20
245.5
 30
0.0
 40
2.5
 41
4.926
 71
     2
 72
     5
  1
{\f楷体_GB2312|b0|i0|c134|p49;层\P\P\P\P号}
 73
     1
 44
0.9599999999999999
  0
LINE
  5
6F
330
1F
100
AcDbEntity
  8
0
100
AcDbLine
 10
132.0
 20
243.5
 30
0.0
 11
132.0
 21
12.5
 31
0.0
  0
LINE
  5
70
330
1F
100
AcDbEntity
  8
0
100
AcDbLine
 10
142.0
 20
236.4999999999999
 30
0.0
 11
142.0
 21
223.4999999999998
 31
0.0
  0
LINE
  5
71
330
1F
100
AcDbEntity
  8
0
100
AcDbLine
 10
152.0
 20
243.5
 30
0.0
 11
152.0
 21
12.5
 31
0.0
  0
LINE
  5
72
330
1F
100
AcDbEntity
  8
0
100
AcDbLine
 10
159.0
 20
243.5
 30
0.0
 11
159.0
 21
12.5
 31
0.0
  0
LINE
  5
74
330
1F
100
AcDbEntity
  8
0
100
AcDbLine
 10
166.0
 20
243.5
 30
0.0
 11
166.0
 21
12.5
 31
0.0
  0
LINE
  5
75
330
1F
100
AcDbEntity
  8
0
100
AcDbLine
 10
173.0
 20
243.5
 30
0.0
 11
173.0
 21
12.5
 31
0.0
  0
LINE
  5
77
330
1F
100
AcDbEntity
  8
0
100
AcDbLine
 10
237.0
 20
243.5
 30
0.0
 11
257.0
 21
243.4999999999999
 31
0.0
  0
LINE
  5
78
330
1F
100
AcDbEntity
  8
0
100
AcDbLine
 10
247.0
 20
243.5
 30
0.0
 11
247.0
 21
12.5
 31
0.0
  0
LINE
  5
7A
330
1F
100
AcDbEntity
  8
0
100
AcDbLine
 10
277.0
 20
243.5
 30
0.0
 11
327.0
 21
243.4999999999998
 31
0.0
  0
LINE
  5
7B
330
1F
100
AcDbEntity
  8
0
100
AcDbLine
 10
132.0
 20
236.4999999999999
 30
0.0
 11
152.0
 21
236.4999999999999
 31
0.0
  0
LINE
  5
7C
330
1F
100
AcDbEntity
  8
0
100
AcDbLine
 10
277.0
 20
236.4999999999999
 30
0.0
 11
336.9999999999998
 21
236.4999999999999
 31
0.0
  0
LINE
  5
7D
330
1F
100
AcDbEntity
  8
0
100
AcDbLine
 10
287.0
 20
243.4999999999999
 30
0.0
 11
287.0
 21
12.5
 31
0.0
  0
LINE
  5
7E
330
1F
100
AcDbEntity
  8
0
100
AcDbLine
 10
297.0
 20
243.4999999999998
 30
0.0
 11
297.0
 21
12.5
 31
0.0
  0
LINE
  5
7F
330
1F
100
AcDbEntity
  8
0
100
AcDbLine
 10
317.0
 20
243.4999999999998
 30
0.0
 11
317.0
 21
12.5
 31
0.0
  0
MTEXT
  5
81
330
1F
100
AcDbEntity
  8
0
100
AcDbMText
 10
16.0
 20
245.5
 30
0.0
 40
2.5
 41
4.535099999999999
 71
     2
 72
     5
  1
{\f楷体_GB2312|b0|i0|c134|p49;层\P底\P深\P度}
 73
     2
 44
0.84
  0
MTEXT
  5
82
330
1F
100
AcDbEntity
  8
0
100
AcDbMText
 10
26.0
 20
245.5
 30
0.0
 40
2.5
 41
4.535099999999999
 71
     2
 72
     5
  1
{\f楷体_GB2312|b0|i0|c134|p49;层\P\P\P厚}
 73
     2
 44
0.84
  0
MTEXT
  5
88
330
1F
100
AcDbEntity
  8
0
100
AcDbMText
 10
36.0
 20
245.5
 30
0.0
 40
2.5
 41
5.0064
 71
     2
 72
     5
  1
{\f楷体_GB2312|b0|i0|c134|p49;层\P底\P标\P高}
 73
     2
 44
0.84
  0
MTEXT
  5
8B
330
1F
100
AcDbEntity
  8
0
100
AcDbMText
 10
51.0
 20
245.5
 30
0.0
 40
2.5
 41
16.9733
 71
     2
 72
     5
  1
{\f楷体_GB2312|b0|i0|c134|p49;柱状剖面\P\P比 例 尺}
 73
     2
 44
0.84
  0
LINE
  5
8D
330
1F
100
AcDbEntity
  8
0
100
AcDbLine
 10
49.0
 20
218.4999999999999
 30
0.0
 11
49.0
 21
12.5
 31
0.0
  0
LINE
  5
8E
330
1F
100
AcDbEntity
  8
0
100
AcDbLine
 10
53.0
 20
218.4999999999999
 30
0.0
 11
53.0
 21
12.5
 31
0.0
  0
LINE
  5
8F
330
1F
100
AcDbEntity
  8
0
100
AcDbLine
 10
41.0
 20
10.5
 30
0.0
 11
41.0
 21
3.5
 31
0.0
  0
LINE
  5
91
330
1F
100
AcDbEntity
  8
0
100
AcDbLine
 10
136.0
 20
10.5
 30
0.0
 11
136.0
 21
3.499999999999985
 31
0.0
  0
LINE
  5
92
330
1F
100
AcDbEntity
  8
0
100
AcDbLine
 10
149.0
 20
10.5
 30
0.0
 11
149.0
 21
3.499999999999985
 31
0.0
  0
LINE
  5
93
330
1F
100
AcDbEntity
  8
0
100
AcDbLine
 10
169.0
 20
10.5
 30
0.0
 11
169.0
 21
3.499999999999985
 31
0.0
  0
LINE
  5
94
330
1F
100
AcDbEntity
  8
0
100
AcDbLine
 10
182.0
 20
10.5
 30
0.0
 11
182.0
 21
3.499999999999985
 31
0.0
  0
LINE
  5
95
330
1F
100
AcDbEntity
  8
0
100
AcDbLine
 10
202.0
 20
10.5
 30
0.0
 11
202.0
 21
3.499999999999985
 31
0.0
  0
LINE
  5
96
330
1F
100
AcDbEntity
  8
0
100
AcDbLine
 10
215.0
 20
10.5
 30
0.0
 11
215.0
 21
3.499999999999985
 31
0.0
  0
LINE
  5
97
330
1F
100
AcDbEntity
  8
0
100
AcDbLine
 10
234.0
 20
10.5
 30
0.0
 11
234.0
 21
3.499999999999985
 31
0.0
  0
LINE
  5
98
330
1F
100
AcDbEntity
  8
0
100
AcDbLine
 10
247.0
 20
10.5
 30
0.0
 11
247.0
 21
3.499999999999985
 31
0.0
  0
LINE
  5
99
330
1F
100
AcDbEntity
  8
0
100
AcDbLine
 10
267.0
 20
10.5
 30
0.0
 11
267.0
 21
3.499999999999985
 31
0.0
  0
LINE
  5
9B
330
1F
100
AcDbEntity
  8
0
100
AcDbLine
 10
299.0
 20
10.5
 30
0.0
 11
299.0
 21
3.499999999999985
 31
0.0
  0
MTEXT
  5
A2
330
1F
100
AcDbEntity
  8
0
100
AcDbMText
 10
83.0
 20
237.0
 30
0.0
 40
2.5
 41
26.808
 71
     5
 72
     5
  1
{\f楷体_GB2312|b0|i0|c134|p49;岩 （土） 描 述}
 73
     1
 44
1.0
  0
MTEXT
  5
AA
330
1F
100
AcDbEntity
  8
0
100
AcDbMText
 10
113.6992270794688
 20
245.5
 30
0.0
 40
2.5
 41
8.9914
 71
     2
 72
     5
  1
{\f楷体_GB2312|b0|i0|c134|p49;取样\P\P编号}
 73
     2
 44
0.84
  0
LINE
  5
AD
330
1F
100
AcDbEntity
  8
0
100
AcDbLine
 10
107.0
 20
233.4999999999999
 30
0.0
 11
120.0
 21
233.4999999999999
 31
0.0
  0
MTEXT
  5
AE
330
1F
100
AcDbEntity
  8
0
100
AcDbMText
 10
113.6992270794688
 20
231.4999999999999
 30
0.0
 40
2.5
 41
8.9914
 71
     2
 72
     5
  1
{\f楷体_GB2312|b0|i0|c134|p49;孔深}
 73
     2
 44
0.84
  0
LWPOLYLINE
  5
B7
330
1F
100
AcDbEntity
  8
0
370
    30
100
AcDbPolyline
 90
        4
 70
     1
 43
0.0
 10
0.0
 20
2.0
 10
355.0
 20
2.0
 10
355.0
 20
280.0
 10
0.0
 20
280.0
  0
MTEXT
  5
C0
330
1F
100
AcDbEntity
  8
0
100
AcDbMText
 10
29.0
 20
272.0
 30
0.0
 40
2.5
 41
21.35476411118156
 71
     3
 72
     5
  1
{\f楷体_GB2312|b0|i0|c134|p49;工程名称:}
 73
     1
 44
1.0
  0
MTEXT
  5
C1
330
1F
100
AcDbEntity
  8
0
100
AcDbMText
 10
29.0
 20
262.0
 30
0.0
 40
2.5
 41
21.3548
 71
     3
 72
     5
  1
{\f楷体_GB2312|b0|i0|c134|p49;钻孔编号:}
 73
     1
 44
1.0
  0
MTEXT
  5
D4
330
1F
100
AcDbEntity
  8
0
100
AcDbMText
 10
151.0
 20
247.0
 30
0.0
 40
2.5
 41
58.0
 71
     5
 72
     5
  1
{\f楷体_GB2312|b0|i0|c134|p49;天然状态的基本物理性质指标}
 73
     1
 44
1.0
  0
MTEXT
  5
D5
330
1F
100
AcDbEntity
  8
0
100
AcDbMText
 10
126.9750666729207
 20
242.0
 30
0.0
 40
2.5
 41
8.9914
 71
     2
 72
     5
  1
{\f楷体_GB2312|b0|i0|c134|p49;含\P水\P量}
 73
     2
 44
0.84
  0
MTEXT
  5
D9
330
1F
100
AcDbEntity
  8
0
100
AcDbMText
 10
125.1913723401994
 20
228.2007359063444
 30
0.0
 40
2.5
 41
5.195299999999996
 71
     1
 72
     5
  1
{\f楷体_GB2312|b0|i0|c134|p49;ω}
 73
     1
 44
1.0
  0
MTEXT
  5
DA
330
1F
100
AcDbEntity
  8
0
100
AcDbMText
 10
128.2102620843338
 20
226.7265995798111
 30
0.0
 40
1.0
 41
2.878499999999998
 71
     1
 72
     5
  1
{\f宋体|b0|i0|c134|p2;w}
 73
     1
 44
1.0
  0
MTEXT
  5
DD
330
1F
100
AcDbEntity
  8
0
100
AcDbMText
 10
142.0
 20
240.0
 30
0.0
 40
2.5
 41
8.9914
 71
     5
 72
     5
  1
{\f楷体_GB2312|b0|i0|c134|p49;密 度}
 73
     2
 44
0.84
  0
MTEXT
  5
E0
330
1F
100
AcDbEntity
  8
0
100
AcDbMText
 10
134.8369580757549
 20
228.2007359063444
 30
0.0
 40
2.5
 41
5.195299999999996
 71
     1
 72
     5
  1
{\f楷体_GB2312|b0|i0|c134|p49;ρ}
 73
     1
 44
1.0
  0
MTEXT
  5
E1
330
1F
100
AcDbEntity
  8
0
100
AcDbMText
 10
137.8558478198893
 20
226.7265995798111
 30
0.0
 40
1.0
 41
2.878499999999998
 71
     1
 72
     5
  1
{\f宋体|b0|i0|c134|p2;w}
 73
     1
 44
1.0
  0
MTEXT
  5
E2
330
1F
100
AcDbEntity
  8
0
100
AcDbMText
 10
136.9750666729208
 20
234.7610577559828
 30
0.0
 40
2.5
 41
8.9914
 71
     2
 72
     5
  1
{\f楷体_GB2312|b0|i0|c134|p49;湿}
 73
     2
 44
0.84
  0
MTEXT
  5
E3
330
1F
100
AcDbEntity
  8
0
100
AcDbMText
 10
147.0061724404455
 20
234.7610577559828
 30
0.0
 40
2.5
 41
8.9914
 71
     2
 72
     5
  1
{\f楷体_GB2312|b0|i0|c134|p49;干}
 73
     2
 44
0.84
  0
MTEXT
  5
E4
330
1F
100
AcDbEntity
  8
0
100
AcDbMText
 10
144.8680638432793
 20
228.2007359063444
 30
0.0
 40
2.5
 41
5.195299999999996
 71
     1
 72
     5
  1
{\f楷体_GB2312|b0|i0|c134|p49;ρ}
 73
     1
 44
1.0
  0
MTEXT
  5
E5
330
1F
100
AcDbEntity
  8
0
100
AcDbMText
 10
147.8869535874141
 20
226.7265995798111
 30
0.0
 40
1.0
 41
2.878499999999998
 71
     1
 72
     5
  1
{\f宋体|b0|i0|c134|p54;d}
 73
     1
 44
1.0
  0
MTEXT
  5
E8
330
1F
100
AcDbEntity
  8
0
100
AcDbMText
 10
155.6816889809
 20
242.0
 30
0.0
 40
2.5
 41
8.9914
 71
     2
 72
     5
  1
{\f楷体_GB2312|b0|i0|c134|p49;土\P粒\P比\P重\PGs}
 73
     2
 44
0.84
  0
MTEXT
  5
E9
330
1F
100
AcDbEntity
  8
0
100
AcDbMText
 10
162.5930194560164
 20
242.0
 30
0.0
 40
2.5
 41
8.9914
 71
     2
 72
     5
  1
{\f楷体_GB2312|b0|i0|c134|p49;孔\P隙\P比\P\Pe}
 73
     2
 44
0.84
  0
MTEXT
  5
EB
330
1F
100
AcDbEntity
  8
0
100
AcDbMText
 10
169.5
 20
242.0
 30
0.0
 40
2.5
 41
8.9914
 71
     2
 72
     5
  1
{\f楷体_GB2312|b0|i0|c134|p49;孔\P隙\P度\P\Pn}
 73
     2
 44
0.84
  0
MTEXT
  5
EC
330
1F
100
AcDbEntity
  8
0
100
AcDbMText
 10
176.4889126759104
 20
242.0
 30
0.0
 40
2.5
 41
8.9914
 71
     2
 72
     5
  1
{\f楷体_GB2312|b0|i0|c134|p49;饱\P和\P度\P\PSr}
 73
     2
 44
0.84
  0
MTEXT
  5
105
330
1F
100
AcDbEntity
  8
0
100
AcDbMText
 10
183.1529043415473
 20
228.2007359063444
 30
0.0
 40
2.5
 41
5.195299999999996
 71
     1
 72
     5
  1
{\f楷体_GB2312|b0|i0|c134|p49;ω}
 73
     1
 44
1.0
  0
MTEXT
  5
106
330
1F
100
AcDbEntity
  8
0
100
AcDbMText
 10
184.9365986742686
 20
245.4713700636494
 30
0.0
 40
2.5
 41
8.9914
 71
     2
 72
     5
  1
{\f楷体_GB2312|b0|i0|c134|p49;液\P\P\P限}
 73
     2
 44
0.84
  0
MTEXT
  5
107
330
1F
100
AcDbEntity
  8
0
100
AcDbMText
 10
186.1717940856816
 20
226.7265995798111
 30
0.0
 40
1.0
 41
2.878499999999998
 71
     1
 72
     5
  1
{\f宋体|b0|i0|c134|p2;L}
 73
     1
 44
1.0
  0
MTEXT
  5
10B
330
1F
100
AcDbEntity
  8
0
100
AcDbMText
 10
195.0163749465208
 20
245.4713700636494
 30
0.0
 40
2.5
 41
8.9914
 71
     2
 72
     5
  1
{\f楷体_GB2312|b0|i0|c134|p49;塑\P\P\P限}
 73
     2
 44
0.84
  0
MTEXT
  5
10C
330
1F
100
AcDbEntity
  8
0
100
AcDbMText
 10
193.2326806137994
 20
228.2007359063444
 30
0.0
 40
2.5
 41
5.195299999999996
 71
     1
 72
     5
  1
{\f楷体_GB2312|b0|i0|c134|p49;ω}
 73
     1
 44
1.0
  0
MTEXT
  5
10D
330
1F
100
AcDbEntity
  8
0
100
AcDbMText
 10
196.2515703579338
 20
226.7265995798111
 30
0.0
 40
1.0
 41
2.878499999999998
 71
     1
 72
     5
  1
{\f宋体|b0|i0|c134|p2;P}
 73
     1
 44
1.0
  0
MTEXT
  5
110
330
1F
100
AcDbEntity
  8
0
100
AcDbMText
 10
203.5444515603345
 20
245.4713700636494
 30
0.0
 40
2.5
 41
8.9914
 71
     2
 72
     5
  1
{\f楷体_GB2312|b0|i0|c134|p49;塑\P性\P指\P数}
 73
     2
 44
0.84
  0
MTEXT
  5
111
330
1F
100
AcDbEntity
  8
0
100
AcDbMText
 10
202.777016720061
 20
228.2007359063444
 30
0.0
 40
2.5
 41
4.179040507551825
 71
     1
 72
     5
  1
{\f楷体_GB2312|b0|i0|c134|p49;I}
 73
     1
 44
1.0
  0
MTEXT
  5
112
330
1F
100
AcDbEntity
  8
0
100
AcDbMText
 10
204.1853468163735
 20
226.7265995798111
 30
0.0
 40
1.0
 41
3.472800155373957
 71
     1
 72
     5
  1
{\f宋体|b0|i0|c134|p2;P}
 73
     1
 44
1.0
  0
MTEXT
  5
116
330
1F
100
AcDbEntity
  8
0
100
AcDbMText
 10
212.1579563637141
 20
245.4713700636494
 30
0.0
 40
2.5
 41
8.9914
 71
     2
 72
     5
  1
{\f楷体_GB2312|b0|i0|c134|p49;液\P性\P指\P数}
 73
     2
 44
0.84
  0
MTEXT
  5
117
330
1F
100
AcDbEntity
  8
0
100
AcDbMText
 10
212.7988516197531
 20
226.7265995798111
 30
0.0
 40
1.0
 41
3.472799999999998
 71
     1
 72
     5
  1
{\f宋体|b0|i0|c134|p2;L}
 73
     1
 44
1.0
  0
MTEXT
  5
118
330
1F
100
AcDbEntity
  8
0
100
AcDbMText
 10
211.3905215234407
 20
228.2007359063444
 30
0.0
 40
2.5
 41
4.179040507551825
 71
     1
 72
     5
  1
{\f楷体_GB2312|b0|i0|c134|p49;I}
 73
     1
 44
1.0
  0
MTEXT
  5
129
330
1F
100
AcDbEntity
  8
0
100
AcDbMText
 10
21.0
 20
221.4999999999999
 30
0.0
 40
2.299999999999998
 41
4.535099999999999
 71
     2
 72
     5
  1
{\fMS UI Gothic|b0|i0|c128|p17;m}
 73
     2
 44
0.84
  0
MTEXT
  5
12C
330
1F
100
AcDbEntity
  8
0
100
AcDbMText
 10
110.641509230049
 20
221.6240312122963
 30
0.0
 40
2.299999999999998
 41
4.623999999999997
 71
     2
 72
     5
  1
{\f宋体|b0|i0|c134|p2;m}
 73
     2
 44
0.84
  0
MTEXT
  5
12E
330
1F
100
AcDbEntity
  8
0
100
AcDbMText
 10
127.0812084139657
 20
221.4999999999999
 30
0.0
 40
2.299999999999998
 41
9.0853
 71
     2
 72
     5
  1
{\f宋体|b0|i0|c134|p54;%}
 73
     2
 44
0.84
  0
LINE
  5
12F
330
1F
100
AcDbEntity
  8
0
100
AcDbLine
 10
142.0
 20
218.4999999999999
 30
0.0
 11
142.0
 21
12.5
 31
0.0
  0
MTEXT
  5
136
330
1F
100
AcDbEntity
  8
0
100
AcDbMText
 10
142.0
 20
221.4999999999999
 30
0.0
 40
2.299999999999998
 41
9.0853
 71
     2
 72
     5
  1
{\f宋体|b0|i0|c134|p54;g/cm}
 73
     2
 44
0.84
  0
MTEXT
  5
137
330
1F
100
AcDbEntity
  8
0
100
AcDbMText
 10
145.0575648753648
 20
222.1995226131908
 30
0.0
 40
1.0
 41
2.878499999999998
 71
     1
 72
     5
  1
{\f宋体|b0|i0|c134|p54;3}
 73
     1
 44
1.0
  0
MTEXT
  5
138
330
1F
100
AcDbEntity
  8
0
100
AcDbMText
 10
169.5
 20
221.4999999999999
 30
0.0
 40
2.299999999999998
 41
9.0853
 71
     2
 72
     5
  1
{\f宋体|b0|i0|c134|p54;%}
 73
     2
 44
0.84
  0
MTEXT
  5
13B
330
1F
100
AcDbEntity
  8
0
100
AcDbMText
 10
176.5
 20
221.4999999999999
 30
0.0
 40
2.299999999999998
 41
9.0853
 71
     2
 72
     5
  1
{\f宋体|b0|i0|c134|p54;%}
 73
     2
 44
0.84
  0
MTEXT
  5
13C
330
1F
100
AcDbEntity
  8
0
100
AcDbMText
 10
185.0
 20
221.4999999999999
 30
0.0
 40
2.299999999999998
 41
9.0853
 71
     2
 72
     5
  1
{\f宋体|b0|i0|c134|p54;%}
 73
     2
 44
0.84
  0
MTEXT
  5
13D
330
1F
100
AcDbEntity
  8
0
100
AcDbMText
 10
195.0
 20
221.4999999999999
 30
0.0
 40
2.299999999999998
 41
9.0853
 71
     2
 72
     5
  1
{\f宋体|b0|i0|c134|p54;%}
 73
     2
 44
0.84
  0
MTEXT
  5
13F
330
1F
100
AcDbEntity
  8
0
100
AcDbMText
 10
222.0
 20
221.4999999999999
 30
0.0
 40
2.299999999999998
 41
9.0853
 71
     2
 72
     5
  1
{\f宋体|b0|i0|c134|p54;MPa}
 73
     2
 44
0.84
  0
MTEXT
  5
140
330
1F
100
AcDbEntity
  8
0
100
AcDbMText
 10
223.720614863113
 20
222.1995226131908
 30
0.0
 40
1.0
 41
2.878499999999998
 71
     1
 72
     5
  1
{\f宋体|b0|i0|c134|p54;-1}
 73
     1
 44
1.0
  0
MTEXT
  5
14A
330
1F
100
AcDbEntity
  8
0
100
AcDbMText
 10
232.0
 20
221.4999999999999
 30
0.0
 40
2.299999999999998
 41
9.0853
 71
     2
 72
     5
  1
{\f宋体|b0|i0|c134|p54;MPa}
 73
     2
 44
0.84
  0
MTEXT
  5
14C
330
1F
100
AcDbEntity
  8
0
100
AcDbMText
 10
242.0
 20
221.4999999999999
 30
0.0
 40
2.299999999999998
 41
9.0853
 71
     2
 72
     5
  1
{\f宋体|b0|i0|c134|p2;kPa}
 73
     2
 44
0.84
  0
MTEXT
  5
14D
330
1F
100
AcDbEntity
  8
0
100
AcDbMText
 10
252.0
 20
221.4999999999999
 30
0.0
 40
2.5
 41
9.0853
 71
     2
 72
     5
  1
{\f楷体_GB2312|b0|i0|c134|p49;度}
 73
     2
 44
0.84
  0
MTEXT
  5
14F
330
1F
100
AcDbEntity
  8
0
100
AcDbMText
 10
282.0
 20
221.4999999999999
 30
0.0
 40
2.299999999999998
 41
9.0853
 71
     2
 72
     5
  1
{\f宋体|b0|i0|c134|p54;%}
 73
     2
 44
0.84
  0
MTEXT
  5
150
330
1F
100
AcDbEntity
  8
0
100
AcDbMText
 10
292.0
 20
221.4999999999999
 30
0.0
 40
2.299999999999998
 41
9.0853
 71
     2
 72
     5
  1
{\f宋体|b0|i0|c134|p54;%}
 73
     2
 44
0.84
  0
MTEXT
  5
151
330
1F
100
AcDbEntity
  8
0
100
AcDbMText
 10
302.0
 20
221.4999999999999
 30
0.0
 40
2.299999999999998
 41
9.0853
 71
     2
 72
     5
  1
{\f宋体|b0|i0|c134|p54;%}
 73
     2
 44
0.84
  0
MTEXT
  5
152
330
1F
100
AcDbEntity
  8
0
100
AcDbMText
 10
312.0
 20
221.4999999999999
 30
0.0
 40
2.299999999999998
 41
9.0853
 71
     2
 72
     5
  1
{\f宋体|b0|i0|c134|p54;%}
 73
     2
 44
0.84
  0
MTEXT
  5
153
330
1F
100
AcDbEntity
  8
0
100
AcDbMText
 10
322.0
 20
221.4999999999999
 30
0.0
 40
2.299999999999998
 41
9.0853
 71
     2
 72
     5
  1
{\f宋体|b0|i0|c134|p54;%}
 73
     2
 44
0.84
  0
MTEXT
  5
154
330
1F
100
AcDbEntity
  8
0
100
AcDbMText
 10
332.0
 20
221.4999999999999
 30
0.0
 40
2.299999999999998
 41
9.0853
 71
     2
 72
     5
  1
{\f宋体|b0|i0|c134|p54;%}
 73
     2
 44
0.84
  0
MTEXT
  5
157
330
1F
100
AcDbEntity
  8
0
100
AcDbMText
 10
345.5
 20
221.4999999999999
 30
0.0
 40
2.5
 41
9.0853
 71
     2
 72
     5
  1
{\f楷体_GB2312|b0|i0|c134|p49;击/m}
 73
     2
 44
0.84
  0
MTEXT
  5
159
330
1F
100
AcDbEntity
  8
0
100
AcDbMText
 10
222.1579563637141
 20
245.4713700636494
 30
0.0
 40
2.5
 41
8.9914
 71
     2
 72
     5
  1
{\f楷体_GB2312|b0|i0|c134|p49;压\P缩\P系\P数}
 73
     2
 44
0.84
  0
MTEXT
  5
15A
330
1F
100
AcDbEntity
  8
0
100
AcDbMText
 10
218.4575549643092
 20
228.2007359063444
 30
0.0
 40
2.5
 41
4.178999999999998
 71
     1
 72
     5
  1
{\f楷体_GB2312|b0|i0|c134|p49;а}
 73
     1
 44
1.0
  0
MTEXT
  5
15B
330
1F
100
AcDbEntity
  8
0
100
AcDbMText
 10
221.1661877219252
 20
226.7265995798111
 30
0.0
 40
1.0
 41
3.472799999999998
 71
     1
 72
     5
  1
{\f宋体|b0|i0|c134|p2;1 ~ 2}
 73
     1
 44
1.0
  0
MTEXT
  5
15E
330
1F
100
AcDbEntity
  8
0
100
AcDbMText
 10
232.1579563637141
 20
245.4713700636494
 30
0.0
 40
2.5
 41
8.9914
 71
     2
 72
     5
  1
{\f楷体_GB2312|b0|i0|c134|p49;压\P缩\P模\P量}
 73
     2
 44
0.84
  0
MTEXT
  5
15F
330
1F
100
AcDbEntity
  8
0
100
AcDbMText
 10
230.463733483072
 20
228.2007359063444
 30
0.0
 40
2.5
 41
4.178999999999998
 71
     1
 72
     5
  1
{\f楷体_GB2312|b0|i0|c134|p49;E}
 73
     1
 44
1.0
  0
MTEXT
  5
160
330
1F
100
AcDbEntity
  8
0
100
AcDbMText
 10
232.3440725615661
 20
226.7265995798111
 30
0.0
 40
1.0
 41
3.472799999999998
 71
     1
 72
     5
  1
{\f宋体|b0|i0|c134|p2;s}
 73
     1
 44
1.0
  0
MTEXT
  5
164
330
1F
100
AcDbEntity
  8
0
100
AcDbMText
 10
241.0
 20
228.2007359063444
 30
0.0
 40
2.5
 41
4.178999999999998
 71
     1
 72
     5
  1
{\f楷体_GB2312|b0|i0|c134|p49;c}
 73
     1
 44
1.0
  0
MTEXT
  5
165
330
1F
100
AcDbEntity
  8
0
100
AcDbMText
 10
251.5742581175398
 20
228.2007359063444
 30
0.0
 40
2.5
 41
4.178999999999998
 71
     2
 72
     5
  1
{\f楷体_GB2312|b0|i0|c134|p49;ф}
 73
     1
 44
1.0
  0
MTEXT
  5
169
330
1F
100
AcDbEntity
  8
0
100
AcDbMText
 10
242.0
 20
242.0
 30
0.0
 40
2.5
 41
8.9914
 71
     2
 72
     5
  1
{\f楷体_GB2312|b0|i0|c134|p49;凝\P聚\P力 }
 73
     2
 44
0.84
  0
MTEXT
  5
16A
330
1F
100
AcDbEntity
  8
0
100
AcDbMText
 10
252.0
 20
242.0
 30
0.0
 40
2.5
 41
8.9914
 71
     2
 72
     5
  1
{\f楷体_GB2312|b0|i0|c134|p49;摩\P擦\P角}
 73
     2
 44
0.84
  0
MTEXT
  5
16E
330
1F
100
AcDbEntity
  8
0
100
AcDbMText
 10
247.0
 20
247.0
 30
0.0
 40
2.5
 41
15.1458
 71
     5
 72
     5
  1
{\f楷体_GB2312|b0|i0|c134|p49;直 快}
 73
     1
 44
1.0
  0
MTEXT
  5
178
330
1F
100
AcDbEntity
  8
0
100
AcDbMText
 10
116.442145155105
 20
221.6240312122963
 30
0.0
 40
2.299999999999998
 41
4.623999999999997
 71
     2
 72
     5
  1
{\f宋体|b0|i0|c134|p2;m}
 73
     2
 44
0.84
  0
MTEXT
  5
179
330
1F
100
AcDbEntity
  8
0
100
AcDbMText
 10
113.4612634383308
 20
220.0511895097338
 30
0.0
 40
2.299999999999998
 41
2.950669974002598
 71
     2
 72
     5
  1
{\f宋体|b0|i0|c134|p54;~}
 73
     2
 44
0.84
  0
MTEXT
  5
17B
330
1F
100
AcDbEntity
  8
0
100
AcDbMText
 10
292.0
 20
247.0
 30
0.0
 40
2.5
 41
15.1458
 71
     5
 72
     5
  1
{\f楷体_GB2312|b0|i0|c134|p49;砂  粒}
 73
     1
 44
1.0
  0
MTEXT
  5
17C
330
1F
100
AcDbEntity
  8
0
100
AcDbMText
 10
317.0
 20
247.0
 30
0.0
 40
2.5
 41
15.1458
 71
     5
 72
     5
  1
{\f楷体_GB2312|b0|i0|c134|p49;粉  粒}
 73
     1
 44
1.0
  0
MTEXT
  5
17E
330
1F
100
AcDbEntity
  8
0
100
AcDbMText
 10
282.0
 20
240.0
 30
0.0
 40
2.5
 41
8.9914
 71
     5
 72
     5
  1
{\f楷体_GB2312|b0|i0|c134|p49;粗}
 73
     2
 44
0.84
  0
MTEXT
  5
17F
330
1F
100
AcDbEntity
  8
0
100
AcDbMText
 10
292.0
 20
240.0
 30
0.0
 40
2.5
 41
8.9914
 71
     5
 72
     5
  1
{\f楷体_GB2312|b0|i0|c134|p49;中}
 73
     2
 44
0.84
  0
MTEXT
  5
181
330
1F
100
AcDbEntity
  8
0
100
AcDbMText
 10
302.0
 20
240.0
 30
0.0
 40
2.5
 41
8.9914
 71
     5
 72
     5
  1
{\f楷体_GB2312|b0|i0|c134|p49;细}
 73
     2
 44
0.84
  0
MTEXT
  5
183
330
1F
100
AcDbEntity
  8
0
100
AcDbMText
 10
312.0
 20
240.0
 30
0.0
 40
2.5
 41
8.9914
 71
     5
 72
     5
  1
{\f楷体_GB2312|b0|i0|c134|p49;粗}
 73
     2
 44
0.84
  0
MTEXT
  5
185
330
1F
100
AcDbEntity
  8
0
100
AcDbMText
 10
322.0
 20
240.0
 30
0.0
 40
2.5
 41
8.9914
 71
     5
 72
     5
  1
{\f楷体_GB2312|b0|i0|c134|p49;细}
 73
     2
 44
0.84
  0
MTEXT
  5
187
330
1F
100
AcDbEntity
  8
0
100
AcDbMText
 10
332.0
 20
249.268018018018
 30
0.0
 40
2.5
 41
7.631657581722826
 71
     2
 72
     5
  1
{\f楷体_GB2312|b0|i0|c134|p49;粘\P  \P粒}
 73
     1
 44
1.0
  0
MTEXT
  5
18A
330
1F
100
AcDbEntity
  8
0
100
AcDbMText
 10
345.8538179031501
 20
231.4999999999999
 30
0.0
 40
2.5
 41
8.9914
 71
     2
 72
     5
  1
{\f楷体_GB2312|b0|i0|c134|p49;孔 深}
 73
     2
 44
0.84
  0
LINE
  5
18B
330
1F
100
AcDbEntity
  8
0
100
AcDbLine
 10
339.1545908236811
 20
233.4999999999999
 30
0.0
 11
352.1545908236811
 21
233.4999999999999
 31
0.0
  0
MTEXT
  5
18C
330
1F
100
AcDbEntity
  8
0
100
AcDbMText
 10
345.8538179031501
 20
245.5
 30
0.0
 40
2.5
 41
11.855
 71
     2
 72
     5
  1
{\f楷体_GB2312|b0|i0|c134|p49;原 位\P测 试\P击 数}
 73
     2
 44
0.84
  0
MTEXT
  5
192
330
1F
100
AcDbEntity
  8
0
100
AcDbMText
 10
280.0
 20
234.2687506338287
 30
0.0
 40
2.0
 41
6.257029905333848
 71
     1
 72
     5
  1
{\f宋体|b0|i0|c134|p54;2.0}
 73
     2
 44
0.84
  0
MTEXT
  5
193
330
1F
100
AcDbEntity
  8
0
100
AcDbMText
 10
280.0
 20
229.6009752732709
 30
0.0
 40
2.299999999999998
 41
4.28225440691072
 71
     1
 72
     5
  1
{\f宋体|b0|i0|c134|p54;~}
 73
     2
 44
0.84
  0
MTEXT
  5
194
330
1F
100
AcDbEntity
  8
0
100
AcDbMText
 10
280.0
 20
227.6865712880963
 30
0.0
 40
2.0
 41
5.891233648965775
 71
     1
 72
     5
  1
{\f宋体|b0|i0|c134|p54;0.5}
 73
     2
 44
0.8399999999999996
  0
MTEXT
  5
199
330
1F
100
AcDbEntity
  8
0
100
AcDbMText
 10
290.0
 20
229.6009752732709
 30
0.0
 40
2.299999999999998
 41
4.28225440691072
 71
     1
 72
     5
  1
{\f宋体|b0|i0|c134|p54;~}
 73
     2
 44
0.84
  0
MTEXT
  5
19A
330
1F
100
AcDbEntity
  8
0
100
AcDbMText
 10
290.0
 20
227.6865712880963
 30
0.0
 40
2.0
 41
5.8912
 71
     1
 72
     5
  1
{\f宋体|b0|i0|c134|p54;0.25}
 73
     2
 44
0.8399999999999996
  0
MTEXT
  5
19B
330
1F
100
AcDbEntity
  8
0
100
AcDbMText
 10
290.0
 20
234.2687506338287
 30
0.0
 40
2.0
 41
6.257
 71
     1
 72
     5
  1
{\f宋体|b0|i0|c134|p54;0.5}
 73
     2
 44
0.8399999999999996
  0
MTEXT
  5
19F
330
1F
100
AcDbEntity
  8
0
100
AcDbMText
 10
300.0
 20
227.6865712880963
 30
0.0
 40
2.0
 41
5.8912
 71
     1
 72
     5
  1
{\f宋体|b0|i0|c134|p54;0.75}
 73
     2
 44
0.8399999999999996
  0
MTEXT
  5
1A0
330
1F
100
AcDbEntity
  8
0
100
AcDbMText
 10
300.0
 20
229.6009752732709
 30
0.0
 40
2.299999999999998
 41
4.28225440691072
 71
     1
 72
     5
  1
{\f宋体|b0|i0|c134|p54;~}
 73
     2
 44
0.84
  0
MTEXT
  5
1A1
330
1F
100
AcDbEntity
  8
0
100
AcDbMText
 10
300.0
 20
234.2687506338287
 30
0.0
 40
2.0
 41
6.257
 71
     1
 72
     5
  1
{\f宋体|b0|i0|c134|p54;0.25}
 73
     2
 44
0.8399999999999996
  0
MTEXT
  5
1A3
330
1F
100
AcDbEntity
  8
0
100
AcDbMText
 10
310.0
 20
227.6865712880963
 30
0.0
 40
2.0
 41
5.8912
 71
     1
 72
     5
  1
{\f宋体|b0|i0|c134|p54;0.05}
 73
     2
 44
0.8399999999999996
  0
MTEXT
  5
1A4
330
1F
100
AcDbEntity
  8
0
100
AcDbMText
 10
310.0
 20
229.6009752732709
 30
0.0
 40
2.299999999999998
 41
4.28225440691072
 71
     1
 72
     5
  1
{\f宋体|b0|i0|c134|p54;~}
 73
     2
 44
0.84
  0
MTEXT
  5
1A5
330
1F
100
AcDbEntity
  8
0
100
AcDbMText
 10
310.0
 20
234.2687506338287
 30
0.0
 40
2.0
 41
6.257
 71
     1
 72
     5
  1
{\f宋体|b0|i0|c134|p54;.075}
 73
     2
 44
0.8399999999999996
  0
MTEXT
  5
1A6
330
1F
100
AcDbEntity
  8
0
100
AcDbMText
 10
320.0
 20
234.2687506338287
 30
0.0
 40
2.0
 41
6.257
 71
     1
 72
     5
  1
{\f宋体|b0|i0|c134|p54;0.05}
 73
     2
 44
0.8399999999999996
  0
MTEXT
  5
1A7
330
1F
100
AcDbEntity
  8
0
100
AcDbMText
 10
320.0
 20
227.6865712880963
 30
0.0
 40
2.0
 41
5.8912
 71
     1
 72
     5
  1
{\f宋体|b0|i0|c134|p54;.005}
 73
     2
 44
0.8399999999999996
  0
MTEXT
  5
1A8
330
1F
100
AcDbEntity
  8
0
100
AcDbMText
 10
320.0
 20
229.6009752732709
 30
0.0
 40
2.299999999999998
 41
4.28225440691072
 71
     1
 72
     5
  1
{\f宋体|b0|i0|c134|p54;~}
 73
     2
 44
0.84
  0
MTEXT
  5
1B3
330
1F
100
AcDbEntity
  8
0
100
AcDbMText
 10
330.0
 20
227.6865712880963
 30
0.0
 40
2.0
 41
5.8912
 71
     1
 72
     5
  1
{\f宋体|b0|i0|c134|p54;.005}
 73
     2
 44
0.8399999999999996
  0
MTEXT
  5
1B4
330
1F
100
AcDbEntity
  8
0
100
AcDbMText
 10
331.8980959473651
 20
230.982787309664
 30
0.0
 40
2.299999999999998
 41
3.260201992848103
 71
     1
 72
     5
  1
{\f宋体|b0|i0|c134|p54;<}
 73
     2
 44
0.84
  0
MTEXT
  5
1B6
330
1F
100
AcDbEntity
  8
0
100
AcDbMText
 10
130.0
 20
272.0
 30
0.0
 40
2.5
 41
21.3548
 71
     3
 72
     5
  1
{\f楷体_GB2312|b0|i0|c134|p49;钻孔位置:}
 73
     1
 44
1.0
  0
MTEXT
  5
1B7
330
1F
100
AcDbEntity
  8
0
100
AcDbMText
 10
130.0
 20
262.0
 30
0.0
 40
2.5
 41
21.3548
 71
     3
 72
     5
  1
{\f楷体_GB2312|b0|i0|c134|p49;孔口标高:}
 73
     1
 44
1.0
  0
MTEXT
  5
1B8
330
1F
100
AcDbEntity
  8
0
100
AcDbMText
 10
227.2214139132119
 20
272.0
 30
0.0
 40
2.5
 41
37.91836286217675
 71
     3
 72
     5
  1
{\f楷体_GB2312|b0|i0|c134|p49;初见水位（埋深/标高）:}
 73
     1
 44
1.0
  0
MTEXT
  5
1B9
330
1F
100
AcDbEntity
  8
0
100
AcDbMText
 10
227.2214139132119
 20
262.0
 30
0.0
 40
2.5
 41
36.5358
 71
     3
 72
     5
  1
{\f楷体_GB2312|b0|i0|c134|p49;稳定水位（埋深/标高）:}
 73
     1
 44
1.0
  0
MTEXT
  5
1BA
330
1F
100
AcDbEntity
  8
0
100
AcDbMText
 10
301.3233185797711
 20
272.0
 30
0.0
 40
2.5
 41
21.3548
 71
     3
 72
     5
  1
{\f楷体_GB2312|b0|i0|c134|p49;开工日期:}
 73
     1
 44
1.0
  0
MTEXT
  5
1BB
330
1F
100
AcDbEntity
  8
0
100
AcDbMText
 10
301.3233185797711
 20
262.0
 30
0.0
 40
2.5
 41
21.3548
 71
     3
 72
     5
  1
{\f楷体_GB2312|b0|i0|c134|p49;完工日期:}
 73
     1
 44
1.0
  0
MTEXT
  5
1CB
330
1F
100
AcDbEntity
  8
0
100
AcDbMText
 10
142.0
 20
6.791752914739447
 30
0.0
 40
2.5
 41
8.9914
 71
     5
 72
     5
  1
{\f楷体_GB2312|b0|i0|c134|p49;编制}
 73
     2
 44
0.84
  0
MTEXT
  5
1CD
330
1F
100
AcDbEntity
  8
0
100
AcDbMText
 10
175.3555524403995
 20
6.791752914739447
 30
0.0
 40
2.5
 41
8.9914
 71
     5
 72
     5
  1
{\f楷体_GB2312|b0|i0|c134|p49;复核}
 73
     2
 44
0.84
  0
MTEXT
  5
1CF
330
1F
100
AcDbEntity
  8
0
100
AcDbMText
 10
208.4841965119039
 20
6.791752914739447
 30
0.0
 40
2.5
 41
8.9914
 71
     5
 72
     5
  1
{\f楷体_GB2312|b0|i0|c134|p49;审核}
 73
     2
 44
0.84
  0
MTEXT
  5
1D1
330
1F
100
AcDbEntity
  8
0
100
AcDbMText
 10
240.4782977292604
 20
6.791752914739447
 30
0.0
 40
2.5
 41
11.46540388494807
 71
     5
 72
     5
  1
{\f楷体_GB2312|b0|i0|c134|p49;图表号}
 73
     2
 44
0.84
  0
MTEXT
  5
1D3
330
1F
100
AcDbEntity
  8
0
100
AcDbMText
 10
282.3657016993531
 20
6.791752914739447
 30
0.0
 40
2.5
 41
27.6249
 71
     5
 72
     5
  1
{\f楷体_GB2312|b0|i0|c134|p49;第   张 共   张}
 73
     2
 44
0.84
  0
MTEXT
  5
1DA
330
1F
100
AcDbEntity
  8
0
100
AcDbMText
 10
133.6734375883741
 20
6.791752914739447
 30
0.0
 40
2.5
 41
15.65876409401953
 71
     6
 72
     5
  1
{\f楷体_GB2312|b0|i0|c134|p49;孔柱状图}
 73
     2
 44
0.84
  0
LINE
  5
2BF
330
1F
100
AcDbEntity
  8
0
100
AcDbLine
 10
257.0
 20
243.5
 30
0.0
 11
277.0
 21
243.4999999999999
 31
0.0
  0
LINE
  5
2C0
330
1F
100
AcDbEntity
  8
0
100
AcDbLine
 10
267.0
 20
243.5
 30
0.0
 11
267.0
 21
12.5
 31
0.0
  0
MTEXT
  5
2C1
330
1F
100
AcDbEntity
  8
0
100
AcDbMText
 10
267.0
 20
247.0
 30
0.0
 40
2.5
 41
15.1458
 71
     5
 72
     5
  1
{\f楷体_GB2312|b0|i0|c134|p49;固 快}
 73
     1
 44
1.0
  0
MTEXT
  5
2C2
330
1F
100
AcDbEntity
  8
0
100
AcDbMText
 10
262.0
 20
242.0
 30
0.0
 40
2.5
 41
8.9914
 71
     2
 72
     5
  1
{\f楷体_GB2312|b0|i0|c134|p49;凝\P聚\P力 }
 73
     2
 44
0.84
  0
MTEXT
  5
2C3
330
1F
100
AcDbEntity
  8
0
100
AcDbMText
 10
272.0
 20
242.0
 30
0.0
 40
2.5
 41
8.9914
 71
     2
 72
     5
  1
{\f楷体_GB2312|b0|i0|c134|p49;摩\P擦\P角}
 73
     2
 44
0.84
  0
MTEXT
  5
2C4
330
1F
100
AcDbEntity
  8
0
100
AcDbMText
 10
261.0
 20
228.2007359063444
 30
0.0
 40
2.5
 41
4.178999999999998
 71
     1
 72
     5
  1
{\f楷体_GB2312|b0|i0|c134|p49;c}
 73
     1
 44
1.0
  0
MTEXT
  5
2C5
330
1F
100
AcDbEntity
  8
0
100
AcDbMText
 10
271.5742581175396
 20
228.2007359063444
 30
0.0
 40
2.5
 41
4.178999999999998
 71
     2
 72
     5
  1
{\f楷体_GB2312|b0|i0|c134|p49;ф}
 73
     1
 44
1.0
  0
MTEXT
  5
2C6
330
1F
100
AcDbEntity
  8
0
100
AcDbMText
 10
262.0
 20
221.4999999999999
 30
0.0
 40
2.299999999999998
 41
9.0853
 71
     2
 72
     5
  1
{\f宋体|b0|i0|c134|p2;kPa}
 73
     2
 44
0.84
  0
MTEXT
  5
2C7
330
1F
100
AcDbEntity
  8
0
100
AcDbMText
 10
272.0
 20
221.4999999999999
 30
0.0
 40
2.5
 41
9.0853
 71
     2
 72
     5
  1
{\f楷体_GB2312|b0|i0|c134|p49;度}
 73
     2
 44
0.84
  0
VIEWPORT
  5
BD
330
1B
100
AcDbEntity
 67
     1
  8
0
100
AcDbViewport
 10
205.8515411684853
 20
146.1001315039658
 30
0.0
 40
465.2938545312683
 41
429.0872135329744
 68
     1
 69
     1
 12
205.8515411684853
 22
146.1001315039658
 13
0.0
 23
0.0
 14
10.0
 24
10.0
 15
10.0
 25
10.0
 16
0.0
 26
0.0
 36
1.0
 17
0.0
 27
0.0
 37
0.0
 42
50.0
 43
0.0
 44
0.0
 45
429.0872135329744
 50
0.0
 51
0.0
 72
   100
 90
    32800
  1

281
     0
 71
     1
 74
     0
110
0.0
120
0.0
130
0.0
111
1.0
121
0.0
131
0.0
112
0.0
122
1.0
132
0.0
 79
     0
146
0.0
  0
VIEWPORT
  5
BF
330
1B
100
AcDbEntity
 67
     1
  8
0
100
AcDbViewport
 10
208.844847943489
 20
140.5306424950532
 30
0.0
 40
435.4886391530653
 41
334.5376997711646
 68
     2
 69
     2
 12
170.5892647105851
 22
123.3326997484009
 13
0.0
 23
0.0
 14
10.0
 24
10.0
 15
10.0
 25
10.0
 16
0.0
 26
0.0
 36
1.0
 17
0.0
 27
0.0
 37
0.0
 42
50.0
 43
0.0
 44
0.0
 45
334.5377011337498
 50
0.0
 51
0.0
 72
   100
 90
    32864
  1

281
     0
 71
     1
 74
     0
110
0.0
120
0.0
130
0.0
111
1.0
121
0.0
131
0.0
112
0.0
122
1.0
132
0.0
 79
     0
146
0.0
  0
ENDSEC
  0
SECTION
  2
OBJECTS
  0
DICTIONARY
  5
C
330
0
100
AcDbDictionary
281
     1
  3
ACAD_GROUP
350
D
  3
ACAD_LAYOUT
350
1A
  3
ACAD_MLINESTYLE
350
17
  3
ACAD_PLOTSETTINGS
350
19
  3
ACAD_PLOTSTYLENAME
350
E
  3
ACDBHEADERROUNDTRIPXREC
350
237
  3
AcDbVariableDictionary
350
2C
  0
DICTIONARY
  5
D
102
{ACAD_REACTORS
330
C
102
}
330
C
100
AcDbDictionary
281
     1
  0
DICTIONARY
  5
1A
102
{ACAD_REACTORS
330
C
102
}
330
C
100
AcDbDictionary
281
     1
  3
Model
350
22
  3
布局1
350
1E
  3
布局2
350
26
  0
DICTIONARY
  5
17
102
{ACAD_REACTORS
330
C
102
}
330
C
100
AcDbDictionary
281
     1
  3
Standard
350
18
  0
DICTIONARY
  5
19
102
{ACAD_REACTORS
330
C
102
}
330
C
100
AcDbDictionary
281
     1
  0
ACDBDICTIONARYWDFLT
  5
E
102
{ACAD_REACTORS
330
C
102
}
330
C
100
AcDbDictionary
281
     1
  3
Normal
350
F
100
AcDbDictionaryWithDefault
340
F
  0
DICTIONARY
  5
237
102
{ACAD_REACTORS
330
C
102
}
330
C
100
AcDbDictionary
281
     1
  3
CEPSNTYPE
350
241
  3
FINGERPRINTGUID
350
242
  3
HYPERLINKBASE
350
23A
  3
INSUNITS
350
240
  3
LAYOUTDICT
350
23C
  3
LWETCUNION
350
23F
  3
PLOTSETDICT
350
23D
  3
PLOTSTYLNAMDICT
350
23E
  3
PSVPSCALE
350
244
  3
PUCSBASE
350
247
  3
PUCSORGBACK
350
24D
  3
PUCSORGBOTTOM
350
249
  3
PUCSORGFRONT
350
24C
  3
PUCSORGLEFT
350
24A
  3
PUCSORGRIGHT
350
24B
  3
PUCSORGTOP
350
248
  3
PUCSORTHOREF
350
245
  3
PUCSORTHOVIEW
350
246
  3
STYLESHEET
350
23B
  3
TSTACKALIGN
350
238
  3
TSTACKSIZE
350
239
  3
UCSBASE
350
250
  3
UCSORGBACK
350
256
  3
UCSORGBOTTOM
350
252
  3
UCSORGFRONT
350
255
  3
UCSORGLEFT
350
253
  3
UCSORGRIGHT
350
254
  3
UCSORGTOP
350
251
  3
UCSORTHOREF
350
24E
  3
UCSORTHOVIEW
350
24F
  3
VERSIONGUID
350
243
  0
DICTIONARY
  5
2C
102
{ACAD_REACTORS
330
C
102
}
330
C
100
AcDbDictionary
281
     1
  3
DIMASSOC
350
2E
  3
HIDETEXT
350
2D
  0
LAYOUT
  5
22
102
{ACAD_REACTORS
330
1A
102
}
330
1A
100
AcDbPlotSettings
  1

  2
FX Able Model-PR ART4-ADV
  4

  6

 40
0.0
 41
0.0
 42
0.0
 43
0.0
 44
0.0
 45
0.0
 46
0.0
 47
0.0
 48
0.0
 49
0.0
140
0.0
141
0.0
142
1.0
143
1.0
 70
  1712
 72
     0
 73
     0
 74
     0
  7

 75
     0
147
1.0
148
0.0
149
0.0
100
AcDbLayout
  1
Model
 70
     1
 71
     0
 10
0.0
 20
0.0
 11
12.0
 21
9.0
 12
0.0
 22
0.0
 32
0.0
 14
0.0
 24
0.0
 34
0.0
 15
0.0
 25
0.0
 35
0.0
146
0.0
 13
0.0
 23
0.0
 33
0.0
 16
1.0
 26
0.0
 36
0.0
 17
0.0
 27
1.0
 37
0.0
 76
     0
330
1F
  0
LAYOUT
  5
1E
102
{ACAD_REACTORS
330
1A
102
}
330
1A
100
AcDbPlotSettings
  1

  2
FX Able Model-PR ART4-ADV
  4
A3
  6

 40
5.238749980926511
 41
5.238728046417236
 42
5.365753173828125
 43
5.238739013671875
 44
296.989501953125
 45
419.9889831542968
 46
0.0
 47
0.0
 48
0.0
 49
0.0
140
0.0
141
0.0
142
1.0
143
1.0
 70
   688
 72
     1
 73
     1
 74
     5
  7

 75
    16
147
1.0
148
0.0
149
0.0
100
AcDbLayout
  1
布局1
 70
     1
 71
     1
 10
-5.238739013671875
 20
-5.238749980926511
 11
414.750244140625
 21
291.7507519721985
 12
0.0
 22
0.0
 32
0.0
 14
-8.899471633043502
 24
-26.73820739052917
 34
0.0
 15
426.589167520022
 25
307.7994923806357
 35
0.0
146
0.0
 13
0.0
 23
0.0
 33
0.0
 16
1.0
 26
0.0
 36
0.0
 17
0.0
 27
1.0
 37
0.0
 76
     0
330
1B
331
BD
  0
LAYOUT
  5
26
102
{ACAD_REACTORS
330
1A
102
}
330
1A
100
AcDbPlotSettings
  1

  2
FX Able Model-PR ART4-ADV
  4

  6

 40
0.0
 41
0.0
 42
0.0
 43
0.0
 44
0.0
 45
0.0
 46
0.0
 47
0.0
 48
0.0
 49
0.0
140
0.0
141
0.0
142
1.0
143
1.0
 70
   688
 72
     0
 73
     0
 74
     5
  7

 75
    16
147
1.0
148
0.0
149
0.0
100
AcDbLayout
  1
布局2
 70
     1
 71
     2
 10
0.0
 20
0.0
 11
12.0
 21
9.0
 12
0.0
 22
0.0
 32
0.0
 14
0.0
 24
0.0
 34
0.0
 15
0.0
 25
0.0
 35
0.0
146
0.0
 13
0.0
 23
0.0
 33
0.0
 16
1.0
 26
0.0
 36
0.0
 17
0.0
 27
1.0
 37
0.0
 76
     0
330
23
  0
MLINESTYLE
  5
18
102
{ACAD_REACTORS
330
17
102
}
330
17
100
AcDbMlineStyle
  2
STANDARD
 70
     0
  3

 62
   256
 51
90.0
 52
90.0
 71
     2
 49
0.5
 62
   256
  6
BYLAYER
 49
-0.5
 62
   256
  6
BYLAYER
  0
ACDBPLACEHOLDER
  5
F
102
{ACAD_REACTORS
330
E
102
}
330
E
  0
XRECORD
  5
241
102
{ACAD_REACTORS
330
237
102
}
330
237
100
AcDbXrecord
280
     1
 90
        0
  0
XRECORD
  5
242
102
{ACAD_REACTORS
330
237
102
}
330
237
100
AcDbXrecord
280
     1
  1
{6FE1AFC0-5102-4A46-B493-E7447FAF5E28}
  0
XRECORD
  5
23A
102
{ACAD_REACTORS
330
237
102
}
330
237
100
AcDbXrecord
280
     1
  1

  0
XRECORD
  5
240
102
{ACAD_REACTORS
330
237
102
}
330
237
100
AcDbXrecord
280
     1
 90
        4
  0
XRECORD
  5
23C
102
{ACAD_REACTORS
330
237
102
}
330
237
100
AcDbXrecord
280
     1
340
1A
  0
XRECORD
  5
23F
102
{ACAD_REACTORS
330
237
102
}
330
237
100
AcDbXrecord
280
     1
 90
    10781
  0
XRECORD
  5
23D
102
{ACAD_REACTORS
330
237
102
}
330
237
100
AcDbXrecord
280
     1
340
19
  0
XRECORD
  5
23E
102
{ACAD_REACTORS
330
237
102
}
330
237
100
AcDbXrecord
280
     1
340
E
  0
XRECORD
  5
244
102
{ACAD_REACTORS
330
237
102
}
330
237
100
AcDbXrecord
280
     1
 40
0.0
  0
XRECORD
  5
247
102
{ACAD_REACTORS
330
237
102
}
330
237
100
AcDbXrecord
280
     1
340
0
  0
XRECORD
  5
24D
102
{ACAD_REACTORS
330
237
102
}
330
237
100
AcDbXrecord
280
     1
 10
0.0
 20
0.0
 30
0.0
  0
XRECORD
  5
249
102
{ACAD_REACTORS
330
237
102
}
330
237
100
AcDbXrecord
280
     1
 10
0.0
 20
0.0
 30
0.0
  0
XRECORD
  5
24C
102
{ACAD_REACTORS
330
237
102
}
330
237
100
AcDbXrecord
280
     1
 10
0.0
 20
0.0
 30
0.0
  0
XRECORD
  5
24A
102
{ACAD_REACTORS
330
237
102
}
330
237
100
AcDbXrecord
280
     1
 10
0.0
 20
0.0
 30
0.0
  0
XRECORD
  5
24B
102
{ACAD_REACTORS
330
237
102
}
330
237
100
AcDbXrecord
280
     1
 10
0.0
 20
0.0
 30
0.0
  0
XRECORD
  5
248
102
{ACAD_REACTORS
330
237
102
}
330
237
100
AcDbXrecord
280
     1
 10
0.0
 20
0.0
 30
0.0
  0
XRECORD
  5
245
102
{ACAD_REACTORS
330
237
102
}
330
237
100
AcDbXrecord
280
     1
340
0
  0
XRECORD
  5
246
102
{ACAD_REACTORS
330
237
102
}
330
237
100
AcDbXrecord
280
     1
 70
     0
  0
XRECORD
  5
23B
102
{ACAD_REACTORS
330
237
102
}
330
237
100
AcDbXrecord
280
     1
  1

  0
XRECORD
  5
238
102
{ACAD_REACTORS
330
237
102
}
330
237
100
AcDbXrecord
280
     1
 90
        1
  0
XRECORD
  5
239
102
{ACAD_REACTORS
330
237
102
}
330
237
100
AcDbXrecord
280
     1
 90
       70
  0
XRECORD
  5
250
102
{ACAD_REACTORS
330
237
102
}
330
237
100
AcDbXrecord
280
     1
340
0
  0
XRECORD
  5
256
102
{ACAD_REACTORS
330
237
102
}
330
237
100
AcDbXrecord
280
     1
 10
0.0
 20
0.0
 30
0.0
  0
XRECORD
  5
252
102
{ACAD_REACTORS
330
237
102
}
330
237
100
AcDbXrecord
280
     1
 10
0.0
 20
0.0
 30
0.0
  0
XRECORD
  5
255
102
{ACAD_REACTORS
330
237
102
}
330
237
100
AcDbXrecord
280
     1
 10
0.0
 20
0.0
 30
0.0
  0
XRECORD
  5
253
102
{ACAD_REACTORS
330
237
102
}
330
237
100
AcDbXrecord
280
     1
 10
0.0
 20
0.0
 30
0.0
  0
XRECORD
  5
254
102
{ACAD_REACTORS
330
237
102
}
330
237
100
AcDbXrecord
280
     1
 10
0.0
 20
0.0
 30
0.0
  0
XRECORD
  5
251
102
{ACAD_REACTORS
330
237
102
}
330
237
100
AcDbXrecord
280
     1
 10
0.0
 20
0.0
 30
0.0
  0
XRECORD
  5
24E
102
{ACAD_REACTORS
330
237
102
}
330
237
100
AcDbXrecord
280
     1
340
0
  0
XRECORD
  5
24F
102
{ACAD_REACTORS
330
237
102
}
330
237
100
AcDbXrecord
280
     1
 70
     0
  0
XRECORD
  5
243
102
{ACAD_REACTORS
330
237
102
}
330
237
100
AcDbXrecord
280
     1
  1
{D525715A-597D-4205-94DB-C62F981E7C33}
  0
DICTIONARYVAR
  5
2E
102
{ACAD_REACTORS
330
2C
102
}
330
2C
100
DictionaryVariables
280
     0
  1
2
  0
DICTIONARYVAR
  5
2D
102
{ACAD_REACTORS
330
2C
102
}
330
2C
100
DictionaryVariables
280
     0
  1
1
  0
ENDSEC
  0
EOF
