  0
SECTION
  2
HEADER
  9
$ACADVER
 1
AC1015
  9
$EXTMAX
 10
296.380000
 20
0.000000
  9
$EXTMIN
 10
0.000000
 20
-419.510000
  9
$LIMMIN
  10
0.000000
  20
0.000000
  9
$LIMMAX
  10
296.380000
  20
-419.510000
  9
$HANDSEED
  5
9999999
  0
ENDSEC
  0
SECTION
  2
TABLES
  0
TABLE
  2
LTYPE
  5
5
  330
0
  100
AcDbSymbolTable
  70
1
  0
LTYPE
  5
14
  100
AcDbSymbolTableRecord
  100
AcDbLinetypeTableRecord
  2
ByBlock
  70
0
  0
LTYPE
  5
15
  100
AcDbSymbolTableRecord
  100
AcDbLinetypeTableRecord
  2
ByLayer
  70
0
  0
LTYPE
  5
16
  100
AcDbSymbolTableRecord
  100
AcDbLinetypeTableRecord
  2
CONTINUOUS
  70
0
  0
LTYPE
  5
101
  100
AcDbSymbolTableRecord
  100
AcDbLinetypeTableRecord
  2
ACAD_ISO02W100
  70
0
  73
2
  49
12.000000
  74
0
  49
-3.000000
  74
0
  0
LTYPE
  5
102
  100
AcDbSymbolTableRecord
  100
AcDbLinetypeTableRecord
  2
ACAD_ISO03W100
  70
0
  73
2
  49
12.000000
  74
0
  49
-18.000000
  74
0
  0
LTYPE
  5
103
  100
AcDbSymbolTableRecord
  100
AcDbLinetypeTableRecord
  2
ACAD_ISO04W100
  70
0
  73
4
  49
24.000000
  74
0
  49
-3.000000
  74
0
  49
0.000000
  74
0
  49
-3.000000
  74
0
  0
LTYPE
  5
104
  100
AcDbSymbolTableRecord
  100
AcDbLinetypeTableRecord
  2
ACAD_ISO05W100
  70
0
  73
6
  49
24.000000
  74
0
  49
-3.000000
  74
0
  49
0.000000
  74
0
  49
-3.000000
  74
0
  49
0.000000
  74
0
  49
-3.000000
  74
0
  0
LTYPE
  5
105
  100
AcDbSymbolTableRecord
  100
AcDbLinetypeTableRecord
  2
ACAD_ISO06W100
  70
0
  73
8
  49
24.000000
  74
0
  49
-3.000000
  74
0
  49
0.000000
  74
0
  49
-3.000000
  74
0
  49
0.000000
  74
0
  49
-3.000000
  74
0
  49
0.000000
  74
0
  49
-3.000000
  74
0
  0
LTYPE
  5
106
  100
AcDbSymbolTableRecord
  100
AcDbLinetypeTableRecord
  2
ACAD_ISO07W100
  70
0
  73
2
  49
0.000000
  74
0
  49
-3.000000
  74
0
  0
LTYPE
  5
107
  100
AcDbSymbolTableRecord
  100
AcDbLinetypeTableRecord
  2
ACAD_ISO08W100
  70
0
  73
4
  49
24.000000
  74
0
  49
-3.000000
  74
0
  49
6.000000
  74
0
  49
-3.000000
  74
0
  0
LTYPE
  5
108
  100
AcDbSymbolTableRecord
  100
AcDbLinetypeTableRecord
  2
ACAD_ISO09W100
  70
0
  73
6
  49
24.000000
  74
0
  49
-3.000000
  74
0
  49
6.000000
  74
0
  49
-3.000000
  74
0
  49
6.000000
  74
0
  49
-3.000000
  74
0
  0
LTYPE
  5
109
  100
AcDbSymbolTableRecord
  100
AcDbLinetypeTableRecord
  2
ACAD_ISO10W100
  70
0
  73
4
  49
12.000000
  74
0
  49
-3.000000
  74
0
  49
0.000000
  74
0
  49
-3.000000
  74
0
  0
LTYPE
  5
10A
  100
AcDbSymbolTableRecord
  100
AcDbLinetypeTableRecord
  2
ACAD_ISO11W100
  70
0
  73
6
  49
12.000000
  74
0
  49
-3.000000
  74
0
  49
12.000000
  74
0
  49
-3.000000
  74
0
  49
0.000000
  74
0
  49
-3.000000
  74
0
  0
LTYPE
  5
10B
  100
AcDbSymbolTableRecord
  100
AcDbLinetypeTableRecord
  2
ACAD_ISO12W100
  70
0
  73
6
  49
12.000000
  74
0
  49
-3.000000
  74
0
  49
0.000000
  74
0
  49
-3.000000
  74
0
  49
0.000000
  74
0
  49
-3.000000
  74
0
  0
LTYPE
  5
10C
  100
AcDbSymbolTableRecord
  100
AcDbLinetypeTableRecord
  2
ACAD_ISO13W100
  70
0
  73
8
  49
12.000000
  74
0
  49
-3.000000
  74
0
  49
12.000000
  74
0
  49
-3.000000
  74
0
  49
0.000000
  74
0
  49
-3.000000
  74
0
  49
0.000000
  74
0
  49
-3.000000
  74
0
  0
LTYPE
  5
10D
  100
AcDbSymbolTableRecord
  100
AcDbLinetypeTableRecord
  2
ACAD_ISO14W100
  70
0
  73
8
  49
12.000000
  74
0
  49
-3.000000
  74
0
  49
0.000000
  74
0
  49
-3.000000
  74
0
  49
0.000000
  74
0
  49
-3.000000
  74
0
  49
0.000000
  74
0
  49
-3.000000
  74
0
  0
LTYPE
  5
10E
  100
AcDbSymbolTableRecord
  100
AcDbLinetypeTableRecord
  2
ACAD_ISO15W100
  70
0
  73
10
  49
12.000000
  74
0
  49
-3.000000
  74
0
  49
12.000000
  74
0
  49
-3.000000
  74
0
  49
0.000000
  74
0
  49
-3.000000
  74
0
  49
0.000000
  74
0
  49
-3.000000
  74
0
  49
0.000000
  74
0
  49
-3.000000
  74
0
  0
ENDTAB
  0
TABLE
  2
LAYER
  5
2
  330
0
  100
AcDbSymbolTable
  70
1
  0
LAYER
  5
10
  100
AcDbSymbolTableRecord
  100
AcDbLayerTableRecord
  2
0
  70
0
  62
7
  6
CONTINUOUS
  390
F
  0
ENDTAB
  0
TABLE
  2
STYLE
  5
3
  330
0
  100
AcDbSymbolTable
  70
0
  0
ENDTAB
  0
TABLE
  2
VPORT
  5
8
  330
0
  100
AcDbSymbolTable
  70
1
  0
VPORT
  5
2F
  100
AcDbSymbolTableRecord
  100
AcDbViewportTableRecord
  2
*ACTIVE
  70
0
  10
0.000000
  20
0.000000
  11
1.000000
  21
1.000000
  12
148.190000
  22
-209.755000
  13
0.000000
  23
0.000000
  14
10.000000
  24
10.000000
  15
10.000000
  25
10.000000
  16
0.000000
  26
0.000000
  36
1.000000
  17
0.000000
  27
0.000000
  37
0.000000
  40
419.510000
  41
0.706491
  42
50.000000
  43
0.000000
  44
0.000000
  50
0.000000
  51
0.000000
  71
0
  72
100
  73
1
  74
3
  75
0
  76
0
  77
0
  78
0
  0
ENDTAB
  0
TABLE
  2
VIEW
  5
6
  330
0
  100
AcDbSymbolTable
  70
0
  0
ENDTAB
  0
TABLE
  2
UCS
  5
7
  330
0
  100
AcDbSymbolTable
  70
0
  0
ENDTAB
  0
TABLE
  2
APPID
  5
9
  330
0
  100
AcDbSymbolTable
  70
1
  0
APPID
  5
12
  100
AcDbSymbolTableRecord
  100
AcDbRegAppTableRecord
  2
ACAD
  70
0
  0
ENDTAB
  0
TABLE
  2
DIMSTYLE
  5
A
  330
0
  100
AcDbSymbolTable
  70
0
  100
AcDbDimStyleTable
  71
0
  0
ENDTAB
  0
TABLE
  2
BLOCK_RECORD
  5
1
  330
0
  100
AcDbSymbolTable
  70
1
  0
BLOCK_RECORD
  5
1F
  100
AcDbSymbolTableRecord
  100
AcDbBlockTableRecord
  2
*Model_Space
  0
BLOCK_RECORD
  5
1B
  100
AcDbSymbolTableRecord
  100
AcDbBlockTableRecord
  2
*Paper_Space
  0
BLOCK_RECORD
  5
23
  100
AcDbSymbolTableRecord
  100
AcDbBlockTableRecord
  2
*Paper_Space0
  0
BLOCK_RECORD
  5
10F
  100
AcDbSymbolTableRecord
  100
AcDbBlockTableRecord
  2
1-1
  0
BLOCK_RECORD
  5
110
  100
AcDbSymbolTableRecord
  100
AcDbBlockTableRecord
  2
1-2
  0
BLOCK_RECORD
  5
111
  100
AcDbSymbolTableRecord
  100
AcDbBlockTableRecord
  2
2-
  0
BLOCK_RECORD
  5
112
  100
AcDbSymbolTableRecord
  100
AcDbBlockTableRecord
  2
3-
  0
BLOCK_RECORD
  5
113
  100
AcDbSymbolTableRecord
  100
AcDbBlockTableRecord
  2
4-
  0
BLOCK_RECORD
  5
114
  100
AcDbSymbolTableRecord
  100
AcDbBlockTableRecord
  2
5-
  0
BLOCK_RECORD
  5
115
  100
AcDbSymbolTableRecord
  100
AcDbBlockTableRecord
  2
6-1
  0
BLOCK_RECORD
  5
116
  100
AcDbSymbolTableRecord
  100
AcDbBlockTableRecord
  2
6-2
  0
BLOCK_RECORD
  5
117
  100
AcDbSymbolTableRecord
  100
AcDbBlockTableRecord
  2
7-
  0
BLOCK_RECORD
  5
118
  100
AcDbSymbolTableRecord
  100
AcDbBlockTableRecord
  2
8-
  0
ENDTAB
  0
ENDSEC
  0
SECTION
  2
BLOCKS
  0
BLOCK
  5
20
  100
AcDbEntity
  8
0
  100
AcDbBlockBegin
  2
*Model_Space
  70
0
  10
0.000000
  20
0.000000
  30
0.000000
  0
ENDBLK
  5
21
  100
AcDbEntity
  8
0
  100
AcDbBlockEnd
  0
BLOCK
  5
1C
  100
AcDbEntity
  8
0
  100
AcDbBlockBegin
  2
*Paper_Space
  70
0
  10
0.000000
  20
0.000000
  30
0.000000
  0
ENDBLK
  5
1D
  100
AcDbEntity
  8
0
  100
AcDbBlockEnd
  0
BLOCK
  5
24
  100
AcDbEntity
  8
0
  100
AcDbBlockBegin
  2
*Paper_Space0
  70
0
  10
0.000000
  20
0.000000
  30
0.000000
  0
ENDBLK
  5
25
  100
AcDbEntity
  8
0
  100
AcDbBlockEnd
  0
BLOCK
  5
119
  100
AcDbEntity
  8
0
  100
AcDbBlockBegin
  2
1-1
  70
0
  10
0.000000
  20
0.000000
  30
0.000000
  0
CIRCLE
  5
11A
  100
AcDbEntity
  8
0
  62
7
  100
AcDbCircle
  10
0.000000
  20
0.000000
  40
1.500000
  0
MTEXT
  5
11B
  100
AcDbEntity
  8
0
  62
7
  100
AcDbMText
  1
{\f|b0|i0|c134|p54;1}
  11
1.000000
  21
0.000000
  71
5
  10
0.000000
  20
0.000000
  40
1.500000
  44
0.840000
  0
MTEXT
  5
11C
  100
AcDbEntity
  8
0
  62
7
  100
AcDbMText
  1
{\f|b0|i0|c134|p54;1}
  11
1.000000
  21
0.000000
  71
7
  10
1.800000
  20
-1.500000
  40
0.500000
  44
0.840000
  0
ENDBLK
  5
11D
  100
AcDbEntity
  8
0
  100
AcDbBlockEnd
  0
BLOCK
  5
11E
  100
AcDbEntity
  8
0
  100
AcDbBlockBegin
  2
1-2
  70
0
  10
0.000000
  20
0.000000
  30
0.000000
  0
CIRCLE
  5
11F
  100
AcDbEntity
  8
0
  62
7
  100
AcDbCircle
  10
0.000000
  20
0.000000
  40
1.500000
  0
MTEXT
  5
120
  100
AcDbEntity
  8
0
  62
7
  100
AcDbMText
  1
{\f|b0|i0|c134|p54;1}
  11
1.000000
  21
0.000000
  71
5
  10
0.000000
  20
0.000000
  40
1.500000
  44
0.840000
  0
MTEXT
  5
121
  100
AcDbEntity
  8
0
  62
7
  100
AcDbMText
  1
{\f|b0|i0|c134|p54;2}
  11
1.000000
  21
0.000000
  71
7
  10
1.800000
  20
-1.500000
  40
0.500000
  44
0.840000
  0
ENDBLK
  5
122
  100
AcDbEntity
  8
0
  100
AcDbBlockEnd
  0
BLOCK
  5
123
  100
AcDbEntity
  8
0
  100
AcDbBlockBegin
  2
2-
  70
0
  10
0.000000
  20
0.000000
  30
0.000000
  0
CIRCLE
  5
124
  100
AcDbEntity
  8
0
  62
7
  100
AcDbCircle
  10
0.000000
  20
0.000000
  40
1.500000
  0
MTEXT
  5
125
  100
AcDbEntity
  8
0
  62
7
  100
AcDbMText
  1
{\f|b0|i0|c134|p54;2}
  11
1.000000
  21
0.000000
  71
5
  10
0.000000
  20
0.000000
  40
1.500000
  44
0.840000
  0
MTEXT
  5
126
  100
AcDbEntity
  8
0
  62
7
  100
AcDbMText
  1
{\f|b0|i0|c134|p54;}
  11
1.000000
  21
0.000000
  71
7
  10
1.800000
  20
-1.500000
  40
0.500000
  44
0.840000
  0
ENDBLK
  5
127
  100
AcDbEntity
  8
0
  100
AcDbBlockEnd
  0
BLOCK
  5
128
  100
AcDbEntity
  8
0
  100
AcDbBlockBegin
  2
3-
  70
0
  10
0.000000
  20
0.000000
  30
0.000000
  0
CIRCLE
  5
129
  100
AcDbEntity
  8
0
  62
7
  100
AcDbCircle
  10
0.000000
  20
0.000000
  40
1.500000
  0
MTEXT
  5
12A
  100
AcDbEntity
  8
0
  62
7
  100
AcDbMText
  1
{\f|b0|i0|c134|p54;3}
  11
1.000000
  21
0.000000
  71
5
  10
0.000000
  20
0.000000
  40
1.500000
  44
0.840000
  0
MTEXT
  5
12B
  100
AcDbEntity
  8
0
  62
7
  100
AcDbMText
  1
{\f|b0|i0|c134|p54;}
  11
1.000000
  21
0.000000
  71
7
  10
1.800000
  20
-1.500000
  40
0.500000
  44
0.840000
  0
ENDBLK
  5
12C
  100
AcDbEntity
  8
0
  100
AcDbBlockEnd
  0
BLOCK
  5
12D
  100
AcDbEntity
  8
0
  100
AcDbBlockBegin
  2
4-
  70
0
  10
0.000000
  20
0.000000
  30
0.000000
  0
CIRCLE
  5
12E
  100
AcDbEntity
  8
0
  62
7
  100
AcDbCircle
  10
0.000000
  20
0.000000
  40
1.500000
  0
MTEXT
  5
12F
  100
AcDbEntity
  8
0
  62
7
  100
AcDbMText
  1
{\f|b0|i0|c134|p54;4}
  11
1.000000
  21
0.000000
  71
5
  10
0.000000
  20
0.000000
  40
1.500000
  44
0.840000
  0
MTEXT
  5
130
  100
AcDbEntity
  8
0
  62
7
  100
AcDbMText
  1
{\f|b0|i0|c134|p54;}
  11
1.000000
  21
0.000000
  71
7
  10
1.800000
  20
-1.500000
  40
0.500000
  44
0.840000
  0
ENDBLK
  5
131
  100
AcDbEntity
  8
0
  100
AcDbBlockEnd
  0
BLOCK
  5
132
  100
AcDbEntity
  8
0
  100
AcDbBlockBegin
  2
5-
  70
0
  10
0.000000
  20
0.000000
  30
0.000000
  0
CIRCLE
  5
133
  100
AcDbEntity
  8
0
  62
7
  100
AcDbCircle
  10
0.000000
  20
0.000000
  40
1.500000
  0
MTEXT
  5
134
  100
AcDbEntity
  8
0
  62
7
  100
AcDbMText
  1
{\f|b0|i0|c134|p54;5}
  11
1.000000
  21
0.000000
  71
5
  10
0.000000
  20
0.000000
  40
1.500000
  44
0.840000
  0
MTEXT
  5
135
  100
AcDbEntity
  8
0
  62
7
  100
AcDbMText
  1
{\f|b0|i0|c134|p54;}
  11
1.000000
  21
0.000000
  71
7
  10
1.800000
  20
-1.500000
  40
0.500000
  44
0.840000
  0
ENDBLK
  5
136
  100
AcDbEntity
  8
0
  100
AcDbBlockEnd
  0
BLOCK
  5
137
  100
AcDbEntity
  8
0
  100
AcDbBlockBegin
  2
6-1
  70
0
  10
0.000000
  20
0.000000
  30
0.000000
  0
CIRCLE
  5
138
  100
AcDbEntity
  8
0
  62
7
  100
AcDbCircle
  10
0.000000
  20
0.000000
  40
1.500000
  0
MTEXT
  5
139
  100
AcDbEntity
  8
0
  62
7
  100
AcDbMText
  1
{\f|b0|i0|c134|p54;6}
  11
1.000000
  21
0.000000
  71
5
  10
0.000000
  20
0.000000
  40
1.500000
  44
0.840000
  0
MTEXT
  5
13A
  100
AcDbEntity
  8
0
  62
7
  100
AcDbMText
  1
{\f|b0|i0|c134|p54;1}
  11
1.000000
  21
0.000000
  71
7
  10
1.800000
  20
-1.500000
  40
0.500000
  44
0.840000
  0
ENDBLK
  5
13B
  100
AcDbEntity
  8
0
  100
AcDbBlockEnd
  0
BLOCK
  5
13C
  100
AcDbEntity
  8
0
  100
AcDbBlockBegin
  2
6-2
  70
0
  10
0.000000
  20
0.000000
  30
0.000000
  0
CIRCLE
  5
13D
  100
AcDbEntity
  8
0
  62
7
  100
AcDbCircle
  10
0.000000
  20
0.000000
  40
1.500000
  0
MTEXT
  5
13E
  100
AcDbEntity
  8
0
  62
7
  100
AcDbMText
  1
{\f|b0|i0|c134|p54;6}
  11
1.000000
  21
0.000000
  71
5
  10
0.000000
  20
0.000000
  40
1.500000
  44
0.840000
  0
MTEXT
  5
13F
  100
AcDbEntity
  8
0
  62
7
  100
AcDbMText
  1
{\f|b0|i0|c134|p54;2}
  11
1.000000
  21
0.000000
  71
7
  10
1.800000
  20
-1.500000
  40
0.500000
  44
0.840000
  0
ENDBLK
  5
140
  100
AcDbEntity
  8
0
  100
AcDbBlockEnd
  0
BLOCK
  5
141
  100
AcDbEntity
  8
0
  100
AcDbBlockBegin
  2
7-
  70
0
  10
0.000000
  20
0.000000
  30
0.000000
  0
CIRCLE
  5
142
  100
AcDbEntity
  8
0
  62
7
  100
AcDbCircle
  10
0.000000
  20
0.000000
  40
1.500000
  0
MTEXT
  5
143
  100
AcDbEntity
  8
0
  62
7
  100
AcDbMText
  1
{\f|b0|i0|c134|p54;7}
  11
1.000000
  21
0.000000
  71
5
  10
0.000000
  20
0.000000
  40
1.500000
  44
0.840000
  0
MTEXT
  5
144
  100
AcDbEntity
  8
0
  62
7
  100
AcDbMText
  1
{\f|b0|i0|c134|p54;}
  11
1.000000
  21
0.000000
  71
7
  10
1.800000
  20
-1.500000
  40
0.500000
  44
0.840000
  0
ENDBLK
  5
145
  100
AcDbEntity
  8
0
  100
AcDbBlockEnd
  0
BLOCK
  5
146
  100
AcDbEntity
  8
0
  100
AcDbBlockBegin
  2
8-
  70
0
  10
0.000000
  20
0.000000
  30
0.000000
  0
CIRCLE
  5
147
  100
AcDbEntity
  8
0
  62
7
  100
AcDbCircle
  10
0.000000
  20
0.000000
  40
1.500000
  0
MTEXT
  5
148
  100
AcDbEntity
  8
0
  62
7
  100
AcDbMText
  1
{\f|b0|i0|c134|p54;8}
  11
1.000000
  21
0.000000
  71
5
  10
0.000000
  20
0.000000
  40
1.500000
  44
0.840000
  0
MTEXT
  5
149
  100
AcDbEntity
  8
0
  62
7
  100
AcDbMText
  1
{\f|b0|i0|c134|p54;}
  11
1.000000
  21
0.000000
  71
7
  10
1.800000
  20
-1.500000
  40
0.500000
  44
0.840000
  0
ENDBLK
  5
14A
  100
AcDbEntity
  8
0
  100
AcDbBlockEnd
  0
ENDSEC
  0
SECTION
  2
ENTITIES
  0
MTEXT
  5
14B
  100
AcDbEntity
  8
0
  100
AcDbMText
  1
{\fArial|b0|i0|c134|p54;The Table of CPT Results}
  11
1.000000
  21
0.000000
  71
2
  10
148.000000
  20
-33.000000
  40
7.000000
  44
0.840000
  0
MTEXT
  5
14C
  100
AcDbEntity
  8
0
  100
AcDbMText
  1
{\fArial|b0|i0|c134|p54;Project Name:}
  11
1.000000
  21
0.000000
  71
1
  10
12.000000
  20
-45.500000
  40
2.500000
  44
0.840000
  0
MTEXT
  5
14D
  100
AcDbEntity
  8
0
  100
AcDbMText
  1
{\fArial|b0|i0|c134|p54;}
  11
1.000000
  21
0.000000
  71
1
  10
36.000000
  20
-45.500000
  40
2.500000
  44
0.840000
  0
MTEXT
  5
14E
  100
AcDbEntity
  8
0
  100
AcDbMText
  1
{\fArial|b0|i0|c134|p54;Bore         No:}
  11
1.000000
  21
0.000000
  71
1
  10
12.000000
  20
-52.000000
  40
2.500000
  44
0.840000
  0
MTEXT
  5
14F
  100
AcDbEntity
  8
0
  100
AcDbMText
  1
{\fArial|b0|i0|c134|p54;C35}
  11
1.000000
  21
0.000000
  71
1
  10
36.000000
  20
-52.000000
  40
2.500000
  44
0.840000
  0
MTEXT
  5
150
  100
AcDbEntity
  8
0
  100
AcDbMText
  1
{\fArial|b0|i0|c134|p54;Started  Date:}
  11
1.000000
  21
0.000000
  71
1
  10
12.000000
  20
-58.500000
  40
2.500000
  44
0.840000
  0
MTEXT
  5
151
  100
AcDbEntity
  8
0
  100
AcDbMText
  1
{\fArial|b0|i0|c134|p54;}
  11
1.000000
  21
0.000000
  71
1
  10
36.000000
  20
-58.500000
  40
2.500000
  44
0.840000
  0
MTEXT
  5
152
  100
AcDbEntity
  8
0
  100
AcDbMText
  1
{\fArial|b0|i0|c134|p54;Broehole Elevation:}
  11
1.000000
  21
0.000000
  71
1
  10
12.000000
  20
-65.000000
  40
2.500000
  44
0.840000
  0
MTEXT
  5
153
  100
AcDbEntity
  8
0
  100
AcDbMText
  1
{\fArial|b0|i0|c134|p54;2.37}
  11
1.000000
  21
0.000000
  71
1
  10
41.000000
  20
-65.000000
  40
2.500000
  44
0.840000
  0
MTEXT
  5
154
  100
AcDbEntity
  8
0
  100
AcDbMText
  1
{\fArial|b0|i0|c134|p54;Bore Position:}
  11
1.000000
  21
0.000000
  71
1
  10
70.000000
  20
-52.000000
  40
2.500000
  44
0.840000
  0
MTEXT
  5
155
  100
AcDbEntity
  8
0
  100
AcDbMText
  1
{\fArial|b0|i0|c134|p54;Finished   Date:}
  11
1.000000
  21
0.000000
  71
1
  10
70.000000
  20
-58.500000
  40
2.500000
  44
0.840000
  0
MTEXT
  5
156
  100
AcDbEntity
  8
0
  100
AcDbMText
  1
{\fArial|b0|i0|c134|p54;}
  11
1.000000
  21
0.000000
  71
1
  10
94.500000
  20
-58.500000
  40
2.500000
  44
0.840000
  0
MTEXT
  5
157
  100
AcDbEntity
  8
0
  100
AcDbMText
  1
{\fArial|b0|i0|c134|p54;Groundwater level(Depth/Elevation):}
  11
1.000000
  21
0.000000
  71
1
  10
70.000000
  20
-65.000000
  40
2.500000
  44
0.840000
  0
MTEXT
  5
158
  100
AcDbEntity
  8
0
  100
AcDbMText
  1
{\fArial|b0|i0|c134|p54;}
  11
1.000000
  21
0.000000
  71
1
  10
119.000000
  20
-65.000000
  40
2.500000
  44
0.840000
  0
MTEXT
  5
159
  100
AcDbEntity
  8
0
  100
AcDbMText
  1
{\fArial|b0|i0|c134|p54;Coordination:}
  11
1.000000
  21
0.000000
  71
1
  10
126.000000
  20
-52.000000
  40
2.500000
  44
0.840000
  0
LWPOLYLINE
  5
15A
  100
AcDbEntity
  8
0
  100
AcDbPolyline
  90
4
  70
1
  10
8.000000
  20
-23.000000
  10
289.000000
  20
-23.000000
  10
289.000000
  20
-357.000000
  10
8.000000
  20
-357.000000
  0
LWPOLYLINE
  5
15B
  100
AcDbEntity
  8
0
  100
AcDbPolyline
  90
4
  70
1
  10
10.000000
  20
-70.000000
  10
287.000000
  20
-70.000000
  10
287.000000
  20
-345.000000
  10
10.000000
  20
-345.000000
  0
LINE
  5
15C
  100
AcDbEntity
  8
0
  100
AcDbLine
  10
10.000000
  20
-95.000000
  11
287.000000
  21
-95.000000
  0
LINE
  5
15D
  100
AcDbEntity
  8
0
  100
AcDbLine
  10
17.000000
  20
-70.000000
  11
17.000000
  21
-345.000000
  0
LINE
  5
15E
  100
AcDbEntity
  8
0
  100
AcDbLine
  10
40.000000
  20
-70.000000
  11
40.000000
  21
-345.000000
  0
LINE
  5
15F
  100
AcDbEntity
  8
0
  100
AcDbLine
  10
57.000000
  20
-70.000000
  11
57.000000
  21
-345.000000
  0
LINE
  5
160
  100
AcDbEntity
  8
0
  100
AcDbLine
  10
64.000000
  20
-70.000000
  11
64.000000
  21
-345.000000
  0
LINE
  5
161
  100
AcDbEntity
  8
0
  100
AcDbLine
  10
70.000000
  20
-95.000000
  11
70.000000
  21
-345.000000
  0
LINE
  5
162
  100
AcDbEntity
  8
0
  100
AcDbLine
  10
72.000000
  20
-95.000000
  11
72.000000
  21
-345.000000
  0
LINE
  5
163
  100
AcDbEntity
  8
0
  100
AcDbLine
  10
78.000000
  20
-70.000000
  11
78.000000
  21
-345.000000
  0
LINE
  5
164
  100
AcDbEntity
  8
0
  100
AcDbLine
  10
88.000000
  20
-70.000000
  11
88.000000
  21
-345.000000
  0
LINE
  5
165
  100
AcDbEntity
  8
0
  100
AcDbLine
  10
98.000000
  20
-70.000000
  11
98.000000
  21
-345.000000
  0
LINE
  5
166
  100
AcDbEntity
  8
0
  100
AcDbLine
  10
108.000000
  20
-70.000000
  11
108.000000
  21
-345.000000
  0
LINE
  5
167
  100
AcDbEntity
  8
0
  100
AcDbLine
  10
118.000000
  20
-70.000000
  11
118.000000
  21
-345.000000
  0
LINE
  5
168
  100
AcDbEntity
  8
0
  100
AcDbLine
  10
125.000000
  20
-70.000000
  11
125.000000
  21
-345.000000
  0
LINE
  5
169
  100
AcDbEntity
  8
0
  100
AcDbLine
  10
206.000000
  20
-70.000000
  11
206.000000
  21
-345.000000
  0
MTEXT
  5
16A
  100
AcDbEntity
  8
0
  100
AcDbMText
  1
{\fArial|b0|i0|c134|p54;Strata No.}
  11
0.000000
  21
1.000000
  71
2
  10
12.333333
  20
-82.500000
  40
2.500000
  44
0.840000
  0
MTEXT
  5
16B
  100
AcDbEntity
  8
0
  100
AcDbMText
  1
{\fArial|b0|i0|c134|p54;Name of\P\PStrata}
  11
1.000000
  21
0.000000
  71
2
  10
28.500000
  20
-80.000000
  40
2.500000
  44
0.840000
  0
MTEXT
  5
16C
  100
AcDbEntity
  8
0
  100
AcDbMText
  1
{\fArial|b0|i0|c134|p54;Depth of Strata}
  11
0.000000
  21
1.000000
  71
2
  10
42.833333
  20
-82.500000
  40
2.500000
  44
0.840000
  0
MTEXT
  5
16D
  100
AcDbEntity
  8
0
  100
AcDbMText
  1
{\fArial|b0|i0|c134|p54;Bottom}
  11
0.000000
  21
1.000000
  71
2
  10
46.800000
  20
-82.500000
  40
2.500000
  44
0.840000
  0
MTEXT
  5
16E
  100
AcDbEntity
  8
0
  100
AcDbMText
  1
{\fArial|b0|i0|c134|p54;(Elevation)}
  11
0.000000
  21
1.000000
  71
2
  10
51.333333
  20
-82.500000
  40
2.500000
  44
0.840000
  0
MTEXT
  5
16F
  100
AcDbEntity
  8
0
  100
AcDbMText
  1
{\fArial|b0|i0|c134|p54;Thickness}
  11
0.000000
  21
1.000000
  71
2
  10
57.875000
  20
-82.500000
  40
2.500000
  44
0.840000
  0
MTEXT
  5
170
  100
AcDbEntity
  8
0
  100
AcDbMText
  1
{\fArial|b0|i0|c134|p54;of Strata}
  11
0.000000
  21
1.000000
  71
2
  10
60.500000
  20
-82.500000
  40
2.500000
  44
0.840000
  0
MTEXT
  5
171
  100
AcDbEntity
  8
0
  100
AcDbMText
  1
{\fArial|b0|i0|c134|p54;Columnar\P\P\PScale\P1: 200}
  11
1.000000
  21
0.000000
  71
2
  10
71.000000
  20
-74.000000
  40
2.500000
  44
0.840000
  0
MTEXT
  5
172
  100
AcDbEntity
  8
0
  100
AcDbMText
  1
{\fArial|b0|i0|c134|p54;qc}
  11
1.000000
  21
0.000000
  71
2
  10
83.000000
  20
-77.500000
  40
2.500000
  44
0.840000
  0
MTEXT
  5
173
  100
AcDbEntity
  8
0
  100
AcDbMText
  1
{\fArial|b0|i0|c134|p54;MPa}
  11
1.000000
  21
0.000000
  71
2
  10
83.000000
  20
-92.000000
  40
2.500000
  44
0.840000
  0
MTEXT
  5
174
  100
AcDbEntity
  8
0
  100
AcDbMText
  1
{\fArial|b0|i0|c134|p54;fs}
  11
1.000000
  21
0.000000
  71
2
  10
93.000000
  20
-77.500000
  40
2.500000
  44
0.840000
  0
MTEXT
  5
175
  100
AcDbEntity
  8
0
  100
AcDbMText
  1
{\fArial|b0|i0|c134|p54;kPa}
  11
1.000000
  21
0.000000
  71
2
  10
93.000000
  20
-92.000000
  40
2.500000
  44
0.840000
  0
MTEXT
  5
176
  100
AcDbEntity
  8
0
  100
AcDbMText
  1
{\fGungsuhChe|b0|i0|c134|p54;[fao]}
  11
1.000000
  21
0.000000
  71
2
  10
103.000000
  20
-77.500000
  40
2.500000
  44
0.840000
  0
MTEXT
  5
177
  100
AcDbEntity
  8
0
  100
AcDbMText
  1
{\fArial|b0|i0|c134|p54;kPa}
  11
1.000000
  21
0.000000
  71
2
  10
103.000000
  20
-92.000000
  40
2.500000
  44
0.840000
  0
MTEXT
  5
178
  100
AcDbEntity
  8
0
  100
AcDbMText
  1
{\fGungsuhChe|b0|i0|c134|p54;[q ]}
  11
1.000000
  21
0.000000
  71
2
  10
113.000000
  20
-77.500000
  40
2.500000
  44
0.840000
  0
MTEXT
  5
179
  100
AcDbEntity
  8
0
  100
AcDbMText
  1
{\fArial|b0|i0|c134|p54;ik}
  11
1.000000
  21
0.000000
  71
3
  10
114.800000
  20
-78.900000
  40
1.500000
  44
0.840000
  0
MTEXT
  5
17A
  100
AcDbEntity
  8
0
  100
AcDbMText
  1
{\fArial|b0|i0|c134|p54;kPa}
  11
1.000000
  21
0.000000
  71
2
  10
113.000000
  20
-92.000000
  40
2.500000
  44
0.840000
  0
MTEXT
  5
17B
  100
AcDbEntity
  8
0
  100
AcDbMText
  1
{\fArial|b0|i0|c134|p54;Depth}
  11
0.000000
  21
1.000000
  71
2
  10
119.750000
  20
-82.500000
  40
2.500000
  44
0.840000
  0
LINE
  5
17C
  100
AcDbEntity
  8
0
  100
AcDbLine
  10
125.000000
  20
-83.500000
  11
206.000000
  21
-83.500000
  0
LINE
  5
17D
  100
AcDbEntity
  8
0
  100
AcDbLine
  10
206.000000
  20
-83.500000
  11
287.000000
  21
-83.500000
  0
LINE
  5
17E
  100
AcDbEntity
  8
0
  100
AcDbLine
  10
125.000000
  20
-90.000000
  11
206.000000
  21
-90.000000
  0
LINE
  5
17F
  100
AcDbEntity
  8
0
  100
AcDbLine
  10
206.000000
  20
-90.000000
  11
287.000000
  21
-90.000000
  0
MTEXT
  5
180
  100
AcDbEntity
  8
0
  100
AcDbMText
  1
{\fArial|b0|i0|c134|p54;The Curve of CPT}
  11
1.000000
  21
0.000000
  71
2
  10
165.500000
  20
-75.000000
  40
2.500000
  44
0.840000
  0
MTEXT
  5
181
  100
AcDbEntity
  8
0
  100
AcDbMText
  1
{\fArial|b0|i0|c134|p54;fs(kPa)}
  11
1.000000
  21
0.000000
  71
1
  10
128.000000
  20
-85.500000
  40
1.500000
  44
0.840000
  0
MTEXT
  5
182
  100
AcDbEntity
  8
0
  100
AcDbMText
  1
{\fArial|b0|i0|c134|p54;qc(MPa)}
  11
1.000000
  21
0.000000
  71
1
  10
128.000000
  20
-92.000000
  40
1.500000
  44
0.840000
  0
MTEXT
  5
183
  100
AcDbEntity
  8
0
  100
AcDbMText
  1
{\fArial|b0|i0|c134|p54;40}
  11
1.000000
  21
0.000000
  71
1
  10
144.200000
  20
-85.500000
  40
1.500000
  44
0.840000
  0
MTEXT
  5
184
  100
AcDbEntity
  8
0
  100
AcDbMText
  1
{\fArial|b0|i0|c134|p54;4}
  11
1.000000
  21
0.000000
  71
1
  10
144.200000
  20
-92.000000
  40
1.500000
  44
0.840000
  0
MTEXT
  5
185
  100
AcDbEntity
  8
0
  100
AcDbMText
  1
{\fArial|b0|i0|c134|p54;80}
  11
1.000000
  21
0.000000
  71
1
  10
164.300000
  20
-85.500000
  40
1.500000
  44
0.840000
  0
MTEXT
  5
186
  100
AcDbEntity
  8
0
  100
AcDbMText
  1
{\fArial|b0|i0|c134|p54;8}
  11
1.000000
  21
0.000000
  71
1
  10
164.300000
  20
-92.000000
  40
1.500000
  44
0.840000
  0
MTEXT
  5
187
  100
AcDbEntity
  8
0
  100
AcDbMText
  1
{\fArial|b0|i0|c134|p54;120}
  11
1.000000
  21
0.000000
  71
1
  10
184.300000
  20
-85.500000
  40
1.500000
  44
0.840000
  0
MTEXT
  5
188
  100
AcDbEntity
  8
0
  100
AcDbMText
  1
{\fArial|b0|i0|c134|p54;12}
  11
1.000000
  21
0.000000
  71
1
  10
184.300000
  20
-92.000000
  40
1.500000
  44
0.840000
  0
MTEXT
  5
189
  100
AcDbEntity
  8
0
  100
AcDbMText
  1
{\fArial|b0|i0|c134|p54;160}
  11
1.000000
  21
0.000000
  71
1
  10
201.000000
  20
-85.500000
  40
1.500000
  44
0.840000
  0
MTEXT
  5
18A
  100
AcDbEntity
  8
0
  100
AcDbMText
  1
{\fArial|b0|i0|c134|p54;16}
  11
1.000000
  21
0.000000
  71
1
  10
201.000000
  20
-92.000000
  40
1.500000
  44
0.840000
  0
MTEXT
  5
18B
  100
AcDbEntity
  8
0
  100
AcDbMText
  1
{\fArial|b0|i0|c134|p54;The Curve of n}
  11
1.000000
  21
0.000000
  71
2
  10
246.500000
  20
-75.000000
  40
2.500000
  44
0.840000
  0
MTEXT
  5
18C
  100
AcDbEntity
  8
0
  100
AcDbMText
  1
{\fArial|b0|i0|c134|p54;(fs/qc)}
  11
1.000000
  21
0.000000
  71
1
  10
258.500000
  20
-75.500000
  40
1.500000
  44
0.840000
  0
MTEXT
  5
18D
  100
AcDbEntity
  8
0
  100
AcDbMText
  1
{\fArial|b0|i0|c134|p54;Legend: }
  11
1.000000
  21
0.000000
  71
1
  10
209.000000
  20
-85.500000
  40
2.500000
  44
0.840000
  0
MTEXT
  5
18E
  100
AcDbEntity
  8
0
  100
AcDbMText
  1
{\fArial|b0|i0|c134|p54;qc(Rf) }
  11
1.000000
  21
0.000000
  71
1
  10
225.000000
  20
-85.800000
  40
1.500000
  44
0.840000
  0
LINE
  5
18F
  100
AcDbEntity
  8
0
  100
AcDbLine
  10
235.000000
  20
-86.750000
  11
245.000000
  21
-86.750000
  0
MTEXT
  5
190
  100
AcDbEntity
  8
0
  100
AcDbMText
  1
{\fArial|b0|i0|c134|p54;fs  -------}
  11
1.000000
  21
0.000000
  71
1
  10
258.000000
  20
-85.500000
  40
1.500000
  44
0.840000
  0
MTEXT
  5
191
  100
AcDbEntity
  8
0
  100
AcDbMText
  1
{\fArial|b0|i0|c134|p54;Rf}
  11
1.000000
  21
0.000000
  71
1
  10
209.000000
  20
-92.000000
  40
1.500000
  44
0.840000
  0
MTEXT
  5
192
  100
AcDbEntity
  8
0
  100
AcDbMText
  1
{\fArial|b0|i0|c134|p54;2}
  11
1.000000
  21
0.000000
  71
1
  10
225.200000
  20
-92.000000
  40
1.500000
  44
0.840000
  0
MTEXT
  5
193
  100
AcDbEntity
  8
0
  100
AcDbMText
  1
{\fArial|b0|i0|c134|p54;4}
  11
1.000000
  21
0.000000
  71
1
  10
245.200000
  20
-92.000000
  40
1.500000
  44
0.840000
  0
MTEXT
  5
194
  100
AcDbEntity
  8
0
  100
AcDbMText
  1
{\fArial|b0|i0|c134|p54;6}
  11
1.000000
  21
0.000000
  71
1
  10
265.200000
  20
-92.000000
  40
1.500000
  44
0.840000
  0
MTEXT
  5
195
  100
AcDbEntity
  8
0
  100
AcDbMText
  1
{\fArial|b0|i0|c134|p54;8}
  11
1.000000
  21
0.000000
  71
1
  10
284.000000
  20
-92.000000
  40
1.500000
  44
0.840000
  0
LINE
  5
196
  100
AcDbEntity
  8
0
  100
AcDbLine
  10
10.000000
  20
-106.000000
  11
118.000000
  21
-106.000000
  0
MTEXT
  5
197
  100
AcDbEntity
  8
0
  100
AcDbMText
  1
{\fArial|b0|i0|c134|p54;2.20}
  11
1.000000
  21
0.000000
  71
7
  10
57.200000
  20
-106.000000
  40
2.000000
  44
0.840000
  0
INSERT
  5
198
  100
AcDbEntity
  8
0
  100
AcDbBlockReference
  2
1-1
  10
13.500000
  20
-104.300000
  50
0.000000
  41
1.000000
  42
1.000000
  0
LINE
  5
199
  100
AcDbEntity
  8
0
  100
AcDbLine
  10
10.000000
  20
-108.500000
  11
118.000000
  21
-108.500000
  0
INSERT
  5
19A
  100
AcDbEntity
  8
0
  100
AcDbBlockReference
  2
1-2
  10
13.500000
  20
-106.800000
  50
0.000000
  41
1.000000
  42
1.000000
  0
MTEXT
  5
19B
  100
AcDbEntity
  8
0
  100
AcDbMText
  1
{\fArial|b0|i0|c134|p54;0.50}
  11
1.000000
  21
0.000000
  71
7
  10
57.200000
  20
-108.500000
  40
2.000000
  44
0.840000
  0
LINE
  5
19C
  100
AcDbEntity
  8
0
  100
AcDbLine
  10
10.000000
  20
-127.000000
  11
118.000000
  21
-127.000000
  0
INSERT
  5
19D
  100
AcDbEntity
  8
0
  100
AcDbBlockReference
  2
2-
  10
13.500000
  20
-125.300000
  50
0.000000
  41
1.000000
  42
1.000000
  0
MTEXT
  5
19E
  100
AcDbEntity
  8
0
  100
AcDbMText
  1
{\fArial|b0|i0|c134|p54;3.70}
  11
1.000000
  21
0.000000
  71
7
  10
57.200000
  20
-127.000000
  40
2.000000
  44
0.840000
  0
LINE
  5
19F
  100
AcDbEntity
  8
0
  100
AcDbLine
  10
10.000000
  20
-148.000000
  11
118.000000
  21
-148.000000
  0
INSERT
  5
1A0
  100
AcDbEntity
  8
0
  100
AcDbBlockReference
  2
3-
  10
13.500000
  20
-146.300000
  50
0.000000
  41
1.000000
  42
1.000000
  0
MTEXT
  5
1A1
  100
AcDbEntity
  8
0
  100
AcDbMText
  1
{\fArial|b0|i0|c134|p54;4.20}
  11
1.000000
  21
0.000000
  71
7
  10
57.200000
  20
-148.000000
  40
2.000000
  44
0.840000
  0
LINE
  5
1A2
  100
AcDbEntity
  8
0
  100
AcDbLine
  10
10.000000
  20
-168.500000
  11
118.000000
  21
-168.500000
  0
INSERT
  5
1A3
  100
AcDbEntity
  8
0
  100
AcDbBlockReference
  2
4-
  10
13.500000
  20
-166.800000
  50
0.000000
  41
1.000000
  42
1.000000
  0
MTEXT
  5
1A4
  100
AcDbEntity
  8
0
  100
AcDbMText
  1
{\fArial|b0|i0|c134|p54;4.10}
  11
1.000000
  21
0.000000
  71
7
  10
57.200000
  20
-168.500000
  40
2.000000
  44
0.840000
  0
LINE
  5
1A5
  100
AcDbEntity
  8
0
  100
AcDbLine
  10
10.000000
  20
-185.000000
  11
118.000000
  21
-185.000000
  0
INSERT
  5
1A6
  100
AcDbEntity
  8
0
  100
AcDbBlockReference
  2
5-
  10
13.500000
  20
-183.300000
  50
0.000000
  41
1.000000
  42
1.000000
  0
MTEXT
  5
1A7
  100
AcDbEntity
  8
0
  100
AcDbMText
  1
{\fArial|b0|i0|c134|p54;3.30}
  11
1.000000
  21
0.000000
  71
7
  10
57.200000
  20
-185.000000
  40
2.000000
  44
0.840000
  0
LINE
  5
1A8
  100
AcDbEntity
  8
0
  100
AcDbLine
  10
10.000000
  20
-217.500000
  11
118.000000
  21
-217.500000
  0
INSERT
  5
1A9
  100
AcDbEntity
  8
0
  100
AcDbBlockReference
  2
6-1
  10
13.500000
  20
-215.800000
  50
0.000000
  41
1.000000
  42
1.000000
  0
MTEXT
  5
1AA
  100
AcDbEntity
  8
0
  100
AcDbMText
  1
{\fArial|b0|i0|c134|p54;6.50}
  11
1.000000
  21
0.000000
  71
7
  10
57.200000
  20
-217.500000
  40
2.000000
  44
0.840000
  0
LINE
  5
1AB
  100
AcDbEntity
  8
0
  100
AcDbLine
  10
10.000000
  20
-260.000000
  11
118.000000
  21
-260.000000
  0
INSERT
  5
1AC
  100
AcDbEntity
  8
0
  100
AcDbBlockReference
  2
6-2
  10
13.500000
  20
-258.300000
  50
0.000000
  41
1.000000
  42
1.000000
  0
MTEXT
  5
1AD
  100
AcDbEntity
  8
0
  100
AcDbMText
  1
{\fArial|b0|i0|c134|p54;8.50}
  11
1.000000
  21
0.000000
  71
7
  10
57.200000
  20
-260.000000
  40
2.000000
  44
0.840000
  0
LINE
  5
1AE
  100
AcDbEntity
  8
0
  100
AcDbLine
  10
10.000000
  20
-308.000000
  11
118.000000
  21
-308.000000
  0
INSERT
  5
1AF
  100
AcDbEntity
  8
0
  100
AcDbBlockReference
  2
7-
  10
13.500000
  20
-306.300000
  50
0.000000
  41
1.000000
  42
1.000000
  0
MTEXT
  5
1B0
  100
AcDbEntity
  8
0
  100
AcDbMText
  1
{\fArial|b0|i0|c134|p54;9.60}
  11
1.000000
  21
0.000000
  71
7
  10
57.200000
  20
-308.000000
  40
2.000000
  44
0.840000
  0
LINE
  5
1B1
  100
AcDbEntity
  8
0
  100
AcDbLine
  10
10.000000
  20
-345.000000
  11
118.000000
  21
-345.000000
  0
INSERT
  5
1B2
  100
AcDbEntity
  8
0
  100
AcDbBlockReference
  2
8-
  10
13.500000
  20
-343.300000
  50
0.000000
  41
1.000000
  42
1.000000
  0
MTEXT
  5
1B3
  100
AcDbEntity
  8
0
  100
AcDbMText
  1
{\fArial|b0|i0|c134|p54;7.40}
  11
1.000000
  21
0.000000
  71
7
  10
57.200000
  20
-345.000000
  40
2.000000
  44
0.840000
  0
MTEXT
  5
1B4
  100
AcDbEntity
  8
0
  100
AcDbMText
  1
{\fArial|b0|i0|c134|p54;Mixed back fill}
  11
1.000000
  21
0.000000
  71
8
  10
28.500000
  20
-106.000000
  40
2.500000
  44
0.840000
  0
MTEXT
  5
1B5
  100
AcDbEntity
  8
0
  100
AcDbMText
  1
{\fArial|b0|i0|c134|p54;Sludge filling}
  11
1.000000
  21
0.000000
  71
8
  10
28.500000
  20
-108.500000
  40
2.500000
  44
0.840000
  0
MTEXT
  5
1B6
  100
AcDbEntity
  8
0
  100
AcDbMText
  1
{\fArial|b0|i0|c134|p54;clay}
  11
1.000000
  21
0.000000
  71
8
  10
28.500000
  20
-127.000000
  40
2.500000
  44
0.840000
  0
MTEXT
  5
1B7
  100
AcDbEntity
  8
0
  100
AcDbMText
  1
{\fArial|b0|i0|c134|p54;silty clay}
  11
1.000000
  21
0.000000
  71
8
  10
28.500000
  20
-148.000000
  40
2.500000
  44
0.840000
  0
MTEXT
  5
1B8
  100
AcDbEntity
  8
0
  100
AcDbMText
  1
{\fArial|b0|i0|c134|p54;silty clay}
  11
1.000000
  21
0.000000
  71
8
  10
28.500000
  20
-168.500000
  40
2.500000
  44
0.840000
  0
MTEXT
  5
1B9
  100
AcDbEntity
  8
0
  100
AcDbMText
  1
{\fArial|b0|i0|c134|p54;silt clipped silty clay}
  11
1.000000
  21
0.000000
  71
8
  10
28.500000
  20
-185.000000
  40
2.500000
  44
0.840000
  0
MTEXT
  5
1BA
  100
AcDbEntity
  8
0
  100
AcDbMText
  1
{\fArial|b0|i0|c134|p54;silty clay}
  11
1.000000
  21
0.000000
  71
8
  10
28.500000
  20
-217.500000
  40
2.500000
  44
0.840000
  0
MTEXT
  5
1BB
  100
AcDbEntity
  8
0
  100
AcDbMText
  1
{\fArial|b0|i0|c134|p54;silty clay clipped silt}
  11
1.000000
  21
0.000000
  71
8
  10
28.500000
  20
-260.000000
  40
2.500000
  44
0.840000
  0
MTEXT
  5
1BC
  100
AcDbEntity
  8
0
  100
AcDbMText
  1
{\fArial|b0|i0|c134|p54;silty clay}
  11
1.000000
  21
0.000000
  71
8
  10
28.500000
  20
-308.000000
  40
2.500000
  44
0.840000
  0
MTEXT
  5
1BD
  100
AcDbEntity
  8
0
  100
AcDbMText
  1
{\fArial|b0|i0|c134|p54;silty sand clipped silt}
  11
1.000000
  21
0.000000
  71
8
  10
28.500000
  20
-345.000000
  40
2.500000
  44
0.840000
  0
MTEXT
  5
1BE
  100
AcDbEntity
  8
0
  100
AcDbMText
  1
{\fArial|b0|i0|c134|p54;2.20(0.17)}
  11
1.000000
  21
0.000000
  71
7
  10
40.200000
  20
-106.000000
  40
2.000000
  44
0.840000
  0
MTEXT
  5
1BF
  100
AcDbEntity
  8
0
  100
AcDbMText
  1
{\fArial|b0|i0|c134|p54;2.70(-0.33)}
  11
1.000000
  21
0.000000
  71
7
  10
40.200000
  20
-108.500000
  40
2.000000
  44
0.840000
  0
MTEXT
  5
1C0
  100
AcDbEntity
  8
0
  100
AcDbMText
  1
{\fArial|b0|i0|c134|p54;6.40(-4.03)}
  11
1.000000
  21
0.000000
  71
7
  10
40.200000
  20
-127.000000
  40
2.000000
  44
0.840000
  0
MTEXT
  5
1C1
  100
AcDbEntity
  8
0
  100
AcDbMText
  1
{\fArial|b0|i0|c134|p54;10.60(-8.23)}
  11
1.000000
  21
0.000000
  71
7
  10
40.200000
  20
-148.000000
  40
2.000000
  44
0.840000
  0
MTEXT
  5
1C2
  100
AcDbEntity
  8
0
  100
AcDbMText
  1
{\fArial|b0|i0|c134|p54;14.70(-12.33)}
  11
1.000000
  21
0.000000
  71
7
  10
40.200000
  20
-168.500000
  40
2.000000
  44
0.840000
  0
MTEXT
  5
1C3
  100
AcDbEntity
  8
0
  100
AcDbMText
  1
{\fArial|b0|i0|c134|p54;18.00(-15.63)}
  11
1.000000
  21
0.000000
  71
7
  10
40.200000
  20
-185.000000
  40
2.000000
  44
0.840000
  0
MTEXT
  5
1C4
  100
AcDbEntity
  8
0
  100
AcDbMText
  1
{\fArial|b0|i0|c134|p54;24.50(-22.13)}
  11
1.000000
  21
0.000000
  71
7
  10
40.200000
  20
-217.500000
  40
2.000000
  44
0.840000
  0
MTEXT
  5
1C5
  100
AcDbEntity
  8
0
  100
AcDbMText
  1
{\fArial|b0|i0|c134|p54;33.00(-30.63)}
  11
1.000000
  21
0.000000
  71
7
  10
40.200000
  20
-260.000000
  40
2.000000
  44
0.840000
  0
MTEXT
  5
1C6
  100
AcDbEntity
  8
0
  100
AcDbMText
  1
{\fArial|b0|i0|c134|p54;42.60(-40.23)}
  11
1.000000
  21
0.000000
  71
7
  10
40.200000
  20
-308.000000
  40
2.000000
  44
0.840000
  0
MTEXT
  5
1C7
  100
AcDbEntity
  8
0
  100
AcDbMText
  1
{\fArial|b0|i0|c134|p54;50.00(-47.63)}
  11
1.000000
  21
0.000000
  71
7
  10
40.200000
  20
-345.000000
  40
2.000000
  44
0.840000
  0
HATCH
  5
1C8
  100
AcDbEntity
  8
0
  100
AcDbHatch
  10
0.000000
  20
0.000000
  30
0.000000
  210
0.000000
  220
0.000000
  230
1.000000
  2
杂填土
  70
0
  71
1
  91
1
  92
7
  72
0
  73
1
  93
4
  10
64.000000
  20
-95.000000
  10
70.000000
  20
-95.000000
  10
70.000000
  20
-106.000000
  10
64.000000
  20
-106.000000
  97
0
  75
0
  76
1
  52
0.000000
  41
10.000000
  77
0
  78
4
  53
45.000000
  43
0.000000
  44
0.000000
  45
-1.414214
  46
1.414214
  79
0
  53
135.000000
  43
0.076800
  44
-0.533000
  45
-2.828427
  46
0.000000
  79
2
  49
1.000000
  49
-3.000000
  53
135.000000
  43
0.250000
  44
-0.333000
  45
-2.828427
  46
0.000000
  79
2
  49
1.000000
  49
-3.000000
  53
135.000000
  43
0.423200
  44
-0.133000
  45
-2.828427
  46
0.000000
  79
2
  49
1.000000
  49
-3.000000
  47
0.668001
  98
1
  10
64.000000
  20
-95.000000
  0
HATCH
  5
1C9
  100
AcDbEntity
  8
0
  100
AcDbHatch
  10
0.000000
  20
0.000000
  30
0.000000
  210
0.000000
  220
0.000000
  230
1.000000
  2
杂填土
  70
0
  71
1
  91
1
  92
7
  72
0
  73
1
  93
4
  10
72.000000
  20
-95.000000
  10
78.000000
  20
-95.000000
  10
78.000000
  20
-106.000000
  10
72.000000
  20
-106.000000
  97
0
  75
0
  76
1
  52
0.000000
  41
10.000000
  77
0
  78
4
  53
45.000000
  43
0.000000
  44
0.000000
  45
-1.414214
  46
1.414214
  79
0
  53
135.000000
  43
0.076800
  44
-0.533000
  45
-2.828427
  46
0.000000
  79
2
  49
1.000000
  49
-3.000000
  53
135.000000
  43
0.250000
  44
-0.333000
  45
-2.828427
  46
0.000000
  79
2
  49
1.000000
  49
-3.000000
  53
135.000000
  43
0.423200
  44
-0.133000
  45
-2.828427
  46
0.000000
  79
2
  49
1.000000
  49
-3.000000
  47
0.668001
  98
1
  10
72.000000
  20
-95.000000
  0
HATCH
  5
1CA
  100
AcDbEntity
  8
0
  100
AcDbHatch
  10
0.000000
  20
0.000000
  30
0.000000
  210
0.000000
  220
0.000000
  230
1.000000
  2
淤泥质填土
  70
0
  71
1
  91
1
  92
7
  72
0
  73
1
  93
4
  10
64.000000
  20
-106.000000
  10
70.000000
  20
-106.000000
  10
70.000000
  20
-108.500000
  10
64.000000
  20
-108.500000
  97
0
  75
0
  76
1
  52
0.000000
  41
10.000000
  77
0
  78
5
  53
0.000000
  43
0.200000
  44
0.200000
  45
2.000000
  46
2.000000
  79
2
  49
0.200000
  49
-3.800000
  53
0.000000
  43
2.800000
  44
1.800000
  45
2.000000
  46
2.000000
  79
2
  49
0.200000
  49
-3.800000
  53
45.000000
  43
0.000000
  44
0.000000
  45
-2.000000
  46
2.000000
  79
2
  49
0.282843
  49
-2.545584
  53
45.000000
  43
3.000000
  44
1.800000
  45
-2.000000
  46
2.000000
  79
2
  49
0.282843
  49
-2.545584
  53
135.000000
  43
2.800000
  44
1.800000
  45
-2.000000
  46
-2.000000
  79
2
  49
0.565685
  49
-2.262742
  47
0.668001
  98
1
  10
64.000000
  20
-106.000000
  0
HATCH
  5
1CB
  100
AcDbEntity
  8
0
  100
AcDbHatch
  10
0.000000
  20
0.000000
  30
0.000000
  210
0.000000
  220
0.000000
  230
1.000000
  2
淤泥质填土
  70
0
  71
1
  91
1
  92
7
  72
0
  73
1
  93
4
  10
72.000000
  20
-106.000000
  10
78.000000
  20
-106.000000
  10
78.000000
  20
-108.500000
  10
72.000000
  20
-108.500000
  97
0
  75
0
  76
1
  52
0.000000
  41
10.000000
  77
0
  78
5
  53
0.000000
  43
0.200000
  44
0.200000
  45
2.000000
  46
2.000000
  79
2
  49
0.200000
  49
-3.800000
  53
0.000000
  43
2.800000
  44
1.800000
  45
2.000000
  46
2.000000
  79
2
  49
0.200000
  49
-3.800000
  53
45.000000
  43
0.000000
  44
0.000000
  45
-2.000000
  46
2.000000
  79
2
  49
0.282843
  49
-2.545584
  53
45.000000
  43
3.000000
  44
1.800000
  45
-2.000000
  46
2.000000
  79
2
  49
0.282843
  49
-2.545584
  53
135.000000
  43
2.800000
  44
1.800000
  45
-2.000000
  46
-2.000000
  79
2
  49
0.565685
  49
-2.262742
  47
0.668001
  98
1
  10
72.000000
  20
-106.000000
  0
HATCH
  5
1CC
  100
AcDbEntity
  8
0
  100
AcDbHatch
  10
0.000000
  20
0.000000
  30
0.000000
  210
0.000000
  220
0.000000
  230
1.000000
  2
粘土
  70
0
  71
1
  91
1
  92
7
  72
0
  73
1
  93
4
  10
64.000000
  20
-108.500000
  10
70.000000
  20
-108.500000
  10
70.000000
  20
-127.000000
  10
64.000000
  20
-127.000000
  97
0
  75
0
  76
1
  52
0.000000
  41
10.000000
  77
0
  78
1
  53
45.000000
  43
0.000000
  44
0.000000
  45
-0.883883
  46
0.883883
  79
0
  47
0.668001
  98
1
  10
64.000000
  20
-108.500000
  0
HATCH
  5
1CD
  100
AcDbEntity
  8
0
  100
AcDbHatch
  10
0.000000
  20
0.000000
  30
0.000000
  210
0.000000
  220
0.000000
  230
1.000000
  2
粘土
  70
0
  71
1
  91
1
  92
7
  72
0
  73
1
  93
4
  10
72.000000
  20
-108.500000
  10
78.000000
  20
-108.500000
  10
78.000000
  20
-127.000000
  10
72.000000
  20
-127.000000
  97
0
  75
0
  76
1
  52
0.000000
  41
10.000000
  77
0
  78
1
  53
45.000000
  43
0.000000
  44
0.000000
  45
-0.883883
  46
0.883883
  79
0
  47
0.668001
  98
1
  10
72.000000
  20
-108.500000
  0
HATCH
  5
1CE
  100
AcDbEntity
  8
0
  100
AcDbHatch
  10
0.000000
  20
0.000000
  30
0.000000
  210
0.000000
  220
0.000000
  230
1.000000
  2
粉质粘土
  70
0
  71
1
  91
1
  92
7
  72
0
  73
1
  93
4
  10
64.000000
  20
-127.000000
  10
70.000000
  20
-127.000000
  10
70.000000
  20
-148.000000
  10
64.000000
  20
-148.000000
  97
0
  75
0
  76
1
  52
0.000000
  41
10.000000
  77
0
  78
2
  53
45.000000
  43
0.000000
  44
0.000000
  45
-1.767767
  46
1.767767
  79
0
  53
45.000000
  43
1.767767
  44
0.000000
  45
-1.767767
  46
1.767767
  79
2
  49
1.250000
  49
-1.250000
  47
0.668001
  98
1
  10
64.000000
  20
-127.000000
  0
HATCH
  5
1CF
  100
AcDbEntity
  8
0
  100
AcDbHatch
  10
0.000000
  20
0.000000
  30
0.000000
  210
0.000000
  220
0.000000
  230
1.000000
  2
粉质粘土
  70
0
  71
1
  91
1
  92
7
  72
0
  73
1
  93
4
  10
72.000000
  20
-127.000000
  10
78.000000
  20
-127.000000
  10
78.000000
  20
-148.000000
  10
72.000000
  20
-148.000000
  97
0
  75
0
  76
1
  52
0.000000
  41
10.000000
  77
0
  78
2
  53
45.000000
  43
0.000000
  44
0.000000
  45
-1.767767
  46
1.767767
  79
0
  53
45.000000
  43
1.767767
  44
0.000000
  45
-1.767767
  46
1.767767
  79
2
  49
1.250000
  49
-1.250000
  47
0.668001
  98
1
  10
72.000000
  20
-127.000000
  0
HATCH
  5
1D0
  100
AcDbEntity
  8
0
  100
AcDbHatch
  10
0.000000
  20
0.000000
  30
0.000000
  210
0.000000
  220
0.000000
  230
1.000000
  2
粉质粘土
  70
0
  71
1
  91
1
  92
7
  72
0
  73
1
  93
4
  10
64.000000
  20
-148.000000
  10
70.000000
  20
-148.000000
  10
70.000000
  20
-168.500000
  10
64.000000
  20
-168.500000
  97
0
  75
0
  76
1
  52
0.000000
  41
10.000000
  77
0
  78
2
  53
45.000000
  43
0.000000
  44
0.000000
  45
-1.767767
  46
1.767767
  79
0
  53
45.000000
  43
1.767767
  44
0.000000
  45
-1.767767
  46
1.767767
  79
2
  49
1.250000
  49
-1.250000
  47
0.668001
  98
1
  10
64.000000
  20
-148.000000
  0
HATCH
  5
1D1
  100
AcDbEntity
  8
0
  100
AcDbHatch
  10
0.000000
  20
0.000000
  30
0.000000
  210
0.000000
  220
0.000000
  230
1.000000
  2
粉质粘土
  70
0
  71
1
  91
1
  92
7
  72
0
  73
1
  93
4
  10
72.000000
  20
-148.000000
  10
78.000000
  20
-148.000000
  10
78.000000
  20
-168.500000
  10
72.000000
  20
-168.500000
  97
0
  75
0
  76
1
  52
0.000000
  41
10.000000
  77
0
  78
2
  53
45.000000
  43
0.000000
  44
0.000000
  45
-1.767767
  46
1.767767
  79
0
  53
45.000000
  43
1.767767
  44
0.000000
  45
-1.767767
  46
1.767767
  79
2
  49
1.250000
  49
-1.250000
  47
0.668001
  98
1
  10
72.000000
  20
-148.000000
  0
HATCH
  5
1D2
  100
AcDbEntity
  8
0
  100
AcDbHatch
  10
0.000000
  20
0.000000
  30
0.000000
  210
0.000000
  220
0.000000
  230
1.000000
  2
粉土夹粉质粘土
  70
0
  71
1
  91
1
  92
7
  72
0
  73
1
  93
4
  10
64.000000
  20
-168.500000
  10
70.000000
  20
-168.500000
  10
70.000000
  20
-185.000000
  10
64.000000
  20
-185.000000
  97
0
  75
0
  76
1
  52
0.000000
  41
10.000000
  77
0
  78
1
  53
45.000000
  43
0.000000
  44
0.000000
  45
-0.883883
  46
0.883883
  79
2
  49
1.250000
  49
-1.250000
  47
0.668001
  98
1
  10
64.000000
  20
-168.500000
  0
HATCH
  5
1D3
  100
AcDbEntity
  8
0
  100
AcDbHatch
  10
0.000000
  20
0.000000
  30
0.000000
  210
0.000000
  220
0.000000
  230
1.000000
  2
粉土夹粉质粘土
  70
0
  71
1
  91
1
  92
7
  72
0
  73
1
  93
4
  10
72.000000
  20
-168.500000
  10
78.000000
  20
-168.500000
  10
78.000000
  20
-185.000000
  10
72.000000
  20
-185.000000
  97
0
  75
0
  76
1
  52
0.000000
  41
10.000000
  77
0
  78
1
  53
45.000000
  43
0.000000
  44
0.000000
  45
-0.883883
  46
0.883883
  79
2
  49
1.250000
  49
-1.250000
  47
0.668001
  98
1
  10
72.000000
  20
-168.500000
  0
HATCH
  5
1D4
  100
AcDbEntity
  8
0
  100
AcDbHatch
  10
0.000000
  20
0.000000
  30
0.000000
  210
0.000000
  220
0.000000
  230
1.000000
  2
粉质粘土
  70
0
  71
1
  91
1
  92
7
  72
0
  73
1
  93
4
  10
64.000000
  20
-185.000000
  10
70.000000
  20
-185.000000
  10
70.000000
  20
-217.500000
  10
64.000000
  20
-217.500000
  97
0
  75
0
  76
1
  52
0.000000
  41
10.000000
  77
0
  78
2
  53
45.000000
  43
0.000000
  44
0.000000
  45
-1.767767
  46
1.767767
  79
0
  53
45.000000
  43
1.767767
  44
0.000000
  45
-1.767767
  46
1.767767
  79
2
  49
1.250000
  49
-1.250000
  47
0.668001
  98
1
  10
64.000000
  20
-185.000000
  0
HATCH
  5
1D5
  100
AcDbEntity
  8
0
  100
AcDbHatch
  10
0.000000
  20
0.000000
  30
0.000000
  210
0.000000
  220
0.000000
  230
1.000000
  2
粉质粘土
  70
0
  71
1
  91
1
  92
7
  72
0
  73
1
  93
4
  10
72.000000
  20
-185.000000
  10
78.000000
  20
-185.000000
  10
78.000000
  20
-217.500000
  10
72.000000
  20
-217.500000
  97
0
  75
0
  76
1
  52
0.000000
  41
10.000000
  77
0
  78
2
  53
45.000000
  43
0.000000
  44
0.000000
  45
-1.767767
  46
1.767767
  79
0
  53
45.000000
  43
1.767767
  44
0.000000
  45
-1.767767
  46
1.767767
  79
2
  49
1.250000
  49
-1.250000
  47
0.668001
  98
1
  10
72.000000
  20
-185.000000
  0
HATCH
  5
1D6
  100
AcDbEntity
  8
0
  100
AcDbHatch
  10
0.000000
  20
0.000000
  30
0.000000
  210
0.000000
  220
0.000000
  230
1.000000
  2
粉质粘土夹粉土
  70
0
  71
1
  91
1
  92
7
  72
0
  73
1
  93
4
  10
64.000000
  20
-217.500000
  10
70.000000
  20
-217.500000
  10
70.000000
  20
-260.000000
  10
64.000000
  20
-260.000000
  97
0
  75
0
  76
1
  52
0.000000
  41
10.000000
  77
0
  78
4
  53
45.000000
  43
0.000000
  44
0.000000
  45
-3.535534
  46
3.535534
  79
0
  53
45.000000
  43
1.767767
  44
0.000000
  45
-3.535534
  46
3.535534
  79
2
  49
1.250000
  49
-0.625000
  53
45.000000
  43
3.535539
  44
0.000000
  45
-3.535534
  46
3.535534
  79
0
  53
45.000000
  43
0.000000
  44
0.000000
  45
0.000000
  46
1.767767
  79
2
  49
1.250000
  49
-1.250000
  47
0.668001
  98
1
  10
64.000000
  20
-217.500000
  0
HATCH
  5
1D7
  100
AcDbEntity
  8
0
  100
AcDbHatch
  10
0.000000
  20
0.000000
  30
0.000000
  210
0.000000
  220
0.000000
  230
1.000000
  2
粉质粘土夹粉土
  70
0
  71
1
  91
1
  92
7
  72
0
  73
1
  93
4
  10
72.000000
  20
-217.500000
  10
78.000000
  20
-217.500000
  10
78.000000
  20
-260.000000
  10
72.000000
  20
-260.000000
  97
0
  75
0
  76
1
  52
0.000000
  41
10.000000
  77
0
  78
4
  53
45.000000
  43
0.000000
  44
0.000000
  45
-3.535534
  46
3.535534
  79
0
  53
45.000000
  43
1.767767
  44
0.000000
  45
-3.535534
  46
3.535534
  79
2
  49
1.250000
  49
-0.625000
  53
45.000000
  43
3.535539
  44
0.000000
  45
-3.535534
  46
3.535534
  79
0
  53
45.000000
  43
0.000000
  44
0.000000
  45
0.000000
  46
1.767767
  79
2
  49
1.250000
  49
-1.250000
  47
0.668001
  98
1
  10
72.000000
  20
-217.500000
  0
HATCH
  5
1D8
  100
AcDbEntity
  8
0
  100
AcDbHatch
  10
0.000000
  20
0.000000
  30
0.000000
  210
0.000000
  220
0.000000
  230
1.000000
  2
粉质粘土
  70
0
  71
1
  91
1
  92
7
  72
0
  73
1
  93
4
  10
64.000000
  20
-260.000000
  10
70.000000
  20
-260.000000
  10
70.000000
  20
-308.000000
  10
64.000000
  20
-308.000000
  97
0
  75
0
  76
1
  52
0.000000
  41
10.000000
  77
0
  78
2
  53
45.000000
  43
0.000000
  44
0.000000
  45
-1.767767
  46
1.767767
  79
0
  53
45.000000
  43
1.767767
  44
0.000000
  45
-1.767767
  46
1.767767
  79
2
  49
1.250000
  49
-1.250000
  47
0.668001
  98
1
  10
64.000000
  20
-260.000000
  0
HATCH
  5
1D9
  100
AcDbEntity
  8
0
  100
AcDbHatch
  10
0.000000
  20
0.000000
  30
0.000000
  210
0.000000
  220
0.000000
  230
1.000000
  2
粉质粘土
  70
0
  71
1
  91
1
  92
7
  72
0
  73
1
  93
4
  10
72.000000
  20
-260.000000
  10
78.000000
  20
-260.000000
  10
78.000000
  20
-308.000000
  10
72.000000
  20
-308.000000
  97
0
  75
0
  76
1
  52
0.000000
  41
10.000000
  77
0
  78
2
  53
45.000000
  43
0.000000
  44
0.000000
  45
-1.767767
  46
1.767767
  79
0
  53
45.000000
  43
1.767767
  44
0.000000
  45
-1.767767
  46
1.767767
  79
2
  49
1.250000
  49
-1.250000
  47
0.668001
  98
1
  10
72.000000
  20
-260.000000
  0
HATCH
  5
1DA
  100
AcDbEntity
  8
0
  100
AcDbHatch
  10
0.000000
  20
0.000000
  30
0.000000
  210
0.000000
  220
0.000000
  230
1.000000
  2
含粘性土粉砂
  70
0
  71
1
  91
1
  92
7
  72
0
  73
1
  93
4
  10
64.000000
  20
-308.000000
  10
70.000000
  20
-308.000000
  10
70.000000
  20
-345.000000
  10
64.000000
  20
-345.000000
  97
0
  75
0
  76
1
  52
0.000000
  41
10.000000
  77
0
  78
6
  53
0.000000
  43
0.000000
  44
0.000000
  45
0.468800
  46
0.937500
  79
2
  49
0.000000
  49
-0.937500
  53
45.000000
  43
0.000000
  44
0.000000
  45
0.000000
  46
2.651650
  79
2
  49
1.875000
  49
-1.875000
  53
90.000000
  43
0.400000
  44
0.000000
  45
-2.500000
  46
2.500000
  79
2
  49
0.700000
  49
-4.300000
  53
45.000000
  43
0.400000
  44
0.700000
  45
0.000000
  46
5.000000
  79
2
  49
0.141421
  49
-3.394113
  53
0.000000
  43
0.500000
  44
0.800000
  45
2.500000
  46
2.500000
  79
2
  49
0.100000
  49
-4.900000
  53
0.000000
  43
0.250000
  44
0.450000
  45
2.500000
  46
2.500000
  79
2
  49
0.300000
  49
-4.700000
  47
0.668001
  98
1
  10
64.000000
  20
-308.000000
  0
MTEXT
  5
1DB
  100
AcDbEntity
  8
0
  100
AcDbMText
  1
{\f|b0|i0|c134|p54;f}
  11
1.000000
  21
0.000000
  71
5
  10
67.000000
  20
-326.500000
  40
1.500000
  44
0.840000
  0
HATCH
  5
1DC
  100
AcDbEntity
  8
0
  100
AcDbHatch
  10
0.000000
  20
0.000000
  30
0.000000
  210
0.000000
  220
0.000000
  230
1.000000
  2
含粘性土粉砂
  70
0
  71
1
  91
1
  92
7
  72
0
  73
1
  93
4
  10
72.000000
  20
-308.000000
  10
78.000000
  20
-308.000000
  10
78.000000
  20
-345.000000
  10
72.000000
  20
-345.000000
  97
0
  75
0
  76
1
  52
0.000000
  41
10.000000
  77
0
  78
6
  53
0.000000
  43
0.000000
  44
0.000000
  45
0.468800
  46
0.937500
  79
2
  49
0.000000
  49
-0.937500
  53
45.000000
  43
0.000000
  44
0.000000
  45
0.000000
  46
2.651650
  79
2
  49
1.875000
  49
-1.875000
  53
90.000000
  43
0.400000
  44
0.000000
  45
-2.500000
  46
2.500000
  79
2
  49
0.700000
  49
-4.300000
  53
45.000000
  43
0.400000
  44
0.700000
  45
0.000000
  46
5.000000
  79
2
  49
0.141421
  49
-3.394113
  53
0.000000
  43
0.500000
  44
0.800000
  45
2.500000
  46
2.500000
  79
2
  49
0.100000
  49
-4.900000
  53
0.000000
  43
0.250000
  44
0.450000
  45
2.500000
  46
2.500000
  79
2
  49
0.300000
  49
-4.700000
  47
0.668001
  98
1
  10
72.000000
  20
-308.000000
  0
MTEXT
  5
1DD
  100
AcDbEntity
  8
0
  100
AcDbMText
  1
{\fArial|b0|i0|c134|p54;1.55}
  11
1.000000
  21
0.000000
  71
8
  10
83.000000
  20
-106.000000
  40
2.000000
  44
0.840000
  0
MTEXT
  5
1DE
  100
AcDbEntity
  8
0
  100
AcDbMText
  1
{\fArial|b0|i0|c134|p54;0.62}
  11
1.000000
  21
0.000000
  71
8
  10
83.000000
  20
-108.500000
  40
2.000000
  44
0.840000
  0
MTEXT
  5
1DF
  100
AcDbEntity
  8
0
  100
AcDbMText
  1
{\fArial|b0|i0|c134|p54;1.31}
  11
1.000000
  21
0.000000
  71
8
  10
83.000000
  20
-127.000000
  40
2.000000
  44
0.840000
  0
MTEXT
  5
1E0
  100
AcDbEntity
  8
0
  100
AcDbMText
  1
{\fArial|b0|i0|c134|p54;1.33}
  11
1.000000
  21
0.000000
  71
8
  10
83.000000
  20
-148.000000
  40
2.000000
  44
0.840000
  0
MTEXT
  5
1E1
  100
AcDbEntity
  8
0
  100
AcDbMText
  1
{\fArial|b0|i0|c134|p54;0.71}
  11
1.000000
  21
0.000000
  71
8
  10
83.000000
  20
-168.500000
  40
2.000000
  44
0.840000
  0
MTEXT
  5
1E2
  100
AcDbEntity
  8
0
  100
AcDbMText
  1
{\fArial|b0|i0|c134|p54;3.90}
  11
1.000000
  21
0.000000
  71
8
  10
83.000000
  20
-185.000000
  40
2.000000
  44
0.840000
  0
MTEXT
  5
1E3
  100
AcDbEntity
  8
0
  100
AcDbMText
  1
{\fArial|b0|i0|c134|p54;1.02}
  11
1.000000
  21
0.000000
  71
8
  10
83.000000
  20
-217.500000
  40
2.000000
  44
0.840000
  0
MTEXT
  5
1E4
  100
AcDbEntity
  8
0
  100
AcDbMText
  1
{\fArial|b0|i0|c134|p54;2.08}
  11
1.000000
  21
0.000000
  71
8
  10
83.000000
  20
-260.000000
  40
2.000000
  44
0.840000
  0
MTEXT
  5
1E5
  100
AcDbEntity
  8
0
  100
AcDbMText
  1
{\fArial|b0|i0|c134|p54;1.30}
  11
1.000000
  21
0.000000
  71
8
  10
83.000000
  20
-308.000000
  40
2.000000
  44
0.840000
  0
MTEXT
  5
1E6
  100
AcDbEntity
  8
0
  100
AcDbMText
  1
{\fArial|b0|i0|c134|p54;16.80}
  11
1.000000
  21
0.000000
  71
8
  10
83.000000
  20
-345.000000
  40
2.000000
  44
0.840000
  0
MTEXT
  5
1E7
  100
AcDbEntity
  8
0
  100
AcDbMText
  1
{\fArial|b0|i0|c134|p54;33.09}
  11
1.000000
  21
0.000000
  71
8
  10
93.000000
  20
-106.000000
  40
2.000000
  44
0.840000
  0
MTEXT
  5
1E8
  100
AcDbEntity
  8
0
  100
AcDbMText
  1
{\fArial|b0|i0|c134|p54;33.04}
  11
1.000000
  21
0.000000
  71
8
  10
93.000000
  20
-108.500000
  40
2.000000
  44
0.840000
  0
MTEXT
  5
1E9
  100
AcDbEntity
  8
0
  100
AcDbMText
  1
{\fArial|b0|i0|c134|p54;76.03}
  11
1.000000
  21
0.000000
  71
8
  10
93.000000
  20
-127.000000
  40
2.000000
  44
0.840000
  0
MTEXT
  5
1EA
  100
AcDbEntity
  8
0
  100
AcDbMText
  1
{\fArial|b0|i0|c134|p54;45.50}
  11
1.000000
  21
0.000000
  71
8
  10
93.000000
  20
-148.000000
  40
2.000000
  44
0.840000
  0
MTEXT
  5
1EB
  100
AcDbEntity
  8
0
  100
AcDbMText
  1
{\fArial|b0|i0|c134|p54;14.26}
  11
1.000000
  21
0.000000
  71
8
  10
93.000000
  20
-168.500000
  40
2.000000
  44
0.840000
  0
MTEXT
  5
1EC
  100
AcDbEntity
  8
0
  100
AcDbMText
  1
{\fArial|b0|i0|c134|p54;79.09}
  11
1.000000
  21
0.000000
  71
8
  10
93.000000
  20
-185.000000
  40
2.000000
  44
0.840000
  0
MTEXT
  5
1ED
  100
AcDbEntity
  8
0
  100
AcDbMText
  1
{\fArial|b0|i0|c134|p54;18.34}
  11
1.000000
  21
0.000000
  71
8
  10
93.000000
  20
-217.500000
  40
2.000000
  44
0.840000
  0
MTEXT
  5
1EE
  100
AcDbEntity
  8
0
  100
AcDbMText
  1
{\fArial|b0|i0|c134|p54;36.84}
  11
1.000000
  21
0.000000
  71
8
  10
93.000000
  20
-260.000000
  40
2.000000
  44
0.840000
  0
MTEXT
  5
1EF
  100
AcDbEntity
  8
0
  100
AcDbMText
  1
{\fArial|b0|i0|c134|p54;17.35}
  11
1.000000
  21
0.000000
  71
8
  10
93.000000
  20
-308.000000
  40
2.000000
  44
0.840000
  0
MTEXT
  5
1F0
  100
AcDbEntity
  8
0
  100
AcDbMText
  1
{\fArial|b0|i0|c134|p54;265.73}
  11
1.000000
  21
0.000000
  71
8
  10
93.000000
  20
-345.000000
  40
2.000000
  44
0.840000
  0
LINE
  5
1F1
  100
AcDbEntity
  8
0
  100
AcDbLine
  10
118.000000
  20
-105.000000
  11
206.000000
  21
-105.000000
  0
LINE
  5
1F2
  100
AcDbEntity
  8
0
  100
AcDbLine
  10
206.000000
  20
-105.000000
  11
287.000000
  21
-105.000000
  0
MTEXT
  5
1F3
  100
AcDbEntity
  8
0
  100
AcDbMText
  1
{\fArial|b0|i0|c134|p54;2.0}
  11
1.000000
  21
0.000000
  71
8
  10
121.500000
  20
-105.000000
  40
1.500000
  44
0.840000
  0
LINE
  5
1F4
  100
AcDbEntity
  8
0
  100
AcDbLine
  10
118.000000
  20
-115.000000
  11
206.000000
  21
-115.000000
  0
LINE
  5
1F5
  100
AcDbEntity
  8
0
  100
AcDbLine
  10
206.000000
  20
-115.000000
  11
287.000000
  21
-115.000000
  0
MTEXT
  5
1F6
  100
AcDbEntity
  8
0
  100
AcDbMText
  1
{\fArial|b0|i0|c134|p54;4.0}
  11
1.000000
  21
0.000000
  71
8
  10
121.500000
  20
-115.000000
  40
1.500000
  44
0.840000
  0
LINE
  5
1F7
  100
AcDbEntity
  8
0
  100
AcDbLine
  10
118.000000
  20
-125.000000
  11
206.000000
  21
-125.000000
  0
LINE
  5
1F8
  100
AcDbEntity
  8
0
  100
AcDbLine
  10
206.000000
  20
-125.000000
  11
287.000000
  21
-125.000000
  0
MTEXT
  5
1F9
  100
AcDbEntity
  8
0
  100
AcDbMText
  1
{\fArial|b0|i0|c134|p54;6.0}
  11
1.000000
  21
0.000000
  71
8
  10
121.500000
  20
-125.000000
  40
1.500000
  44
0.840000
  0
LINE
  5
1FA
  100
AcDbEntity
  8
0
  100
AcDbLine
  10
118.000000
  20
-135.000000
  11
206.000000
  21
-135.000000
  0
LINE
  5
1FB
  100
AcDbEntity
  8
0
  100
AcDbLine
  10
206.000000
  20
-135.000000
  11
287.000000
  21
-135.000000
  0
MTEXT
  5
1FC
  100
AcDbEntity
  8
0
  100
AcDbMText
  1
{\fArial|b0|i0|c134|p54;8.0}
  11
1.000000
  21
0.000000
  71
8
  10
121.500000
  20
-135.000000
  40
1.500000
  44
0.840000
  0
LINE
  5
1FD
  100
AcDbEntity
  8
0
  100
AcDbLine
  10
118.000000
  20
-145.000000
  11
206.000000
  21
-145.000000
  0
LINE
  5
1FE
  100
AcDbEntity
  8
0
  100
AcDbLine
  10
206.000000
  20
-145.000000
  11
287.000000
  21
-145.000000
  0
MTEXT
  5
1FF
  100
AcDbEntity
  8
0
  100
AcDbMText
  1
{\fArial|b0|i0|c134|p54;10.0}
  11
1.000000
  21
0.000000
  71
8
  10
121.500000
  20
-145.000000
  40
1.500000
  44
0.840000
  0
LINE
  5
200
  100
AcDbEntity
  8
0
  100
AcDbLine
  10
118.000000
  20
-155.000000
  11
206.000000
  21
-155.000000
  0
LINE
  5
201
  100
AcDbEntity
  8
0
  100
AcDbLine
  10
206.000000
  20
-155.000000
  11
287.000000
  21
-155.000000
  0
MTEXT
  5
202
  100
AcDbEntity
  8
0
  100
AcDbMText
  1
{\fArial|b0|i0|c134|p54;12.0}
  11
1.000000
  21
0.000000
  71
8
  10
121.500000
  20
-155.000000
  40
1.500000
  44
0.840000
  0
LINE
  5
203
  100
AcDbEntity
  8
0
  100
AcDbLine
  10
118.000000
  20
-165.000000
  11
206.000000
  21
-165.000000
  0
LINE
  5
204
  100
AcDbEntity
  8
0
  100
AcDbLine
  10
206.000000
  20
-165.000000
  11
287.000000
  21
-165.000000
  0
MTEXT
  5
205
  100
AcDbEntity
  8
0
  100
AcDbMText
  1
{\fArial|b0|i0|c134|p54;14.0}
  11
1.000000
  21
0.000000
  71
8
  10
121.500000
  20
-165.000000
  40
1.500000
  44
0.840000
  0
LINE
  5
206
  100
AcDbEntity
  8
0
  100
AcDbLine
  10
118.000000
  20
-175.000000
  11
206.000000
  21
-175.000000
  0
LINE
  5
207
  100
AcDbEntity
  8
0
  100
AcDbLine
  10
206.000000
  20
-175.000000
  11
287.000000
  21
-175.000000
  0
MTEXT
  5
208
  100
AcDbEntity
  8
0
  100
AcDbMText
  1
{\fArial|b0|i0|c134|p54;16.0}
  11
1.000000
  21
0.000000
  71
8
  10
121.500000
  20
-175.000000
  40
1.500000
  44
0.840000
  0
LINE
  5
209
  100
AcDbEntity
  8
0
  100
AcDbLine
  10
118.000000
  20
-185.000000
  11
206.000000
  21
-185.000000
  0
LINE
  5
20A
  100
AcDbEntity
  8
0
  100
AcDbLine
  10
206.000000
  20
-185.000000
  11
287.000000
  21
-185.000000
  0
MTEXT
  5
20B
  100
AcDbEntity
  8
0
  100
AcDbMText
  1
{\fArial|b0|i0|c134|p54;18.0}
  11
1.000000
  21
0.000000
  71
8
  10
121.500000
  20
-185.000000
  40
1.500000
  44
0.840000
  0
LINE
  5
20C
  100
AcDbEntity
  8
0
  100
AcDbLine
  10
118.000000
  20
-195.000000
  11
206.000000
  21
-195.000000
  0
LINE
  5
20D
  100
AcDbEntity
  8
0
  100
AcDbLine
  10
206.000000
  20
-195.000000
  11
287.000000
  21
-195.000000
  0
MTEXT
  5
20E
  100
AcDbEntity
  8
0
  100
AcDbMText
  1
{\fArial|b0|i0|c134|p54;20.0}
  11
1.000000
  21
0.000000
  71
8
  10
121.500000
  20
-195.000000
  40
1.500000
  44
0.840000
  0
LINE
  5
20F
  100
AcDbEntity
  8
0
  100
AcDbLine
  10
118.000000
  20
-205.000000
  11
206.000000
  21
-205.000000
  0
LINE
  5
210
  100
AcDbEntity
  8
0
  100
AcDbLine
  10
206.000000
  20
-205.000000
  11
287.000000
  21
-205.000000
  0
MTEXT
  5
211
  100
AcDbEntity
  8
0
  100
AcDbMText
  1
{\fArial|b0|i0|c134|p54;22.0}
  11
1.000000
  21
0.000000
  71
8
  10
121.500000
  20
-205.000000
  40
1.500000
  44
0.840000
  0
LINE
  5
212
  100
AcDbEntity
  8
0
  100
AcDbLine
  10
118.000000
  20
-215.000000
  11
206.000000
  21
-215.000000
  0
LINE
  5
213
  100
AcDbEntity
  8
0
  100
AcDbLine
  10
206.000000
  20
-215.000000
  11
287.000000
  21
-215.000000
  0
MTEXT
  5
214
  100
AcDbEntity
  8
0
  100
AcDbMText
  1
{\fArial|b0|i0|c134|p54;24.0}
  11
1.000000
  21
0.000000
  71
8
  10
121.500000
  20
-215.000000
  40
1.500000
  44
0.840000
  0
LINE
  5
215
  100
AcDbEntity
  8
0
  100
AcDbLine
  10
118.000000
  20
-225.000000
  11
206.000000
  21
-225.000000
  0
LINE
  5
216
  100
AcDbEntity
  8
0
  100
AcDbLine
  10
206.000000
  20
-225.000000
  11
287.000000
  21
-225.000000
  0
MTEXT
  5
217
  100
AcDbEntity
  8
0
  100
AcDbMText
  1
{\fArial|b0|i0|c134|p54;26.0}
  11
1.000000
  21
0.000000
  71
8
  10
121.500000
  20
-225.000000
  40
1.500000
  44
0.840000
  0
LINE
  5
218
  100
AcDbEntity
  8
0
  100
AcDbLine
  10
118.000000
  20
-235.000000
  11
206.000000
  21
-235.000000
  0
LINE
  5
219
  100
AcDbEntity
  8
0
  100
AcDbLine
  10
206.000000
  20
-235.000000
  11
287.000000
  21
-235.000000
  0
MTEXT
  5
21A
  100
AcDbEntity
  8
0
  100
AcDbMText
  1
{\fArial|b0|i0|c134|p54;28.0}
  11
1.000000
  21
0.000000
  71
8
  10
121.500000
  20
-235.000000
  40
1.500000
  44
0.840000
  0
LINE
  5
21B
  100
AcDbEntity
  8
0
  100
AcDbLine
  10
118.000000
  20
-245.000000
  11
206.000000
  21
-245.000000
  0
LINE
  5
21C
  100
AcDbEntity
  8
0
  100
AcDbLine
  10
206.000000
  20
-245.000000
  11
287.000000
  21
-245.000000
  0
MTEXT
  5
21D
  100
AcDbEntity
  8
0
  100
AcDbMText
  1
{\fArial|b0|i0|c134|p54;30.0}
  11
1.000000
  21
0.000000
  71
8
  10
121.500000
  20
-245.000000
  40
1.500000
  44
0.840000
  0
LINE
  5
21E
  100
AcDbEntity
  8
0
  100
AcDbLine
  10
118.000000
  20
-255.000000
  11
206.000000
  21
-255.000000
  0
LINE
  5
21F
  100
AcDbEntity
  8
0
  100
AcDbLine
  10
206.000000
  20
-255.000000
  11
287.000000
  21
-255.000000
  0
MTEXT
  5
220
  100
AcDbEntity
  8
0
  100
AcDbMText
  1
{\fArial|b0|i0|c134|p54;32.0}
  11
1.000000
  21
0.000000
  71
8
  10
121.500000
  20
-255.000000
  40
1.500000
  44
0.840000
  0
LINE
  5
221
  100
AcDbEntity
  8
0
  100
AcDbLine
  10
118.000000
  20
-265.000000
  11
206.000000
  21
-265.000000
  0
LINE
  5
222
  100
AcDbEntity
  8
0
  100
AcDbLine
  10
206.000000
  20
-265.000000
  11
287.000000
  21
-265.000000
  0
MTEXT
  5
223
  100
AcDbEntity
  8
0
  100
AcDbMText
  1
{\fArial|b0|i0|c134|p54;34.0}
  11
1.000000
  21
0.000000
  71
8
  10
121.500000
  20
-265.000000
  40
1.500000
  44
0.840000
  0
LINE
  5
224
  100
AcDbEntity
  8
0
  100
AcDbLine
  10
118.000000
  20
-275.000000
  11
206.000000
  21
-275.000000
  0
LINE
  5
225
  100
AcDbEntity
  8
0
  100
AcDbLine
  10
206.000000
  20
-275.000000
  11
287.000000
  21
-275.000000
  0
MTEXT
  5
226
  100
AcDbEntity
  8
0
  100
AcDbMText
  1
{\fArial|b0|i0|c134|p54;36.0}
  11
1.000000
  21
0.000000
  71
8
  10
121.500000
  20
-275.000000
  40
1.500000
  44
0.840000
  0
LINE
  5
227
  100
AcDbEntity
  8
0
  100
AcDbLine
  10
118.000000
  20
-285.000000
  11
206.000000
  21
-285.000000
  0
LINE
  5
228
  100
AcDbEntity
  8
0
  100
AcDbLine
  10
206.000000
  20
-285.000000
  11
287.000000
  21
-285.000000
  0
MTEXT
  5
229
  100
AcDbEntity
  8
0
  100
AcDbMText
  1
{\fArial|b0|i0|c134|p54;38.0}
  11
1.000000
  21
0.000000
  71
8
  10
121.500000
  20
-285.000000
  40
1.500000
  44
0.840000
  0
LINE
  5
22A
  100
AcDbEntity
  8
0
  100
AcDbLine
  10
118.000000
  20
-295.000000
  11
206.000000
  21
-295.000000
  0
LINE
  5
22B
  100
AcDbEntity
  8
0
  100
AcDbLine
  10
206.000000
  20
-295.000000
  11
287.000000
  21
-295.000000
  0
MTEXT
  5
22C
  100
AcDbEntity
  8
0
  100
AcDbMText
  1
{\fArial|b0|i0|c134|p54;40.0}
  11
1.000000
  21
0.000000
  71
8
  10
121.500000
  20
-295.000000
  40
1.500000
  44
0.840000
  0
LINE
  5
22D
  100
AcDbEntity
  8
0
  100
AcDbLine
  10
118.000000
  20
-305.000000
  11
206.000000
  21
-305.000000
  0
LINE
  5
22E
  100
AcDbEntity
  8
0
  100
AcDbLine
  10
206.000000
  20
-305.000000
  11
287.000000
  21
-305.000000
  0
MTEXT
  5
22F
  100
AcDbEntity
  8
0
  100
AcDbMText
  1
{\fArial|b0|i0|c134|p54;42.0}
  11
1.000000
  21
0.000000
  71
8
  10
121.500000
  20
-305.000000
  40
1.500000
  44
0.840000
  0
LINE
  5
230
  100
AcDbEntity
  8
0
  100
AcDbLine
  10
118.000000
  20
-315.000000
  11
206.000000
  21
-315.000000
  0
LINE
  5
231
  100
AcDbEntity
  8
0
  100
AcDbLine
  10
206.000000
  20
-315.000000
  11
287.000000
  21
-315.000000
  0
MTEXT
  5
232
  100
AcDbEntity
  8
0
  100
AcDbMText
  1
{\fArial|b0|i0|c134|p54;44.0}
  11
1.000000
  21
0.000000
  71
8
  10
121.500000
  20
-315.000000
  40
1.500000
  44
0.840000
  0
LINE
  5
233
  100
AcDbEntity
  8
0
  100
AcDbLine
  10
118.000000
  20
-325.000000
  11
206.000000
  21
-325.000000
  0
LINE
  5
234
  100
AcDbEntity
  8
0
  100
AcDbLine
  10
206.000000
  20
-325.000000
  11
287.000000
  21
-325.000000
  0
MTEXT
  5
235
  100
AcDbEntity
  8
0
  100
AcDbMText
  1
{\fArial|b0|i0|c134|p54;46.0}
  11
1.000000
  21
0.000000
  71
8
  10
121.500000
  20
-325.000000
  40
1.500000
  44
0.840000
  0
LINE
  5
236
  100
AcDbEntity
  8
0
  100
AcDbLine
  10
118.000000
  20
-335.000000
  11
206.000000
  21
-335.000000
  0
LINE
  5
237
  100
AcDbEntity
  8
0
  100
AcDbLine
  10
206.000000
  20
-335.000000
  11
287.000000
  21
-335.000000
  0
MTEXT
  5
238
  100
AcDbEntity
  8
0
  100
AcDbMText
  1
{\fArial|b0|i0|c134|p54;48.0}
  11
1.000000
  21
0.000000
  71
8
  10
121.500000
  20
-335.000000
  40
1.500000
  44
0.840000
  0
LINE
  5
239
  100
AcDbEntity
  8
0
  100
AcDbLine
  10
118.000000
  20
-345.000000
  11
206.000000
  21
-345.000000
  0
LINE
  5
23A
  100
AcDbEntity
  8
0
  100
AcDbLine
  10
206.000000
  20
-345.000000
  11
287.000000
  21
-345.000000
  0
MTEXT
  5
23B
  100
AcDbEntity
  8
0
  100
AcDbMText
  1
{\fArial|b0|i0|c134|p54;50.0}
  11
1.000000
  21
0.000000
  71
8
  10
121.500000
  20
-345.000000
  40
1.500000
  44
0.840000
  0
LINE
  5
23C
  100
AcDbEntity
  8
0
  100
AcDbLine
  10
135.000000
  20
-95.000000
  11
135.000000
  21
-345.000000
  0
LINE
  5
23D
  100
AcDbEntity
  8
0
  100
AcDbLine
  10
145.000000
  20
-95.000000
  11
145.000000
  21
-345.000000
  0
LINE
  5
23E
  100
AcDbEntity
  8
0
  100
AcDbLine
  10
155.000000
  20
-95.000000
  11
155.000000
  21
-345.000000
  0
LINE
  5
23F
  100
AcDbEntity
  8
0
  100
AcDbLine
  10
165.000000
  20
-95.000000
  11
165.000000
  21
-345.000000
  0
LINE
  5
240
  100
AcDbEntity
  8
0
  100
AcDbLine
  10
175.000000
  20
-95.000000
  11
175.000000
  21
-345.000000
  0
LINE
  5
241
  100
AcDbEntity
  8
0
  100
AcDbLine
  10
185.000000
  20
-95.000000
  11
185.000000
  21
-345.000000
  0
LINE
  5
242
  100
AcDbEntity
  8
0
  100
AcDbLine
  10
195.000000
  20
-95.000000
  11
195.000000
  21
-345.000000
  0
LINE
  5
243
  100
AcDbEntity
  8
0
  100
AcDbLine
  10
216.000000
  20
-95.000000
  11
216.000000
  21
-345.000000
  0
LINE
  5
244
  100
AcDbEntity
  8
0
  100
AcDbLine
  10
226.000000
  20
-95.000000
  11
226.000000
  21
-345.000000
  0
LINE
  5
245
  100
AcDbEntity
  8
0
  100
AcDbLine
  10
236.000000
  20
-95.000000
  11
236.000000
  21
-345.000000
  0
LINE
  5
246
  100
AcDbEntity
  8
0
  100
AcDbLine
  10
246.000000
  20
-95.000000
  11
246.000000
  21
-345.000000
  0
LINE
  5
247
  100
AcDbEntity
  8
0
  100
AcDbLine
  10
256.000000
  20
-95.000000
  11
256.000000
  21
-345.000000
  0
LINE
  5
248
  100
AcDbEntity
  8
0
  100
AcDbLine
  10
266.000000
  20
-95.000000
  11
266.000000
  21
-345.000000
  0
LINE
  5
249
  100
AcDbEntity
  8
0
  100
AcDbLine
  10
276.000000
  20
-95.000000
  11
276.000000
  21
-345.000000
  0
LWPOLYLINE
  5
24A
  100
AcDbEntity
  8
0
  100
AcDbPolyline
  90
500
  10
126.900000
  20
-95.500000
  10
126.350000
  20
-96.000000
  10
126.500000
  20
-96.500000
  10
127.200000
  20
-97.000000
  10
126.050000
  20
-97.500000
  10
125.950000
  20
-98.000000
  10
126.000000
  20
-98.500000
  10
137.450000
  20
-99.000000
  10
126.100000
  20
-99.500000
  10
129.900000
  20
-100.000000
  10
128.000000
  20
-100.500000
  10
135.850000
  20
-101.000000
  10
129.700000
  20
-101.500000
  10
128.250000
  20
-102.000000
  10
137.650000
  20
-102.500000
  10
131.800000
  20
-103.000000
  10
134.950000
  20
-103.500000
  10
145.150000
  20
-104.000000
  10
164.050000
  20
-104.500000
  10
143.950000
  20
-105.000000
  10
135.000000
  20
-105.500000
  10
127.350000
  20
-106.000000
  10
127.100000
  20
-106.500000
  10
126.750000
  20
-107.000000
  10
126.500000
  20
-107.500000
  10
128.700000
  20
-108.000000
  10
131.350000
  20
-108.500000
  10
132.150000
  20
-109.000000
  10
131.850000
  20
-109.500000
  10
131.500000
  20
-110.000000
  10
131.350000
  20
-110.500000
  10
131.200000
  20
-111.000000
  10
131.300000
  20
-111.500000
  10
131.200000
  20
-112.000000
  10
130.650000
  20
-112.500000
  10
130.850000
  20
-113.000000
  10
130.550000
  20
-113.500000
  10
130.250000
  20
-114.000000
  10
130.200000
  20
-114.500000
  10
129.550000
  20
-115.000000
  10
130.000000
  20
-115.500000
  10
130.050000
  20
-116.000000
  10
130.100000
  20
-116.500000
  10
130.400000
  20
-117.000000
  10
132.300000
  20
-117.500000
  10
132.800000
  20
-118.000000
  10
132.550000
  20
-118.500000
  10
132.150000
  20
-119.000000
  10
132.250000
  20
-119.500000
  10
131.900000
  20
-120.000000
  10
131.850000
  20
-120.500000
  10
132.150000
  20
-121.000000
  10
132.000000
  20
-121.500000
  10
131.900000
  20
-122.000000
  10
131.800000
  20
-122.500000
  10
131.750000
  20
-123.000000
  10
131.650000
  20
-123.500000
  10
132.350000
  20
-124.000000
  10
132.900000
  20
-124.500000
  10
132.250000
  20
-125.000000
  10
132.350000
  20
-125.500000
  10
132.600000
  20
-126.000000
  10
132.450000
  20
-126.500000
  10
131.950000
  20
-127.000000
  10
130.950000
  20
-127.500000
  10
131.250000
  20
-128.000000
  10
130.600000
  20
-128.500000
  10
130.400000
  20
-129.000000
  10
130.200000
  20
-129.500000
  10
129.550000
  20
-130.000000
  10
129.050000
  20
-130.500000
  10
128.450000
  20
-131.000000
  10
128.400000
  20
-131.500000
  10
128.500000
  20
-132.000000
  10
128.800000
  20
-132.500000
  10
128.850000
  20
-133.000000
  10
133.050000
  20
-133.500000
  10
134.150000
  20
-134.000000
  10
135.350000
  20
-134.500000
  10
132.900000
  20
-135.000000
  10
133.450000
  20
-135.500000
  10
134.200000
  20
-136.000000
  10
130.550000
  20
-136.500000
  10
130.000000
  20
-137.000000
  10
128.900000
  20
-137.500000
  10
131.300000
  20
-138.000000
  10
132.750000
  20
-138.500000
  10
133.800000
  20
-139.000000
  10
133.500000
  20
-139.500000
  10
131.750000
  20
-140.000000
  10
130.750000
  20
-140.500000
  10
131.600000
  20
-141.000000
  10
130.900000
  20
-141.500000
  10
130.650000
  20
-142.000000
  10
131.050000
  20
-142.500000
  10
132.500000
  20
-143.000000
  10
131.750000
  20
-143.500000
  10
132.450000
  20
-144.000000
  10
133.550000
  20
-144.500000
  10
134.000000
  20
-145.000000
  10
135.650000
  20
-145.500000
  10
131.150000
  20
-146.000000
  10
131.950000
  20
-146.500000
  10
135.650000
  20
-147.000000
  10
134.000000
  20
-147.500000
  10
130.500000
  20
-148.000000
  10
128.450000
  20
-148.500000
  10
128.300000
  20
-149.000000
  10
128.200000
  20
-149.500000
  10
128.750000
  20
-150.000000
  10
128.400000
  20
-150.500000
  10
128.100000
  20
-151.000000
  10
128.100000
  20
-151.500000
  10
128.000000
  20
-152.000000
  10
128.350000
  20
-152.500000
  10
128.850000
  20
-153.000000
  10
128.150000
  20
-153.500000
  10
128.100000
  20
-154.000000
  10
128.150000
  20
-154.500000
  10
127.850000
  20
-155.000000
  10
127.900000
  20
-155.500000
  10
128.400000
  20
-156.000000
  10
128.150000
  20
-156.500000
  10
128.500000
  20
-157.000000
  10
128.450000
  20
-157.500000
  10
127.900000
  20
-158.000000
  10
127.650000
  20
-158.500000
  10
128.150000
  20
-159.000000
  10
128.100000
  20
-159.500000
  10
128.100000
  20
-160.000000
  10
127.950000
  20
-160.500000
  10
128.950000
  20
-161.000000
  10
128.350000
  20
-161.500000
  10
128.500000
  20
-162.000000
  10
128.000000
  20
-162.500000
  10
128.650000
  20
-163.000000
  10
128.150000
  20
-163.500000
  10
128.550000
  20
-164.000000
  10
128.400000
  20
-164.500000
  10
128.350000
  20
-165.000000
  10
129.450000
  20
-165.500000
  10
129.600000
  20
-166.000000
  10
129.450000
  20
-166.500000
  10
129.550000
  20
-167.000000
  10
129.500000
  20
-167.500000
  10
131.100000
  20
-168.000000
  10
131.000000
  20
-168.500000
  10
141.200000
  20
-169.000000
  10
144.850000
  20
-169.500000
  10
139.300000
  20
-170.000000
  10
145.000000
  20
-170.500000
  10
153.450000
  20
-171.000000
  10
151.900000
  20
-171.500000
  10
145.850000
  20
-172.000000
  10
141.900000
  20
-172.500000
  10
134.150000
  20
-173.000000
  10
139.950000
  20
-173.500000
  10
144.900000
  20
-174.000000
  10
135.300000
  20
-174.500000
  10
135.450000
  20
-175.000000
  10
147.450000
  20
-175.500000
  10
159.400000
  20
-176.000000
  10
150.150000
  20
-176.500000
  10
135.050000
  20
-177.000000
  10
132.550000
  20
-177.500000
  10
142.750000
  20
-178.000000
  10
153.100000
  20
-178.500000
  10
157.700000
  20
-179.000000
  10
154.150000
  20
-179.500000
  10
142.700000
  20
-180.000000
  10
145.550000
  20
-180.500000
  10
156.950000
  20
-181.000000
  10
156.700000
  20
-181.500000
  10
144.900000
  20
-182.000000
  10
146.150000
  20
-182.500000
  10
138.550000
  20
-183.000000
  10
138.900000
  20
-183.500000
  10
136.450000
  20
-184.000000
  10
141.750000
  20
-184.500000
  10
134.600000
  20
-185.000000
  10
131.800000
  20
-185.500000
  10
132.600000
  20
-186.000000
  10
129.800000
  20
-186.500000
  10
130.100000
  20
-187.000000
  10
129.800000
  20
-187.500000
  10
131.700000
  20
-188.000000
  10
135.000000
  20
-188.500000
  10
131.000000
  20
-189.000000
  10
130.450000
  20
-189.500000
  10
129.550000
  20
-190.000000
  10
128.950000
  20
-190.500000
  10
128.900000
  20
-191.000000
  10
128.900000
  20
-191.500000
  10
130.350000
  20
-192.000000
  10
130.100000
  20
-192.500000
  10
129.800000
  20
-193.000000
  10
129.800000
  20
-193.500000
  10
129.750000
  20
-194.000000
  10
130.450000
  20
-194.500000
  10
130.550000
  20
-195.000000
  10
129.000000
  20
-195.500000
  10
129.150000
  20
-196.000000
  10
129.300000
  20
-196.500000
  10
129.350000
  20
-197.000000
  10
129.350000
  20
-197.500000
  10
129.750000
  20
-198.000000
  10
130.100000
  20
-198.500000
  10
130.000000
  20
-199.000000
  10
129.850000
  20
-199.500000
  10
129.850000
  20
-200.000000
  10
129.550000
  20
-200.500000
  10
130.200000
  20
-201.000000
  10
130.600000
  20
-201.500000
  10
130.050000
  20
-202.000000
  10
129.800000
  20
-202.500000
  10
130.350000
  20
-203.000000
  10
130.650000
  20
-203.500000
  10
130.800000
  20
-204.000000
  10
130.650000
  20
-204.500000
  10
130.000000
  20
-205.000000
  10
129.350000
  20
-205.500000
  10
128.950000
  20
-206.000000
  10
129.400000
  20
-206.500000
  10
129.450000
  20
-207.000000
  10
129.350000
  20
-207.500000
  10
129.650000
  20
-208.000000
  10
129.550000
  20
-208.500000
  10
128.950000
  20
-209.000000
  10
129.050000
  20
-209.500000
  10
130.150000
  20
-210.000000
  10
129.700000
  20
-210.500000
  10
129.350000
  20
-211.000000
  10
129.550000
  20
-211.500000
  10
129.650000
  20
-212.000000
  10
130.050000
  20
-212.500000
  10
130.000000
  20
-213.000000
  10
129.600000
  20
-213.500000
  10
131.150000
  20
-214.000000
  10
129.800000
  20
-214.500000
  10
129.650000
  20
-215.000000
  10
130.200000
  20
-215.500000
  10
131.350000
  20
-216.000000
  10
131.650000
  20
-216.500000
  10
132.050000
  20
-217.000000
  10
131.100000
  20
-217.500000
  10
132.500000
  20
-218.000000
  10
130.950000
  20
-218.500000
  10
133.150000
  20
-219.000000
  10
133.100000
  20
-219.500000
  10
131.950000
  20
-220.000000
  10
133.250000
  20
-220.500000
  10
134.300000
  20
-221.000000
  10
132.350000
  20
-221.500000
  10
133.100000
  20
-222.000000
  10
131.350000
  20
-222.500000
  10
131.200000
  20
-223.000000
  10
132.050000
  20
-223.500000
  10
136.000000
  20
-224.000000
  10
134.600000
  20
-224.500000
  10
141.800000
  20
-225.000000
  10
136.800000
  20
-225.500000
  10
135.000000
  20
-226.000000
  10
154.850000
  20
-226.500000
  10
159.200000
  20
-227.000000
  10
135.050000
  20
-227.500000
  10
130.750000
  20
-228.000000
  10
130.200000
  20
-228.500000
  10
130.150000
  20
-229.000000
  10
130.000000
  20
-229.500000
  10
130.350000
  20
-230.000000
  10
129.900000
  20
-230.500000
  10
129.950000
  20
-231.000000
  10
131.050000
  20
-231.500000
  10
131.700000
  20
-232.000000
  10
134.600000
  20
-232.500000
  10
134.900000
  20
-233.000000
  10
130.700000
  20
-233.500000
  10
131.000000
  20
-234.000000
  10
132.300000
  20
-234.500000
  10
133.850000
  20
-235.000000
  10
132.350000
  20
-235.500000
  10
136.450000
  20
-236.000000
  10
138.450000
  20
-236.500000
  10
135.900000
  20
-237.000000
  10
134.800000
  20
-237.500000
  10
138.750000
  20
-238.000000
  10
137.750000
  20
-238.500000
  10
136.850000
  20
-239.000000
  10
139.600000
  20
-239.500000
  10
154.950000
  20
-240.000000
  10
145.800000
  20
-240.500000
  10
152.450000
  20
-241.000000
  10
150.000000
  20
-241.500000
  10
143.350000
  20
-242.000000
  10
136.900000
  20
-242.500000
  10
138.650000
  20
-243.000000
  10
133.700000
  20
-243.500000
  10
133.750000
  20
-244.000000
  10
135.250000
  20
-244.500000
  10
135.400000
  20
-245.000000
  10
134.750000
  20
-245.500000
  10
134.450000
  20
-246.000000
  10
133.850000
  20
-246.500000
  10
135.150000
  20
-247.000000
  10
132.600000
  20
-247.500000
  10
132.650000
  20
-248.000000
  10
133.450000
  20
-248.500000
  10
131.600000
  20
-249.000000
  10
133.500000
  20
-249.500000
  10
131.850000
  20
-250.000000
  10
132.550000
  20
-250.500000
  10
136.550000
  20
-251.000000
  10
132.800000
  20
-251.500000
  10
133.100000
  20
-252.000000
  10
133.250000
  20
-252.500000
  10
133.500000
  20
-253.000000
  10
135.450000
  20
-253.500000
  10
133.250000
  20
-254.000000
  10
133.750000
  20
-254.500000
  10
135.450000
  20
-255.000000
  10
138.950000
  20
-255.500000
  10
133.750000
  20
-256.000000
  10
136.750000
  20
-256.500000
  10
135.750000
  20
-257.000000
  10
134.050000
  20
-257.500000
  10
134.300000
  20
-258.000000
  10
133.950000
  20
-258.500000
  10
135.950000
  20
-259.000000
  10
132.700000
  20
-259.500000
  10
132.450000
  20
-260.000000
  10
130.550000
  20
-260.500000
  10
130.850000
  20
-261.000000
  10
130.600000
  20
-261.500000
  10
130.450000
  20
-262.000000
  10
130.450000
  20
-262.500000
  10
130.650000
  20
-263.000000
  10
130.350000
  20
-263.500000
  10
131.250000
  20
-264.000000
  10
130.900000
  20
-264.500000
  10
130.900000
  20
-265.000000
  10
130.400000
  20
-265.500000
  10
130.550000
  20
-266.000000
  10
135.600000
  20
-266.500000
  10
131.700000
  20
-267.000000
  10
130.850000
  20
-267.500000
  10
130.650000
  20
-268.000000
  10
130.450000
  20
-268.500000
  10
130.750000
  20
-269.000000
  10
130.550000
  20
-269.500000
  10
130.500000
  20
-270.000000
  10
130.400000
  20
-270.500000
  10
131.050000
  20
-271.000000
  10
130.700000
  20
-271.500000
  10
130.550000
  20
-272.000000
  10
130.550000
  20
-272.500000
  10
130.750000
  20
-273.000000
  10
131.150000
  20
-273.500000
  10
130.750000
  20
-274.000000
  10
130.750000
  20
-274.500000
  10
130.850000
  20
-275.000000
  10
130.850000
  20
-275.500000
  10
130.900000
  20
-276.000000
  10
130.950000
  20
-276.500000
  10
130.950000
  20
-277.000000
  10
130.900000
  20
-277.500000
  10
130.950000
  20
-278.000000
  10
131.050000
  20
-278.500000
  10
131.350000
  20
-279.000000
  10
131.150000
  20
-279.500000
  10
131.300000
  20
-280.000000
  10
131.550000
  20
-280.500000
  10
131.550000
  20
-281.000000
  10
131.500000
  20
-281.500000
  10
131.500000
  20
-282.000000
  10
131.500000
  20
-282.500000
  10
131.750000
  20
-283.000000
  10
131.750000
  20
-283.500000
  10
131.750000
  20
-284.000000
  10
131.750000
  20
-284.500000
  10
131.850000
  20
-285.000000
  10
131.950000
  20
-285.500000
  10
131.900000
  20
-286.000000
  10
131.850000
  20
-286.500000
  10
131.800000
  20
-287.000000
  10
131.700000
  20
-287.500000
  10
131.750000
  20
-288.000000
  10
131.750000
  20
-288.500000
  10
131.750000
  20
-289.000000
  10
131.750000
  20
-289.500000
  10
131.750000
  20
-290.000000
  10
131.650000
  20
-290.500000
  10
131.600000
  20
-291.000000
  10
131.700000
  20
-291.500000
  10
131.750000
  20
-292.000000
  10
131.850000
  20
-292.500000
  10
131.750000
  20
-293.000000
  10
131.800000
  20
-293.500000
  10
131.800000
  20
-294.000000
  10
131.800000
  20
-294.500000
  10
131.800000
  20
-295.000000
  10
131.750000
  20
-295.500000
  10
131.750000
  20
-296.000000
  10
131.600000
  20
-296.500000
  10
131.600000
  20
-297.000000
  10
131.750000
  20
-297.500000
  10
132.400000
  20
-298.000000
  10
132.200000
  20
-298.500000
  10
132.150000
  20
-299.000000
  10
131.850000
  20
-299.500000
  10
131.800000
  20
-300.000000
  10
132.150000
  20
-300.500000
  10
131.850000
  20
-301.000000
  10
131.850000
  20
-301.500000
  10
131.900000
  20
-302.000000
  10
132.050000
  20
-302.500000
  10
132.150000
  20
-303.000000
  10
131.850000
  20
-303.500000
  10
132.000000
  20
-304.000000
  10
132.100000
  20
-304.500000
  10
132.500000
  20
-305.000000
  10
132.500000
  20
-305.500000
  10
132.350000
  20
-306.000000
  10
132.450000
  20
-306.500000
  10
132.400000
  20
-307.000000
  10
132.350000
  20
-307.500000
  10
132.700000
  20
-308.000000
  10
132.200000
  20
-308.500000
  10
177.950000
  20
-309.000000
  10
182.700000
  20
-309.500000
  10
201.200000
  20
-310.000000
  10
205.500002
  20
-310.500000
  10
205.500002
  20
-311.000000
  10
202.800000
  20
-311.500000
  10
199.100000
  20
-312.000000
  10
194.600000
  20
-312.500000
  10
204.150000
  20
-313.000000
  10
204.200000
  20
-313.500000
  10
205.500002
  20
-314.000000
  10
205.500002
  20
-314.500000
  10
205.500002
  20
-315.000000
  10
199.500000
  20
-315.500000
  10
197.000000
  20
-316.000000
  10
194.300000
  20
-316.500000
  10
197.900000
  20
-317.000000
  10
205.500002
  20
-317.500000
  10
205.500002
  20
-318.000000
  10
205.500002
  20
-318.500000
  10
205.500002
  20
-319.000000
  10
205.500002
  20
-319.500000
  10
205.500002
  20
-320.000000
  10
204.450000
  20
-320.500000
  10
205.500002
  20
-321.000000
  10
205.500002
  20
-321.500000
  10
205.500002
  20
-322.000000
  10
205.500002
  20
-322.500000
  10
205.500002
  20
-323.000000
  10
205.500002
  20
-323.500000
  10
205.500002
  20
-324.000000
  10
205.500002
  20
-324.500000
  10
205.500002
  20
-325.000000
  10
205.500002
  20
-325.500000
  10
205.500002
  20
-326.000000
  10
205.500002
  20
-326.500000
  10
205.500002
  20
-327.000000
  10
205.500002
  20
-327.500000
  10
205.500002
  20
-328.000000
  10
205.500002
  20
-328.500000
  10
205.500002
  20
-329.000000
  10
205.500002
  20
-329.500000
  10
205.500002
  20
-330.000000
  10
199.500000
  20
-330.500000
  10
197.000000
  20
-331.000000
  10
194.300000
  20
-331.500000
  10
197.900000
  20
-332.000000
  10
205.500002
  20
-332.500000
  10
205.500002
  20
-333.000000
  10
205.500002
  20
-333.500000
  10
205.500002
  20
-334.000000
  10
205.500002
  20
-334.500000
  10
205.500002
  20
-335.000000
  10
204.450000
  20
-335.500000
  10
205.500002
  20
-336.000000
  10
205.500002
  20
-336.500000
  10
205.500002
  20
-337.000000
  10
205.500002
  20
-337.500000
  10
205.500002
  20
-338.000000
  10
205.500002
  20
-338.500000
  10
205.500002
  20
-339.000000
  10
205.500002
  20
-339.500000
  10
205.500002
  20
-340.000000
  10
205.500002
  20
-340.500000
  10
205.500002
  20
-341.000000
  10
205.500002
  20
-341.500000
  10
205.500002
  20
-342.000000
  10
205.500002
  20
-342.500000
  10
205.500002
  20
-343.000000
  10
205.500002
  20
-343.500000
  10
197.800000
  20
-344.000000
  10
177.650000
  20
-344.500000
  10
189.350000
  20
-345.000000
  0
LWPOLYLINE
  5
24B
  100
AcDbEntity
  8
0
  6
ACAD_ISO02W100
  48
0.100000
  100
AcDbPolyline
  90
500
  10
137.100000
  20
-95.500000
  10
140.850000
  20
-96.000000
  10
142.800000
  20
-96.500000
  10
144.200000
  20
-97.000000
  10
139.400000
  20
-97.500000
  10
136.550000
  20
-98.000000
  10
130.200000
  20
-98.500000
  10
146.650000
  20
-99.000000
  10
148.550000
  20
-99.500000
  10
136.950000
  20
-100.000000
  10
139.900000
  20
-100.500000
  10
142.000000
  20
-101.000000
  10
138.900000
  20
-101.500000
  10
137.750000
  20
-102.000000
  10
134.750000
  20
-102.500000
  10
136.250000
  20
-103.000000
  10
161.600000
  20
-103.500000
  10
152.550000
  20
-104.000000
  10
145.600000
  20
-104.500000
  10
126.900000
  20
-105.000000
  10
148.550000
  20
-105.500000
  10
145.950000
  20
-106.000000
  10
140.100000
  20
-106.500000
  10
138.850000
  20
-107.000000
  10
138.150000
  20
-107.500000
  10
140.100000
  20
-108.000000
  10
150.400000
  20
-108.500000
  10
157.900000
  20
-109.000000
  10
164.500000
  20
-109.500000
  10
168.450000
  20
-110.000000
  10
167.800000
  20
-110.500000
  10
166.650000
  20
-111.000000
  10
165.250000
  20
-111.500000
  10
168.200000
  20
-112.000000
  10
167.600000
  20
-112.500000
  10
164.700000
  20
-113.000000
  10
163.150000
  20
-113.500000
  10
163.200000
  20
-114.000000
  10
161.650000
  20
-114.500000
  10
157.000000
  20
-115.000000
  10
155.950000
  20
-115.500000
  10
155.400000
  20
-116.000000
  10
154.150000
  20
-116.500000
  10
153.950000
  20
-117.000000
  10
166.950000
  20
-117.500000
  10
171.150000
  20
-118.000000
  10
170.600000
  20
-118.500000
  10
168.600000
  20
-119.000000
  10
165.600000
  20
-119.500000
  10
164.000000
  20
-120.000000
  10
165.900000
  20
-120.500000
  10
166.700000
  20
-121.000000
  10
166.200000
  20
-121.500000
  10
165.050000
  20
-122.000000
  10
166.450000
  20
-122.500000
  10
167.900000
  20
-123.000000
  10
166.050000
  20
-123.500000
  10
165.450000
  20
-124.000000
  10
161.450000
  20
-124.500000
  10
156.100000
  20
-125.000000
  10
155.100000
  20
-125.500000
  10
156.200000
  20
-126.000000
  10
156.850000
  20
-126.500000
  10
153.750000
  20
-127.000000
  10
148.200000
  20
-127.500000
  10
146.250000
  20
-128.000000
  10
145.500000
  20
-128.500000
  10
143.600000
  20
-129.000000
  10
142.950000
  20
-129.500000
  10
140.500000
  20
-130.000000
  10
139.650000
  20
-130.500000
  10
139.200000
  20
-131.000000
  10
138.900000
  20
-131.500000
  10
138.600000
  20
-132.000000
  10
138.600000
  20
-132.500000
  10
147.500000
  20
-133.000000
  10
151.700000
  20
-133.500000
  10
156.900000
  20
-134.000000
  10
157.400000
  20
-134.500000
  10
159.400000
  20
-135.000000
  10
159.700000
  20
-135.500000
  10
157.150000
  20
-136.000000
  10
151.600000
  20
-136.500000
  10
141.750000
  20
-137.000000
  10
137.400000
  20
-137.500000
  10
140.500000
  20
-138.000000
  10
146.600000
  20
-138.500000
  10
153.250000
  20
-139.000000
  10
157.900000
  20
-139.500000
  10
156.350000
  20
-140.000000
  10
150.100000
  20
-140.500000
  10
148.650000
  20
-141.000000
  10
149.150000
  20
-141.500000
  10
148.050000
  20
-142.000000
  10
142.350000
  20
-142.500000
  10
144.500000
  20
-143.000000
  10
146.550000
  20
-143.500000
  10
150.600000
  20
-144.000000
  10
149.500000
  20
-144.500000
  10
154.200000
  20
-145.000000
  10
152.550000
  20
-145.500000
  10
147.650000
  20
-146.000000
  10
148.700000
  20
-146.500000
  10
147.300000
  20
-147.000000
  10
147.400000
  20
-147.500000
  10
141.200000
  20
-148.000000
  10
139.650000
  20
-148.500000
  10
137.000000
  20
-149.000000
  10
135.350000
  20
-149.500000
  10
131.800000
  20
-150.000000
  10
131.650000
  20
-150.500000
  10
131.550000
  20
-151.000000
  10
131.600000
  20
-151.500000
  10
131.450000
  20
-152.000000
  10
131.700000
  20
-152.500000
  10
131.650000
  20
-153.000000
  10
131.450000
  20
-153.500000
  10
131.000000
  20
-154.000000
  10
131.100000
  20
-154.500000
  10
131.400000
  20
-155.000000
  10
131.200000
  20
-155.500000
  10
131.150000
  20
-156.000000
  10
131.100000
  20
-156.500000
  10
131.200000
  20
-157.000000
  10
130.650000
  20
-157.500000
  10
130.150000
  20
-158.000000
  10
131.000000
  20
-158.500000
  10
131.000000
  20
-159.000000
  10
130.450000
  20
-159.500000
  10
130.400000
  20
-160.000000
  10
130.600000
  20
-160.500000
  10
130.800000
  20
-161.000000
  10
129.950000
  20
-161.500000
  10
130.150000
  20
-162.000000
  10
131.300000
  20
-162.500000
  10
131.100000
  20
-163.000000
  10
131.000000
  20
-163.500000
  10
130.950000
  20
-164.000000
  10
130.350000
  20
-164.500000
  10
130.100000
  20
-165.000000
  10
131.100000
  20
-165.500000
  10
132.400000
  20
-166.000000
  10
132.800000
  20
-166.500000
  10
134.850000
  20
-167.000000
  10
137.250000
  20
-167.500000
  10
135.250000
  20
-168.000000
  10
140.650000
  20
-168.500000
  10
146.600000
  20
-169.000000
  10
151.000000
  20
-169.500000
  10
157.950000
  20
-170.000000
  10
161.800000
  20
-170.500000
  10
158.750000
  20
-171.000000
  10
154.700000
  20
-171.500000
  10
158.650000
  20
-172.000000
  10
154.550000
  20
-172.500000
  10
155.350000
  20
-173.000000
  10
158.050000
  20
-173.500000
  10
164.100000
  20
-174.000000
  10
160.700000
  20
-174.500000
  10
176.350000
  20
-175.000000
  10
161.700000
  20
-175.500000
  10
159.950000
  20
-176.000000
  10
164.250000
  20
-176.500000
  10
180.400000
  20
-177.000000
  10
154.300000
  20
-177.500000
  10
163.000000
  20
-178.000000
  10
173.500000
  20
-178.500000
  10
166.150000
  20
-179.000000
  10
172.300000
  20
-179.500000
  10
175.750000
  20
-180.000000
  10
172.150000
  20
-180.500000
  10
166.850000
  20
-181.000000
  10
163.150000
  20
-181.500000
  10
176.600000
  20
-182.000000
  10
176.050000
  20
-182.500000
  10
174.950000
  20
-183.000000
  10
172.750000
  20
-183.500000
  10
169.800000
  20
-184.000000
  10
168.800000
  20
-184.500000
  10
159.100000
  20
-185.000000
  10
158.350000
  20
-185.500000
  10
157.250000
  20
-186.000000
  10
151.000000
  20
-186.500000
  10
143.350000
  20
-187.000000
  10
138.800000
  20
-187.500000
  10
140.100000
  20
-188.000000
  10
138.650000
  20
-188.500000
  10
138.200000
  20
-189.000000
  10
136.650000
  20
-189.500000
  10
132.900000
  20
-190.000000
  10
132.300000
  20
-190.500000
  10
131.750000
  20
-191.000000
  10
132.150000
  20
-191.500000
  10
132.300000
  20
-192.000000
  10
133.100000
  20
-192.500000
  10
134.250000
  20
-193.000000
  10
134.250000
  20
-193.500000
  10
134.750000
  20
-194.000000
  10
134.400000
  20
-194.500000
  10
134.300000
  20
-195.000000
  10
134.500000
  20
-195.500000
  10
133.700000
  20
-196.000000
  10
133.700000
  20
-196.500000
  10
134.250000
  20
-197.000000
  10
132.950000
  20
-197.500000
  10
133.200000
  20
-198.000000
  10
134.000000
  20
-198.500000
  10
134.150000
  20
-199.000000
  10
134.050000
  20
-199.500000
  10
132.050000
  20
-200.000000
  10
132.050000
  20
-200.500000
  10
132.950000
  20
-201.000000
  10
132.550000
  20
-201.500000
  10
131.450000
  20
-202.000000
  10
132.700000
  20
-202.500000
  10
132.250000
  20
-203.000000
  10
132.700000
  20
-203.500000
  10
132.700000
  20
-204.000000
  10
134.700000
  20
-204.500000
  10
132.250000
  20
-205.000000
  10
131.950000
  20
-205.500000
  10
131.300000
  20
-206.000000
  10
131.300000
  20
-206.500000
  10
131.300000
  20
-207.000000
  10
130.850000
  20
-207.500000
  10
131.100000
  20
-208.000000
  10
130.800000
  20
-208.500000
  10
131.350000
  20
-209.000000
  10
131.750000
  20
-209.500000
  10
131.450000
  20
-210.000000
  10
130.950000
  20
-210.500000
  10
131.250000
  20
-211.000000
  10
131.300000
  20
-211.500000
  10
131.550000
  20
-212.000000
  10
131.200000
  20
-212.500000
  10
130.800000
  20
-213.000000
  10
130.650000
  20
-213.500000
  10
130.750000
  20
-214.000000
  10
130.450000
  20
-214.500000
  10
131.100000
  20
-215.000000
  10
131.400000
  20
-215.500000
  10
132.400000
  20
-216.000000
  10
133.250000
  20
-216.500000
  10
133.800000
  20
-217.000000
  10
135.500000
  20
-217.500000
  10
135.300000
  20
-218.000000
  10
135.200000
  20
-218.500000
  10
137.300000
  20
-219.000000
  10
136.550000
  20
-219.500000
  10
139.800000
  20
-220.000000
  10
140.300000
  20
-220.500000
  10
139.850000
  20
-221.000000
  10
139.650000
  20
-221.500000
  10
138.650000
  20
-222.000000
  10
134.550000
  20
-222.500000
  10
135.450000
  20
-223.000000
  10
136.550000
  20
-223.500000
  10
141.000000
  20
-224.000000
  10
142.900000
  20
-224.500000
  10
143.350000
  20
-225.000000
  10
141.800000
  20
-225.500000
  10
143.700000
  20
-226.000000
  10
150.000000
  20
-226.500000
  10
161.850000
  20
-227.000000
  10
177.750000
  20
-227.500000
  10
161.850000
  20
-228.000000
  10
141.050000
  20
-228.500000
  10
136.850000
  20
-229.000000
  10
135.900000
  20
-229.500000
  10
132.950000
  20
-230.000000
  10
132.850000
  20
-230.500000
  10
133.400000
  20
-231.000000
  10
133.550000
  20
-231.500000
  10
137.000000
  20
-232.000000
  10
144.100000
  20
-232.500000
  10
139.650000
  20
-233.000000
  10
137.300000
  20
-233.500000
  10
137.150000
  20
-234.000000
  10
138.650000
  20
-234.500000
  10
136.700000
  20
-235.000000
  10
137.500000
  20
-235.500000
  10
140.600000
  20
-236.000000
  10
142.250000
  20
-236.500000
  10
142.400000
  20
-237.000000
  10
148.950000
  20
-237.500000
  10
147.350000
  20
-238.000000
  10
144.700000
  20
-238.500000
  10
147.350000
  20
-239.000000
  10
156.450000
  20
-239.500000
  10
153.550000
  20
-240.000000
  10
161.200000
  20
-240.500000
  10
161.300000
  20
-241.000000
  10
158.900000
  20
-241.500000
  10
151.750000
  20
-242.000000
  10
145.200000
  20
-242.500000
  10
144.050000
  20
-243.000000
  10
142.650000
  20
-243.500000
  10
142.150000
  20
-244.000000
  10
141.350000
  20
-244.500000
  10
140.800000
  20
-245.000000
  10
140.550000
  20
-245.500000
  10
140.000000
  20
-246.000000
  10
140.050000
  20
-246.500000
  10
139.450000
  20
-247.000000
  10
140.500000
  20
-247.500000
  10
140.500000
  20
-248.000000
  10
139.900000
  20
-248.500000
  10
138.800000
  20
-249.000000
  10
138.350000
  20
-249.500000
  10
137.500000
  20
-250.000000
  10
136.650000
  20
-250.500000
  10
138.900000
  20
-251.000000
  10
138.900000
  20
-251.500000
  10
140.300000
  20
-252.000000
  10
143.050000
  20
-252.500000
  10
144.450000
  20
-253.000000
  10
144.950000
  20
-253.500000
  10
144.400000
  20
-254.000000
  10
144.000000
  20
-254.500000
  10
152.150000
  20
-255.000000
  10
151.350000
  20
-255.500000
  10
152.500000
  20
-256.000000
  10
151.050000
  20
-256.500000
  10
147.200000
  20
-257.000000
  10
151.150000
  20
-257.500000
  10
151.000000
  20
-258.000000
  10
150.750000
  20
-258.500000
  10
148.400000
  20
-259.000000
  10
148.250000
  20
-259.500000
  10
134.900000
  20
-260.000000
  10
133.000000
  20
-260.500000
  10
132.650000
  20
-261.000000
  10
132.450000
  20
-261.500000
  10
132.650000
  20
-262.000000
  10
132.700000
  20
-262.500000
  10
132.150000
  20
-263.000000
  10
132.550000
  20
-263.500000
  10
132.650000
  20
-264.000000
  10
134.050000
  20
-264.500000
  10
135.550000
  20
-265.000000
  10
135.400000
  20
-265.500000
  10
135.400000
  20
-266.000000
  10
138.900000
  20
-266.500000
  10
140.800000
  20
-267.000000
  10
142.550000
  20
-267.500000
  10
133.650000
  20
-268.000000
  10
132.500000
  20
-268.500000
  10
132.400000
  20
-269.000000
  10
132.350000
  20
-269.500000
  10
132.150000
  20
-270.000000
  10
132.450000
  20
-270.500000
  10
132.250000
  20
-271.000000
  10
132.200000
  20
-271.500000
  10
132.150000
  20
-272.000000
  10
132.050000
  20
-272.500000
  10
132.200000
  20
-273.000000
  10
132.150000
  20
-273.500000
  10
132.150000
  20
-274.000000
  10
132.150000
  20
-274.500000
  10
132.200000
  20
-275.000000
  10
132.150000
  20
-275.500000
  10
132.200000
  20
-276.000000
  10
132.200000
  20
-276.500000
  10
132.200000
  20
-277.000000
  10
132.350000
  20
-277.500000
  10
132.500000
  20
-278.000000
  10
132.500000
  20
-278.500000
  10
132.500000
  20
-279.000000
  10
132.650000
  20
-279.500000
  10
133.000000
  20
-280.000000
  10
133.200000
  20
-280.500000
  10
133.400000
  20
-281.000000
  10
133.550000
  20
-281.500000
  10
134.200000
  20
-282.000000
  10
134.400000
  20
-282.500000
  10
134.600000
  20
-283.000000
  10
134.600000
  20
-283.500000
  10
134.550000
  20
-284.000000
  10
134.650000
  20
-284.500000
  10
134.800000
  20
-285.000000
  10
135.200000
  20
-285.500000
  10
135.200000
  20
-286.000000
  10
135.150000
  20
-286.500000
  10
135.000000
  20
-287.000000
  10
134.300000
  20
-287.500000
  10
134.350000
  20
-288.000000
  10
134.350000
  20
-288.500000
  10
134.350000
  20
-289.000000
  10
134.200000
  20
-289.500000
  10
133.950000
  20
-290.000000
  10
133.900000
  20
-290.500000
  10
133.900000
  20
-291.000000
  10
133.900000
  20
-291.500000
  10
133.950000
  20
-292.000000
  10
134.150000
  20
-292.500000
  10
134.150000
  20
-293.000000
  10
134.150000
  20
-293.500000
  10
134.050000
  20
-294.000000
  10
134.000000
  20
-294.500000
  10
133.700000
  20
-295.000000
  10
133.800000
  20
-295.500000
  10
133.500000
  20
-296.000000
  10
133.350000
  20
-296.500000
  10
133.200000
  20
-297.000000
  10
133.650000
  20
-297.500000
  10
133.550000
  20
-298.000000
  10
133.500000
  20
-298.500000
  10
133.150000
  20
-299.000000
  10
133.150000
  20
-299.500000
  10
133.400000
  20
-300.000000
  10
133.150000
  20
-300.500000
  10
133.200000
  20
-301.000000
  10
133.200000
  20
-301.500000
  10
133.200000
  20
-302.000000
  10
133.350000
  20
-302.500000
  10
133.300000
  20
-303.000000
  10
133.250000
  20
-303.500000
  10
133.250000
  20
-304.000000
  10
133.350000
  20
-304.500000
  10
134.350000
  20
-305.000000
  10
134.000000
  20
-305.500000
  10
134.000000
  20
-306.000000
  10
133.950000
  20
-306.500000
  10
133.950000
  20
-307.000000
  10
134.400000
  20
-307.500000
  10
133.950000
  20
-308.000000
  10
134.500000
  20
-308.500000
  10
184.800000
  20
-309.000000
  10
205.500000
  20
-309.500000
  10
205.500000
  20
-310.000000
  10
186.900000
  20
-310.500000
  10
186.800000
  20
-311.000000
  10
186.350000
  20
-311.500000
  10
183.500000
  20
-312.000000
  10
187.500000
  20
-312.500000
  10
190.600000
  20
-313.000000
  10
199.600000
  20
-313.500000
  10
205.500000
  20
-314.000000
  10
205.500000
  20
-314.500000
  10
205.500000
  20
-315.000000
  10
205.500000
  20
-315.500000
  10
205.500000
  20
-316.000000
  10
205.500000
  20
-316.500000
  10
205.500000
  20
-317.000000
  10
205.500000
  20
-317.500000
  10
205.500000
  20
-318.000000
  10
205.500000
  20
-318.500000
  10
205.500000
  20
-319.000000
  10
205.500000
  20
-319.500000
  10
205.500000
  20
-320.000000
  10
205.500000
  20
-320.500000
  10
205.500000
  20
-321.000000
  10
205.500000
  20
-321.500000
  10
205.500000
  20
-322.000000
  10
205.500000
  20
-322.500000
  10
205.500000
  20
-323.000000
  10
205.500000
  20
-323.500000
  10
205.500000
  20
-324.000000
  10
205.500000
  20
-324.500000
  10
205.500000
  20
-325.000000
  10
205.500000
  20
-325.500000
  10
205.500000
  20
-326.000000
  10
205.500000
  20
-326.500000
  10
205.500000
  20
-327.000000
  10
205.500000
  20
-327.500000
  10
205.500000
  20
-328.000000
  10
205.500000
  20
-328.500000
  10
205.500000
  20
-329.000000
  10
205.500000
  20
-329.500000
  10
205.500000
  20
-330.000000
  10
205.500000
  20
-330.500000
  10
205.500000
  20
-331.000000
  10
205.500000
  20
-331.500000
  10
205.500000
  20
-332.000000
  10
205.500000
  20
-332.500000
  10
205.500000
  20
-333.000000
  10
205.500000
  20
-333.500000
  10
205.500000
  20
-334.000000
  10
205.500000
  20
-334.500000
  10
205.500000
  20
-335.000000
  10
205.500000
  20
-335.500000
  10
205.500000
  20
-336.000000
  10
205.500000
  20
-336.500000
  10
205.500000
  20
-337.000000
  10
205.500000
  20
-337.500000
  10
205.500000
  20
-338.000000
  10
205.500000
  20
-338.500000
  10
205.500000
  20
-339.000000
  10
205.500000
  20
-339.500000
  10
205.500000
  20
-340.000000
  10
205.500000
  20
-340.500000
  10
205.500000
  20
-341.000000
  10
205.500000
  20
-341.500000
  10
205.500000
  20
-342.000000
  10
205.500000
  20
-342.500000
  10
205.500000
  20
-343.000000
  10
205.500000
  20
-343.500000
  10
205.500000
  20
-344.000000
  10
205.500000
  20
-344.500000
  10
205.500000
  20
-345.000000
  0
LWPOLYLINE
  5
24C
  100
AcDbEntity
  8
0
  100
AcDbPolyline
  90
500
  10
270.000000
  20
-95.500000
  10
287.000000
  20
-96.000000
  10
287.000000
  20
-96.500000
  10
287.000000
  20
-97.000000
  10
287.000000
  20
-97.500000
  10
287.000000
  20
-98.000000
  10
258.000000
  20
-98.500000
  10
223.000000
  20
-99.000000
  10
287.000000
  20
-99.500000
  10
230.000000
  20
-100.000000
  10
256.000000
  20
-100.500000
  10
222.000000
  20
-101.000000
  10
236.000000
  20
-101.500000
  10
245.000000
  20
-102.000000
  10
214.000000
  20
-102.500000
  10
223.000000
  20
-103.000000
  10
243.000000
  20
-103.500000
  10
220.000000
  20
-104.000000
  10
211.000000
  20
-104.500000
  10
207.000000
  20
-105.000000
  10
230.000000
  20
-105.500000
  10
287.000000
  20
-106.000000
  10
278.000000
  20
-106.500000
  10
285.000000
  20
-107.000000
  10
287.000000
  20
-107.500000
  10
247.000000
  20
-108.000000
  10
246.000000
  20
-108.500000
  10
252.000000
  20
-109.000000
  10
264.000000
  20
-109.500000
  10
273.000000
  20
-110.000000
  10
273.000000
  20
-110.500000
  10
273.000000
  20
-111.000000
  10
270.000000
  20
-111.500000
  10
276.000000
  20
-112.000000
  10
281.000000
  20
-112.500000
  10
274.000000
  20
-113.000000
  10
275.000000
  20
-113.500000
  10
279.000000
  20
-114.000000
  10
276.000000
  20
-114.500000
  10
276.000000
  20
-115.000000
  10
268.000000
  20
-115.500000
  10
266.000000
  20
-116.000000
  10
263.000000
  20
-116.500000
  10
260.000000
  20
-117.000000
  10
263.000000
  20
-117.500000
  10
265.000000
  20
-118.000000
  10
266.000000
  20
-118.500000
  10
267.000000
  20
-119.000000
  10
262.000000
  20
-119.500000
  10
263.000000
  20
-120.000000
  10
266.000000
  20
-120.500000
  10
264.000000
  20
-121.000000
  10
265.000000
  20
-121.500000
  10
264.000000
  20
-122.000000
  10
267.000000
  20
-122.500000
  10
270.000000
  20
-123.000000
  10
268.000000
  20
-123.500000
  10
261.000000
  20
-124.000000
  10
252.000000
  20
-124.500000
  10
249.000000
  20
-125.000000
  10
247.000000
  20
-125.500000
  10
247.000000
  20
-126.000000
  10
249.000000
  20
-126.500000
  10
247.000000
  20
-127.000000
  10
245.000000
  20
-127.500000
  10
240.000000
  20
-128.000000
  10
243.000000
  20
-128.500000
  10
240.000000
  20
-129.000000
  10
241.000000
  20
-129.500000
  10
240.000000
  20
-130.000000
  10
242.000000
  20
-130.500000
  10
247.000000
  20
-131.000000
  10
247.000000
  20
-131.500000
  10
245.000000
  20
-132.000000
  10
242.000000
  20
-132.500000
  10
264.000000
  20
-133.000000
  10
239.000000
  20
-133.500000
  10
241.000000
  20
-134.000000
  10
237.000000
  20
-134.500000
  10
250.000000
  20
-135.000000
  10
247.000000
  20
-135.500000
  10
241.000000
  20
-136.000000
  10
254.000000
  20
-136.500000
  10
240.000000
  20
-137.000000
  10
238.000000
  20
-137.500000
  10
231.000000
  20
-138.000000
  10
234.000000
  20
-138.500000
  10
238.000000
  20
-139.000000
  10
245.000000
  20
-139.500000
  10
252.000000
  20
-140.000000
  10
250.000000
  20
-140.500000
  10
242.000000
  20
-141.000000
  10
247.000000
  20
-141.500000
  10
247.000000
  20
-142.000000
  10
235.000000
  20
-142.500000
  10
232.000000
  20
-143.000000
  10
238.000000
  20
-143.500000
  10
240.000000
  20
-144.000000
  10
235.000000
  20
-144.500000
  10
238.000000
  20
-145.000000
  10
232.000000
  20
-145.500000
  10
243.000000
  20
-146.000000
  10
240.000000
  20
-146.500000
  10
227.000000
  20
-147.000000
  10
231.000000
  20
-147.500000
  10
235.000000
  20
-148.000000
  10
248.000000
  20
-148.500000
  10
242.000000
  20
-149.000000
  10
238.000000
  20
-149.500000
  10
224.000000
  20
-150.000000
  10
226.000000
  20
-150.500000
  10
227.000000
  20
-151.000000
  10
227.000000
  20
-151.500000
  10
228.000000
  20
-152.000000
  10
226.000000
  20
-152.500000
  10
223.000000
  20
-153.000000
  10
226.000000
  20
-153.500000
  10
225.000000
  20
-154.000000
  10
225.000000
  20
-154.500000
  10
228.000000
  20
-155.000000
  10
227.000000
  20
-155.500000
  10
224.000000
  20
-156.000000
  10
225.000000
  20
-156.500000
  10
224.000000
  20
-157.000000
  10
222.000000
  20
-157.500000
  10
224.000000
  20
-158.000000
  10
229.000000
  20
-158.500000
  10
225.000000
  20
-159.000000
  10
224.000000
  20
-159.500000
  10
223.000000
  20
-160.000000
  10
225.000000
  20
-160.500000
  10
221.000000
  20
-161.000000
  10
221.000000
  20
-161.500000
  10
221.000000
  20
-162.000000
  10
227.000000
  20
-162.500000
  10
223.000000
  20
-163.000000
  10
225.000000
  20
-163.500000
  10
223.000000
  20
-164.000000
  10
222.000000
  20
-164.500000
  10
221.000000
  20
-165.000000
  10
220.000000
  20
-165.500000
  10
222.000000
  20
-166.000000
  10
224.000000
  20
-166.500000
  10
228.000000
  20
-167.000000
  10
233.000000
  20
-167.500000
  10
223.000000
  20
-168.000000
  10
232.000000
  20
-168.500000
  10
219.000000
  20
-169.000000
  10
219.000000
  20
-169.500000
  10
229.000000
  20
-170.000000
  10
224.000000
  20
-170.500000
  10
218.000000
  20
-171.000000
  10
217.000000
  20
-171.500000
  10
222.000000
  20
-172.000000
  10
223.000000
  20
-172.500000
  10
239.000000
  20
-173.000000
  10
228.000000
  20
-173.500000
  10
226.000000
  20
-174.000000
  10
241.000000
  20
-174.500000
  10
255.000000
  20
-175.000000
  10
222.000000
  20
-175.500000
  10
216.000000
  20
-176.000000
  10
222.000000
  20
-176.500000
  10
261.000000
  20
-177.000000
  10
245.000000
  20
-177.500000
  10
227.000000
  20
-178.000000
  10
223.000000
  20
-178.500000
  10
219.000000
  20
-179.000000
  10
222.000000
  20
-179.500000
  10
235.000000
  20
-180.000000
  10
229.000000
  20
-180.500000
  10
219.000000
  20
-181.000000
  10
218.000000
  20
-181.500000
  10
232.000000
  20
-182.000000
  10
230.000000
  20
-182.500000
  10
243.000000
  20
-183.000000
  10
240.000000
  20
-183.500000
  10
245.000000
  20
-184.000000
  10
232.000000
  20
-184.500000
  10
242.000000
  20
-185.000000
  10
255.000000
  20
-185.500000
  10
248.000000
  20
-186.000000
  10
260.000000
  20
-186.500000
  10
242.000000
  20
-187.000000
  10
235.000000
  20
-187.500000
  10
229.000000
  20
-188.000000
  10
220.000000
  20
-188.500000
  10
228.000000
  20
-189.000000
  10
227.000000
  20
-189.500000
  10
223.000000
  20
-190.000000
  10
224.000000
  20
-190.500000
  10
223.000000
  20
-191.000000
  10
224.000000
  20
-191.500000
  10
220.000000
  20
-192.000000
  10
222.000000
  20
-192.500000
  10
225.000000
  20
-193.000000
  10
225.000000
  20
-193.500000
  10
227.000000
  20
-194.000000
  10
223.000000
  20
-194.500000
  10
223.000000
  20
-195.000000
  10
230.000000
  20
-195.500000
  10
227.000000
  20
-196.000000
  10
226.000000
  20
-196.500000
  10
227.000000
  20
-197.000000
  10
224.000000
  20
-197.500000
  10
223.000000
  20
-198.000000
  10
224.000000
  20
-198.500000
  10
224.000000
  20
-199.000000
  10
225.000000
  20
-199.500000
  10
221.000000
  20
-200.000000
  10
221.000000
  20
-200.500000
  10
221.000000
  20
-201.000000
  10
219.000000
  20
-201.500000
  10
219.000000
  20
-202.000000
  10
222.000000
  20
-202.500000
  10
220.000000
  20
-203.000000
  10
220.000000
  20
-203.500000
  10
219.000000
  20
-204.000000
  10
223.000000
  20
-204.500000
  10
221.000000
  20
-205.000000
  10
222.000000
  20
-205.500000
  10
222.000000
  20
-206.000000
  10
220.000000
  20
-206.500000
  10
220.000000
  20
-207.000000
  10
219.000000
  20
-207.500000
  10
219.000000
  20
-208.000000
  10
219.000000
  20
-208.500000
  10
222.000000
  20
-209.000000
  10
223.000000
  20
-209.500000
  10
219.000000
  20
-210.000000
  10
219.000000
  20
-210.500000
  10
220.000000
  20
-211.000000
  10
220.000000
  20
-211.500000
  10
220.000000
  20
-212.000000
  10
218.000000
  20
-212.500000
  10
218.000000
  20
-213.000000
  10
218.000000
  20
-213.500000
  10
215.000000
  20
-214.000000
  10
217.000000
  20
-214.500000
  10
219.000000
  20
-215.000000
  10
218.000000
  20
-215.500000
  10
218.000000
  20
-216.000000
  10
218.000000
  20
-216.500000
  10
218.000000
  20
-217.000000
  10
223.000000
  20
-217.500000
  10
220.000000
  20
-218.000000
  10
223.000000
  20
-218.500000
  10
221.000000
  20
-219.000000
  10
220.000000
  20
-219.500000
  10
227.000000
  20
-220.000000
  10
225.000000
  20
-220.500000
  10
222.000000
  20
-221.000000
  10
226.000000
  20
-221.500000
  10
223.000000
  20
-222.000000
  10
221.000000
  20
-222.500000
  10
223.000000
  20
-223.000000
  10
222.000000
  20
-223.500000
  10
221.000000
  20
-224.000000
  10
225.000000
  20
-224.500000
  10
217.000000
  20
-225.000000
  10
220.000000
  20
-225.500000
  10
225.000000
  20
-226.000000
  10
214.000000
  20
-226.500000
  10
217.000000
  20
-227.000000
  10
258.000000
  20
-227.500000
  10
270.000000
  20
-228.000000
  10
237.000000
  20
-228.500000
  10
229.000000
  20
-229.000000
  10
228.000000
  20
-229.500000
  10
221.000000
  20
-230.000000
  10
222.000000
  20
-230.500000
  10
223.000000
  20
-231.000000
  10
220.000000
  20
-231.500000
  10
224.000000
  20
-232.000000
  10
226.000000
  20
-232.500000
  10
221.000000
  20
-233.000000
  10
228.000000
  20
-233.500000
  10
226.000000
  20
-234.000000
  10
225.000000
  20
-234.500000
  10
219.000000
  20
-235.000000
  10
223.000000
  20
-235.500000
  10
220.000000
  20
-236.000000
  10
219.000000
  20
-236.500000
  10
222.000000
  20
-237.000000
  10
230.000000
  20
-237.500000
  10
222.000000
  20
-238.000000
  10
221.000000
  20
-238.500000
  10
225.000000
  20
-239.000000
  10
228.000000
  20
-239.500000
  10
216.000000
  20
-240.000000
  10
223.000000
  20
-240.500000
  10
219.000000
  20
-241.000000
  10
220.000000
  20
-241.500000
  10
221.000000
  20
-242.000000
  10
223.000000
  20
-242.500000
  10
220.000000
  20
-243.000000
  10
226.000000
  20
-243.500000
  10
226.000000
  20
-244.000000
  10
222.000000
  20
-244.500000
  10
221.000000
  20
-245.000000
  10
222.000000
  20
-245.500000
  10
222.000000
  20
-246.000000
  10
223.000000
  20
-246.500000
  10
220.000000
  20
-247.000000
  10
226.000000
  20
-247.500000
  10
226.000000
  20
-248.000000
  10
224.000000
  20
-248.500000
  10
227.000000
  20
-249.000000
  10
222.000000
  20
-249.500000
  10
224.000000
  20
-250.000000
  10
221.000000
  20
-250.500000
  10
218.000000
  20
-251.000000
  10
224.000000
  20
-251.500000
  10
225.000000
  20
-252.000000
  10
228.000000
  20
-252.500000
  10
229.000000
  20
-253.000000
  10
225.000000
  20
-253.500000
  10
230.000000
  20
-254.000000
  10
228.000000
  20
-254.500000
  10
232.000000
  20
-255.000000
  10
225.000000
  20
-255.500000
  10
237.000000
  20
-256.000000
  10
228.000000
  20
-256.500000
  10
227.000000
  20
-257.000000
  10
235.000000
  20
-257.500000
  10
234.000000
  20
-258.000000
  10
235.000000
  20
-258.500000
  10
227.000000
  20
-259.000000
  10
236.000000
  20
-259.500000
  10
219.000000
  20
-260.000000
  10
220.000000
  20
-260.500000
  10
219.000000
  20
-261.000000
  10
219.000000
  20
-261.500000
  10
220.000000
  20
-262.000000
  10
220.000000
  20
-262.500000
  10
219.000000
  20
-263.000000
  10
220.000000
  20
-263.500000
  10
218.000000
  20
-264.000000
  10
221.000000
  20
-264.500000
  10
224.000000
  20
-265.000000
  10
225.000000
  20
-265.500000
  10
225.000000
  20
-266.000000
  10
219.000000
  20
-266.500000
  10
230.000000
  20
-267.000000
  10
236.000000
  20
-267.500000
  10
221.000000
  20
-268.000000
  10
220.000000
  20
-268.500000
  10
219.000000
  20
-269.000000
  10
219.000000
  20
-269.500000
  10
219.000000
  20
-270.000000
  10
220.000000
  20
-270.500000
  10
218.000000
  20
-271.000000
  10
219.000000
  20
-271.500000
  10
219.000000
  20
-272.000000
  10
219.000000
  20
-272.500000
  10
219.000000
  20
-273.000000
  10
218.000000
  20
-273.500000
  10
218.000000
  20
-274.000000
  10
218.000000
  20
-274.500000
  10
218.000000
  20
-275.000000
  10
218.000000
  20
-275.500000
  10
218.000000
  20
-276.000000
  10
218.000000
  20
-276.500000
  10
218.000000
  20
-277.000000
  10
218.000000
  20
-277.500000
  10
219.000000
  20
-278.000000
  10
218.000000
  20
-278.500000
  10
218.000000
  20
-279.000000
  10
218.000000
  20
-279.500000
  10
219.000000
  20
-280.000000
  10
219.000000
  20
-280.500000
  10
219.000000
  20
-281.000000
  10
219.000000
  20
-281.500000
  10
220.000000
  20
-282.000000
  10
220.000000
  20
-282.500000
  10
220.000000
  20
-283.000000
  10
220.000000
  20
-283.500000
  10
220.000000
  20
-284.000000
  10
220.000000
  20
-284.500000
  10
220.000000
  20
-285.000000
  10
221.000000
  20
-285.500000
  10
221.000000
  20
-286.000000
  10
221.000000
  20
-286.500000
  10
221.000000
  20
-287.000000
  10
220.000000
  20
-287.500000
  10
220.000000
  20
-288.000000
  10
220.000000
  20
-288.500000
  10
220.000000
  20
-289.000000
  10
220.000000
  20
-289.500000
  10
219.000000
  20
-290.000000
  10
219.000000
  20
-290.500000
  10
219.000000
  20
-291.000000
  10
219.000000
  20
-291.500000
  10
219.000000
  20
-292.000000
  10
219.000000
  20
-292.500000
  10
220.000000
  20
-293.000000
  10
219.000000
  20
-293.500000
  10
219.000000
  20
-294.000000
  10
219.000000
  20
-294.500000
  10
219.000000
  20
-295.000000
  10
219.000000
  20
-295.500000
  10
219.000000
  20
-296.000000
  10
219.000000
  20
-296.500000
  10
218.000000
  20
-297.000000
  10
219.000000
  20
-297.500000
  10
218.000000
  20
-298.000000
  10
218.000000
  20
-298.500000
  10
217.000000
  20
-299.000000
  10
218.000000
  20
-299.500000
  10
218.000000
  20
-300.000000
  10
217.000000
  20
-300.500000
  10
218.000000
  20
-301.000000
  10
218.000000
  20
-301.500000
  10
218.000000
  20
-302.000000
  10
218.000000
  20
-302.500000
  10
218.000000
  20
-303.000000
  10
218.000000
  20
-303.500000
  10
218.000000
  20
-304.000000
  10
218.000000
  20
-304.500000
  10
218.000000
  20
-305.000000
  10
218.000000
  20
-305.500000
  10
218.000000
  20
-306.000000
  10
218.000000
  20
-306.500000
  10
218.000000
  20
-307.000000
  10
219.000000
  20
-307.500000
  10
218.000000
  20
-308.000000
  10
219.000000
  20
-308.500000
  10
217.000000
  20
-309.000000
  10
222.000000
  20
-309.500000
  10
219.000000
  20
-310.000000
  10
213.000000
  20
-310.500000
  10
213.000000
  20
-311.000000
  10
214.000000
  20
-311.500000
  10
214.000000
  20
-312.000000
  10
215.000000
  20
-312.500000
  10
214.000000
  20
-313.000000
  10
215.000000
  20
-313.500000
  10
216.000000
  20
-314.000000
  10
215.000000
  20
-314.500000
  10
216.000000
  20
-315.000000
  10
217.000000
  20
-315.500000
  10
217.000000
  20
-316.000000
  10
218.000000
  20
-316.500000
  10
219.000000
  20
-317.000000
  10
218.000000
  20
-317.500000
  10
217.000000
  20
-318.000000
  10
217.000000
  20
-318.500000
  10
219.000000
  20
-319.000000
  10
222.000000
  20
-319.500000
  10
224.000000
  20
-320.000000
  10
224.000000
  20
-320.500000
  10
225.000000
  20
-321.000000
  10
225.000000
  20
-321.500000
  10
225.000000
  20
-322.000000
  10
224.000000
  20
-322.500000
  10
226.000000
  20
-323.000000
  10
224.000000
  20
-323.500000
  10
222.000000
  20
-324.000000
  10
224.000000
  20
-324.500000
  10
225.000000
  20
-325.000000
  10
223.000000
  20
-325.500000
  10
222.000000
  20
-326.000000
  10
220.000000
  20
-326.500000
  10
221.000000
  20
-327.000000
  10
222.000000
  20
-327.500000
  10
220.000000
  20
-328.000000
  10
221.000000
  20
-328.500000
  10
222.000000
  20
-329.000000
  10
223.000000
  20
-329.500000
  10
227.000000
  20
-330.000000
  10
224.000000
  20
-330.500000
  10
224.000000
  20
-331.000000
  10
225.000000
  20
-331.500000
  10
223.000000
  20
-332.000000
  10
223.000000
  20
-332.500000
  10
223.000000
  20
-333.000000
  10
223.000000
  20
-333.500000
  10
224.000000
  20
-334.000000
  10
225.000000
  20
-334.500000
  10
224.000000
  20
-335.000000
  10
224.000000
  20
-335.500000
  10
225.000000
  20
-336.000000
  10
225.000000
  20
-336.500000
  10
227.000000
  20
-337.000000
  10
226.000000
  20
-337.500000
  10
224.000000
  20
-338.000000
  10
222.000000
  20
-338.500000
  10
226.000000
  20
-339.000000
  10
224.000000
  20
-339.500000
  10
226.000000
  20
-340.000000
  10
225.000000
  20
-340.500000
  10
224.000000
  20
-341.000000
  10
221.000000
  20
-341.500000
  10
221.000000
  20
-342.000000
  10
222.000000
  20
-342.500000
  10
221.000000
  20
-343.000000
  10
221.000000
  20
-343.500000
  10
227.000000
  20
-344.000000
  10
237.000000
  20
-344.500000
  10
234.000000
  20
-345.000000
  0
LWPOLYLINE
  5
24D
  100
AcDbEntity
  8
0
  100
AcDbPolyline
  90
4
  70
1
  10
10.000000
  20
-347.000000
  10
287.000000
  20
-347.000000
  10
287.000000
  20
-354.000000
  10
10.000000
  20
-354.000000
  0
LINE
  5
24E
  100
AcDbEntity
  8
0
  100
AcDbLine
  10
40.000000
  20
-347.000000
  11
40.000000
  21
-354.000000
  0
LINE
  5
24F
  100
AcDbEntity
  8
0
  100
AcDbLine
  10
57.000000
  20
-347.000000
  11
57.000000
  21
-354.000000
  0
LINE
  5
250
  100
AcDbEntity
  8
0
  100
AcDbLine
  10
81.000000
  20
-347.000000
  11
81.000000
  21
-354.000000
  0
LINE
  5
251
  100
AcDbEntity
  8
0
  100
AcDbLine
  10
98.000000
  20
-347.000000
  11
98.000000
  21
-354.000000
  0
LINE
  5
252
  100
AcDbEntity
  8
0
  100
AcDbLine
  10
122.000000
  20
-347.000000
  11
122.000000
  21
-354.000000
  0
LINE
  5
253
  100
AcDbEntity
  8
0
  100
AcDbLine
  10
139.000000
  20
-347.000000
  11
139.000000
  21
-354.000000
  0
LINE
  5
254
  100
AcDbEntity
  8
0
  100
AcDbLine
  10
163.000000
  20
-347.000000
  11
163.000000
  21
-354.000000
  0
LINE
  5
255
  100
AcDbEntity
  8
0
  100
AcDbLine
  10
180.000000
  20
-347.000000
  11
180.000000
  21
-354.000000
  0
LINE
  5
256
  100
AcDbEntity
  8
0
  100
AcDbLine
  10
194.000000
  20
-347.000000
  11
194.000000
  21
-354.000000
  0
LINE
  5
257
  100
AcDbEntity
  8
0
  100
AcDbLine
  10
224.000000
  20
-347.000000
  11
224.000000
  21
-354.000000
  0
MTEXT
  5
258
  100
AcDbEntity
  8
0
  100
AcDbMText
  1
{\f黑体|b0|i0|c134|p54;2008-K-352}
  11
1.000000
  21
0.000000
  71
5
  10
25.000000
  20
-350.500000
  40
2.700000
  44
0.840000
  0
MTEXT
  5
259
  100
AcDbEntity
  8
0
  100
AcDbMText
  1
{\fArial|b0|i0|c134|p54;Compiled by}
  11
1.000000
  21
0.000000
  71
5
  10
48.500000
  20
-350.500000
  40
2.500000
  44
0.840000
  0
MTEXT
  5
25A
  100
AcDbEntity
  8
0
  100
AcDbMText
  1
{\fArial|b0|i0|c134|p54;Checked by}
  11
1.000000
  21
0.000000
  71
5
  10
89.500000
  20
-350.500000
  40
2.500000
  44
0.840000
  0
MTEXT
  5
25B
  100
AcDbEntity
  8
0
  100
AcDbMText
  1
{\fArial|b0|i0|c134|p54;Approved by}
  11
1.000000
  21
0.000000
  71
5
  10
130.500000
  20
-350.500000
  40
2.500000
  44
0.840000
  0
MTEXT
  5
25C
  100
AcDbEntity
  8
0
  100
AcDbMText
  1
{\fArial|b0|i0|c134|p54;Chart No}
  11
1.000000
  21
0.000000
  71
5
  10
171.500000
  20
-350.500000
  40
2.500000
  44
0.840000
  0
MTEXT
  5
25D
  100
AcDbEntity
  8
0
  100
AcDbMText
  1
{\fArial|b0|i0|c134|p54;Page           of           }
  11
1.000000
  21
0.000000
  71
5
  10
209.000000
  20
-350.500000
  40
2.500000
  44
0.840000
  0
ENDSEC
  0
SECTION
  2
OBJECTS
  0
DICTIONARY
  5
C
  330
0
  100
AcDbDictionary
  3
ACAD_GROUP
  350
D
  3
ACAD_LAYOUT
  350
25E
  3
ACAD_MLINESTYLE
  350
25F
  0
DICTIONARY
  5
D
  100
AcDbDictionary
  0
DICTIONARY
  5
25E
  100
AcDbDictionary
  3
Model
  350
260
  0
DICTIONARY
  5
25F
  100
AcDbDictionary
  3
Standard
  350
25F
  0
LAYOUT
  5
260
  100
AcDbPlotSettings
  100
AcDbLayout
  1
Model
  330
1F
  0
ENDSEC
  0
EOF
